SplineFontDB: 3.0
FontName: Miltonian-Regular
FullName: Miltonian
FamilyName: Miltonian
Weight: Book
Copyright: Copyright (c) 2011 by Pablo Impallari. www.impallari.com Igino Marini. www.ikern.com. All rights reserved.
Version: 1.005
ItalicAngle: 0
UnderlinePosition: 0
UnderlineWidth: 0
Ascent: 800
Descent: 200
sfntRevision: 0x00010148
LayerCount: 2
Layer: 0 1 "Back"  1
Layer: 1 1 "Fore"  0
XUID: [1021 288 713564382 4409943]
FSType: 0
OS2Version: 3
OS2_WeightWidthSlopeOnly: 0
OS2_UseTypoMetrics: 1
CreationTime: 1302253779
ModificationTime: 1313503171
PfmFamily: 81
TTFWeight: 400
TTFWidth: 5
LineGap: 0
VLineGap: 0
Panose: 4 6 5 5 6 9 2 4 0 4
OS2TypoAscent: 118
OS2TypoAOffset: 1
OS2TypoDescent: -74
OS2TypoDOffset: 1
OS2TypoLinegap: 0
OS2WinAscent: 0
OS2WinAOffset: 1
OS2WinDescent: 0
OS2WinDOffset: 1
HheadAscent: 0
HheadAOffset: 1
HheadDescent: 0
HheadDOffset: 1
OS2SubXSize: 700
OS2SubYSize: 650
OS2SubXOff: 0
OS2SubYOff: 140
OS2SupXSize: 700
OS2SupYSize: 650
OS2SupXOff: 0
OS2SupYOff: 477
OS2StrikeYSize: 50
OS2StrikeYPos: 250
OS2FamilyClass: 2307
OS2Vendor: 'PYRS'
OS2CodePages: 00000001.00000000
OS2UnicodeRanges: 8000002f.1000c00a.00000000.00000000
Lookup: 258 0 0 "'kern' Horizontal Kerning in Latin lookup 0"  {"'kern' Horizontal Kerning in Latin lookup 0 subtable"  } ['kern' ('DFLT' <'dflt' > 'latn' <'dflt' > ) ]
Lookup: 258 0 0 "'kern' Horizontal Kerning in Latin lookup 1"  {"'kern' Horizontal Kerning in Latin lookup 1 subtable"  } ['kern' ('DFLT' <'dflt' > 'latn' <'dflt' > ) ]
DEI: 91125
TtTable: prep
PUSHW_1
 511
SCANCTRL
PUSHB_1
 4
SCANTYPE
EndTTInstrs
ShortTable: maxp 16
  1
  0
  259
  244
  13
  177
  7
  2
  0
  1
  1
  0
  64
  0
  2
  1
EndShort

StartChar: exclam
Encoding: 33 33 4
Width: 322
Flags: W
LayerCount: 2
Fore
SplineSet
59 47 m 128,-1,1
 49 64 49 64 49 88 c 128,-1,2
 49 112 49 112 59.5 131.5 c 128,-1,3
 70 151 70 151 87 163 c 0,4,5
 121 187 121 187 175 187 c 0,6,7
 219 187 219 187 238 138 c 0,8,9
 249 109 249 109 249 77.5 c 128,-1,10
 249 46 249 46 241.5 32.5 c 128,-1,11
 234 19 234 19 222 10 c 0,12,13
 198 -7 198 -7 169 -7 c 128,-1,14
 140 -7 140 -7 120.5 -0.5 c 128,-1,15
 101 6 101 6 85 18 c 128,-1,0
 69 30 69 30 59 47 c 128,-1,1
99.5 111.5 m 128,-1,17
 92 100 92 100 92 87 c 128,-1,18
 92 74 92 74 98.5 63.5 c 128,-1,19
 105 53 105 53 114 46 c 0,20,21
 134 30 134 30 161 30 c 128,-1,22
 188 30 188 30 206 47 c 128,-1,23
 224 64 224 64 224 89.5 c 128,-1,24
 224 115 224 115 211 132 c 128,-1,25
 198 149 198 149 179 149 c 128,-1,26
 160 149 160 149 145.5 144.5 c 128,-1,27
 131 140 131 140 119 131.5 c 128,-1,16
 107 123 107 123 99.5 111.5 c 128,-1,17
67 443 m 1,28,-1
 68 459 l 2,29,30
 69 469 69 469 71.5 496.5 c 128,-1,31
 74 524 74 524 77 554.5 c 128,-1,32
 80 585 80 585 83 612.5 c 128,-1,33
 86 640 86 640 87 651 c 1,34,35
 98 688 98 688 150 688 c 0,36,37
 236 688 236 688 268 640 c 0,38,39
 279 623 279 623 279 596 c 1,40,-1
 217 297 l 1,41,42
 212 278 212 278 198.5 259.5 c 128,-1,43
 185 241 185 241 158.5 241 c 128,-1,44
 132 241 132 241 113 264.5 c 128,-1,45
 94 288 94 288 84 320 c 0,46,47
 67 372 67 372 67 443 c 1,28,-1
229 508 m 1,48,-1
 228 516 l 1,49,50
 228 531 228 531 232 546.5 c 128,-1,51
 236 562 236 562 236 579.5 c 128,-1,52
 236 597 236 597 235 608.5 c 128,-1,53
 234 620 234 620 223 638 c 1,54,55
 183 646 183 646 165.5 646 c 128,-1,56
 148 646 148 646 140.5 644.5 c 128,-1,57
 133 643 133 643 130 632 c 0,58,59
 111 556 111 556 111 455 c 1,60,-1
 124 347 l 2,61,62
 124 339 124 339 138.5 316 c 128,-1,63
 153 293 153 293 155 291 c 1,64,-1
 174 310 l 1,65,-1
 229 508 l 1,48,-1
EndSplineSet
EndChar

StartChar: quotedbl
Encoding: 34 34 5
Width: 483
Flags: W
LayerCount: 2
Fore
SplineSet
147 402 m 2,0,-1
 90 403 l 1,1,2
 74 408 74 408 64 423.5 c 128,-1,3
 54 439 54 439 47 453 c 1,4,5
 57 453 57 453 58.5 455.5 c 128,-1,6
 60 458 60 458 60 472.5 c 128,-1,7
 60 487 60 487 56 510 c 128,-1,8
 52 533 52 533 47 556 c 0,9,10
 34 614 34 614 34 647 c 0,11,12
 34 670 34 670 42 675.5 c 128,-1,13
 50 681 50 681 66 681 c 1,14,-1
 190 670 l 1,15,16
 202 667 202 667 202 652 c 0,17,18
 202 580 202 580 184 409 c 1,19,20
 173 402 173 402 147 402 c 2,0,-1
147 638 m 1,21,22
 115 645 115 645 95.5 645 c 128,-1,23
 76 645 76 645 74 640.5 c 128,-1,24
 72 636 72 636 72 607 c 128,-1,25
 72 578 72 578 97 453 c 1,26,-1
 140 453 l 1,27,28
 147 502 147 502 147 535 c 2,29,-1
 147 638 l 1,21,22
388 402 m 2,30,-1
 331 403 l 1,31,32
 307 410 307 410 289 453 c 1,33,34
 298 453 298 453 299.5 455.5 c 128,-1,35
 301 458 301 458 301 472.5 c 128,-1,36
 301 487 301 487 297 510 c 128,-1,37
 293 533 293 533 288 556 c 0,38,39
 275 614 275 614 275 647 c 0,40,41
 275 670 275 670 283 675.5 c 128,-1,42
 291 681 291 681 307 681 c 1,43,-1
 431 670 l 1,44,45
 443 667 443 667 443 652 c 0,46,47
 443 580 443 580 425 409 c 1,48,49
 414 402 414 402 388 402 c 2,30,-1
388 638 m 1,50,51
 356 645 356 645 337 645 c 128,-1,52
 318 645 318 645 315.5 640.5 c 128,-1,53
 313 636 313 636 313 607 c 128,-1,54
 313 578 313 578 338 453 c 1,55,-1
 381 453 l 1,56,57
 389 509 389 509 389 550 c 2,58,-1
 389 598 l 1,59,-1
 388 628 l 1,60,-1
 388 638 l 1,50,51
EndSplineSet
EndChar

StartChar: numbersign
Encoding: 35 35 6
Width: 563
Flags: W
LayerCount: 2
Fore
SplineSet
306 185 m 1,0,-1
 301 186 l 1,1,2
 297 185 297 185 287 183.5 c 128,-1,3
 277 182 277 182 266 179.5 c 128,-1,4
 255 177 255 177 245.5 175.5 c 128,-1,5
 236 174 236 174 229 171.5 c 128,-1,6
 222 169 222 169 216 148 c 128,-1,7
 210 127 210 127 206 102 c 0,8,9
 201 63 201 63 201 32 c 128,-1,10
 201 1 201 1 204 -4.5 c 128,-1,11
 207 -10 207 -10 207 -18.5 c 128,-1,12
 207 -27 207 -27 199 -36 c 128,-1,13
 191 -45 191 -45 183 -45 c 0,14,15
 158 -45 158 -45 158 -20 c 0,16,17
 158 26 158 26 166.5 72.5 c 128,-1,18
 175 119 175 119 175 165 c 1,19,-1
 152 166 l 1,20,-1
 126 167 l 2,21,22
 106 167 106 167 100 163.5 c 128,-1,23
 94 160 94 160 94 146 c 256,24,25
 94 132 94 132 96 129 c 1,26,27
 87 135 87 135 84.5 145.5 c 128,-1,28
 82 156 82 156 71 161 c 0,29,30
 63 164 63 164 55.5 166.5 c 128,-1,31
 48 169 48 169 42 173 c 0,32,33
 27 182 27 182 27 199.5 c 128,-1,34
 27 217 27 217 37 217 c 2,35,-1
 112 210 l 1,36,37
 135 210 135 210 146 217 c 1,38,-1
 108 285 l 1,39,40
 104 284 104 284 96 284 c 0,41,42
 64 284 64 284 64 307 c 0,43,44
 64 337 64 337 120 340 c 0,45,46
 132 340 132 340 140 341.5 c 128,-1,47
 148 343 148 343 162 344 c 1,48,49
 189 348 189 348 220 353 c 1,50,-1
 282 588 l 2,51,52
 285 602 285 602 301 602 c 0,53,54
 313 602 313 602 313 579 c 1,55,-1
 312 570 l 1,56,-1
 263 371 l 1,57,-1
 263 361 l 1,58,-1
 299 359 l 1,59,60
 344 359 344 359 350 384 c 2,61,-1
 400 576 l 2,62,63
 402 584 402 584 410.5 596 c 128,-1,64
 419 608 419 608 427.5 608 c 128,-1,65
 436 608 436 608 440 601 c 128,-1,66
 444 594 444 594 444 587 c 2,67,-1
 443 576 l 1,68,-1
 383 369 l 1,69,-1
 499 369 l 2,70,71
 510 369 510 369 517 361 c 128,-1,72
 524 353 524 353 524 337.5 c 128,-1,73
 524 322 524 322 512 322 c 2,74,-1
 375 322 l 1,75,-1
 356 229 l 1,76,-1
 493 217 l 2,77,78
 497 216 497 216 504.5 211.5 c 128,-1,79
 512 207 512 207 512 203 c 128,-1,80
 512 199 512 199 509 189 c 128,-1,81
 506 179 506 179 505 179 c 2,82,-1
 346 179 l 1,83,-1
 312 18 l 1,84,-1
 312 11 l 2,85,86
 312 -2 312 -2 319.5 -13 c 128,-1,87
 327 -24 327 -24 327 -37 c 1,88,89
 316 -37 316 -37 307 -41 c 128,-1,90
 298 -45 298 -45 287 -45 c 0,91,92
 269 -45 269 -45 269 -16 c 1,93,-1
 270 0 l 1,94,-1
 306 173 l 1,95,-1
 306 185 l 1,0,-1
104 121 m 2,96,97
 104 118 104 118 101.5 118 c 128,-1,98
 99 118 99 118 99 120.5 c 128,-1,99
 99 123 99 123 101 123 c 128,-1,100
 103 123 103 123 104 122 c 1,101,-1
 104 121 l 2,96,97
124 296 m 1,102,103
 124 281 124 281 140 259 c 0,104,105
 170 216 170 216 183 216 c 0,106,107
 202 216 202 216 207 274 c 0,108,109
 208 287 208 287 208 292 c 0,110,111
 208 304 208 304 192.5 304 c 128,-1,112
 177 304 177 304 159.5 300 c 128,-1,113
 142 296 142 296 124 296 c 1,102,103
229 221 m 1,114,115
 283 221 283 221 312 229 c 1,116,117
 323 229 323 229 331 290 c 0,118,119
 333 306 333 306 333 317 c 1,120,121
 300 317 300 317 251 310 c 1,122,123
 229 264 229 264 229 221 c 1,114,115
EndSplineSet
EndChar

StartChar: dollar
Encoding: 36 36 7
Width: 473
Flags: W
LayerCount: 2
Fore
SplineSet
435 587 m 1,0,-1
 435 574 l 1,1,-1
 424 553 l 1,2,3
 407 518 407 518 395 495.5 c 128,-1,4
 383 473 383 473 381 469 c 0,5,6
 376 458 376 458 367 454 c 1,7,8
 361 454 361 454 351 465.5 c 128,-1,9
 341 477 341 477 341 480 c 0,10,11
 341 495 341 495 346.5 507 c 128,-1,12
 352 519 352 519 354 521 c 1,13,14
 334 533 334 533 311.5 534.5 c 128,-1,15
 289 536 289 536 274 536 c 0,16,17
 236 536 236 536 234 534 c 2,18,-1
 220 508 l 1,19,-1
 220 347 l 1,20,21
 233 344 233 344 249 337 c 0,22,23
 283 322 283 322 287.5 320 c 128,-1,24
 292 318 292 318 301 314 c 128,-1,25
 310 310 310 310 318.5 305.5 c 128,-1,26
 327 301 327 301 333.5 298 c 128,-1,27
 340 295 340 295 342.5 293 c 128,-1,28
 345 291 345 291 356 280.5 c 128,-1,29
 367 270 367 270 379.5 257 c 128,-1,30
 392 244 392 244 404 232 c 128,-1,31
 416 220 416 220 424 212 c 1,32,33
 435 198 435 198 435 163 c 128,-1,34
 435 128 435 128 417.5 105 c 128,-1,35
 400 82 400 82 372.5 70.5 c 128,-1,36
 345 59 345 59 311.5 54.5 c 128,-1,37
 278 50 278 50 247 41 c 0,38,39
 232 36 232 36 231 21 c 128,-1,40
 230 6 230 6 231.5 -11 c 128,-1,41
 233 -28 233 -28 230.5 -41 c 128,-1,42
 228 -54 228 -54 208 -54 c 0,43,44
 200 -54 200 -54 192 -52 c 0,45,46
 182 -49 182 -49 178.5 -30.5 c 128,-1,47
 175 -12 175 -12 173 1 c 0,48,49
 168 34 168 34 168 41 c 1,50,51
 128 68 128 68 80 68 c 2,52,-1
 74 68 l 1,53,-1
 34 54 l 1,54,55
 33 56 33 56 33 64 c 2,56,-1
 33 74 l 2,57,58
 33 113 33 113 68 164 c 0,59,60
 77 178 77 178 87 187 c 0,61,62
 89 189 89 189 84.5 191 c 128,-1,63
 80 193 80 193 82 193 c 1,64,65
 82 174 82 174 90.5 149.5 c 128,-1,66
 99 125 99 125 101 122 c 128,-1,67
 103 119 103 119 109.5 114.5 c 128,-1,68
 116 110 116 110 124 106 c 0,69,70
 144 96 144 96 152 94.5 c 128,-1,71
 160 93 160 93 175 94 c 128,-1,72
 190 95 190 95 207.5 97 c 128,-1,73
 225 99 225 99 240 101 c 128,-1,74
 255 103 255 103 261 103 c 1,75,-1
 261 294 l 2,76,77
 261 305 261 305 188 314 c 0,78,79
 149 319 149 319 140.5 321 c 128,-1,80
 132 323 132 323 116.5 331.5 c 128,-1,81
 101 340 101 340 86 352 c 0,82,83
 47 380 47 380 47 402.5 c 128,-1,84
 47 425 47 425 56 449 c 128,-1,85
 65 473 65 473 80 494 c 1,86,87
 108 537 108 537 154 561 c 1,88,-1
 194 574 l 2,89,90
 200 576 200 576 210 581 c 128,-1,91
 220 586 220 586 220.5 587.5 c 128,-1,92
 221 589 221 589 223.5 599 c 128,-1,93
 226 609 226 609 228 620 c 128,-1,94
 230 631 230 631 232 641 c 128,-1,95
 234 651 234 651 235 656 c 0,96,97
 239 678 239 678 247 694 c 1,98,99
 251 697 251 697 257 699 c 128,-1,100
 263 701 263 701 268.5 703 c 128,-1,101
 274 705 274 705 281 705 c 1,102,-1
 281 587 l 2,103,104
 281 585 281 585 293.5 580 c 128,-1,105
 306 575 306 575 314 574 c 2,106,-1
 330 573 l 1,107,108
 349 573 349 573 364.5 573 c 128,-1,109
 380 573 380 573 381 573.5 c 128,-1,110
 382 574 382 574 386 578.5 c 128,-1,111
 390 583 390 583 394.5 587.5 c 128,-1,112
 399 592 399 592 402.5 596 c 128,-1,113
 406 600 406 600 408 600.5 c 128,-1,114
 410 601 410 601 420 596 c 128,-1,115
 430 591 430 591 435 587 c 1,0,-1
301 90 m 1,116,117
 321 90 321 90 344 100 c 128,-1,118
 367 110 367 110 379.5 120.5 c 128,-1,119
 392 131 392 131 393.5 147.5 c 128,-1,120
 395 164 395 164 395 173 c 128,-1,121
 395 182 395 182 395 191 c 128,-1,122
 395 200 395 200 394 201 c 256,123,124
 393 202 393 202 385 211 c 128,-1,125
 377 220 377 220 366 230 c 0,126,127
 340 257 340 257 332 264 c 0,128,129
 319 276 319 276 301 280 c 1,130,-1
 301 90 l 1,116,117
184 356 m 1,131,132
 184 419 184 419 168 508 c 1,133,-1
 164 508 l 2,134,135
 162 508 162 508 156 508.5 c 128,-1,136
 150 509 150 509 139 498 c 128,-1,137
 128 487 128 487 119 472 c 0,138,139
 99 439 99 439 99 418 c 128,-1,140
 99 397 99 397 106 385.5 c 128,-1,141
 113 374 113 374 124 368 c 0,142,143
 145 356 145 356 184 356 c 1,131,132
EndSplineSet
EndChar

StartChar: percent
Encoding: 37 37 8
Width: 793
Flags: W
LayerCount: 2
Fore
SplineSet
245 -24 m 2,0,-1
 317 -17 l 1,1,2
 317 -33 317 -33 309.5 -47.5 c 128,-1,3
 302 -62 302 -62 282 -62 c 2,4,-1
 108 -62 l 2,5,6
 101 -62 101 -62 95 -56 c 128,-1,7
 89 -50 89 -50 89 -43 c 0,8,9
 89 -23 89 -23 108 -18 c 0,10,11
 112 -17 112 -17 124 -15.5 c 128,-1,12
 136 -14 136 -14 148.5 -12 c 128,-1,13
 161 -10 161 -10 172.5 -8 c 128,-1,14
 184 -6 184 -6 189 -6 c 1,15,-1
 512 534 l 1,16,-1
 443 546 l 2,17,18
 437 547 437 547 437 557.5 c 128,-1,19
 437 568 437 568 445.5 574.5 c 128,-1,20
 454 581 454 581 462 583 c 1,21,22
 466 582 466 582 478 582 c 0,23,24
 502 582 502 582 519.5 582 c 128,-1,25
 537 582 537 582 544.5 582.5 c 128,-1,26
 552 583 552 583 563 589.5 c 128,-1,27
 574 596 574 596 579.5 596 c 128,-1,28
 585 596 585 596 590.5 592.5 c 128,-1,29
 596 589 596 589 604 589 c 1,30,-1
 654 596 l 1,31,-1
 656 596 l 2,32,33
 664 596 664 596 671.5 590.5 c 128,-1,34
 679 585 679 585 679 576.5 c 128,-1,35
 679 568 679 568 674 563.5 c 128,-1,36
 669 559 669 559 662.5 556.5 c 128,-1,37
 656 554 656 554 648.5 553.5 c 128,-1,38
 641 553 641 553 635 551.5 c 128,-1,39
 629 550 629 550 618.5 548 c 128,-1,40
 608 546 608 546 598 544 c 0,41,42
 573 541 573 541 573 540 c 2,43,-1
 554 521 l 1,44,-1
 226 -12 l 2,45,46
 225 -13 225 -13 225 -14 c 0,47,48
 225 -19 225 -19 232.5 -21.5 c 128,-1,49
 240 -24 240 -24 245 -24 c 2,0,-1
596 287 m 0,50,51
 761 287 761 287 761 165 c 0,52,53
 761 147 761 147 755.5 126 c 128,-1,54
 750 105 750 105 737.5 75 c 128,-1,55
 725 45 725 45 705 24 c 0,56,57
 664 -19 664 -19 587 -19 c 0,58,59
 531 -19 531 -19 492 22 c 0,60,61
 454 62 454 62 454 120 c 0,62,63
 454 182 454 182 494 233 c 1,64,65
 535 287 535 287 596 287 c 0,50,51
660 146 m 0,66,67
 660 249 660 249 618 249 c 0,68,69
 588 249 588 249 574 205 c 0,70,71
 566 177 566 177 566 136 c 1,72,-1
 567 105 l 1,73,74
 574 76 574 76 585 50.5 c 128,-1,75
 596 25 596 25 598 25 c 2,76,-1
 604 25 l 2,77,78
 607 25 607 25 617 34 c 2,79,-1
 633 47 l 2,80,81
 639 52 639 52 647 62 c 0,82,83
 660 80 660 80 660 146 c 0,66,67
554 62 m 1,84,-1
 536 118 l 1,85,86
 534 128 534 128 534 150 c 0,87,88
 534 189 534 189 536 199 c 1,89,90
 522 190 522 190 522 179 c 128,-1,91
 522 168 522 168 519 158 c 128,-1,92
 516 148 516 148 511.5 148 c 128,-1,93
 507 148 507 148 502 147 c 0,94,95
 492 145 492 145 492 118.5 c 128,-1,96
 492 92 492 92 511 67.5 c 128,-1,97
 530 43 530 43 554 31 c 1,98,-1
 555 46 l 1,99,-1
 554 56 l 1,100,-1
 554 62 l 1,84,-1
686 139 m 256,101,102
 686 113 686 113 682.5 91 c 128,-1,103
 679 69 679 69 679 44 c 1,104,105
 716 75 716 75 726 132 c 0,106,107
 729 149 729 149 729 161 c 128,-1,108
 729 173 729 173 725.5 186 c 128,-1,109
 722 199 722 199 715 211 c 0,110,111
 699 239 699 239 678 239 c 1,112,113
 678 213 678 213 682 189 c 128,-1,114
 686 165 686 165 686 139 c 256,101,102
34 381 m 1,115,-1
 33 407 l 1,116,-1
 33 416 l 2,117,118
 33 468 33 468 50.5 508 c 128,-1,119
 68 548 68 548 108 583 c 1,120,121
 134 596 134 596 179 596 c 0,122,123
 210 596 210 596 254 551 c 0,124,125
 295 508 295 508 295 484 c 2,126,-1
 295 410 l 1,127,-1
 245 317 l 1,128,129
 226 285 226 285 180 275 c 0,130,131
 167 272 167 272 151.5 272 c 128,-1,132
 136 272 136 272 117.5 281.5 c 128,-1,133
 99 291 99 291 84 306 c 1,134,135
 55 332 55 332 34 372 c 1,136,-1
 34 381 l 1,115,-1
76.5 442.5 m 128,-1,138
 75 432 75 432 75 414.5 c 128,-1,139
 75 397 75 397 76.5 389.5 c 128,-1,140
 78 382 78 382 83 374.5 c 128,-1,141
 88 367 88 367 94 358 c 1,142,143
 108 341 108 341 114 335 c 1,144,-1
 121 335 l 1,145,-1
 127 366 l 1,146,147
 120 418 120 418 120 434 c 2,148,-1
 120 510 l 2,149,150
 120 527 120 527 121 534 c 1,151,152
 120 533 120 533 117.5 531 c 128,-1,153
 115 529 115 529 108.5 517.5 c 128,-1,154
 102 506 102 506 94.5 491 c 128,-1,155
 87 476 87 476 82.5 464.5 c 128,-1,137
 78 453 78 453 76.5 442.5 c 128,-1,138
189 450 m 128,-1,157
 190 471 190 471 190 499.5 c 128,-1,158
 190 528 190 528 183 546 c 1,159,160
 161 546 161 546 154 507 c 0,161,162
 151 491 151 491 151 474 c 2,163,-1
 151 446 l 2,164,165
 151 430 151 430 151.5 417.5 c 128,-1,166
 152 405 152 405 152 392 c 0,167,168
 153 377 153 377 158 335 c 1,169,170
 179 371 179 371 183.5 400 c 128,-1,156
 188 429 188 429 189 450 c 128,-1,157
226 521 m 1,171,172
 228 511 228 511 228 494.5 c 128,-1,173
 228 478 228 478 224 457.5 c 128,-1,174
 220 437 220 437 214 416 c 0,175,176
 201 364 201 364 201 333 c 1,177,178
 224 333 224 333 240 379 c 0,179,180
 252 416 252 416 252 440.5 c 128,-1,181
 252 465 252 465 248.5 487.5 c 128,-1,182
 245 510 245 510 226 521 c 1,171,172
EndSplineSet
EndChar

StartChar: ampersand
Encoding: 38 38 9
Width: 719
Flags: W
LayerCount: 2
Fore
SplineSet
632 80 m 128,-1,1
 651 74 651 74 651 55.5 c 128,-1,2
 651 37 651 37 627.5 37 c 128,-1,3
 604 37 604 37 586 42.5 c 128,-1,4
 568 48 568 48 550 55 c 0,5,6
 500 74 500 74 477 78 c 0,7,8
 473 78 473 78 450 64 c 1,9,-1
 410 37 l 1,10,-1
 383 23 l 1,11,12
 355 5 355 5 329 0.5 c 128,-1,13
 303 -4 303 -4 274 -4 c 2,14,-1
 238 -4 l 2,15,16
 148 -4 148 -4 93 47 c 0,17,18
 36 100 36 100 36 187 c 2,19,-1
 36 208 l 2,20,21
 36 222 36 222 37 225 c 128,-1,22
 38 228 38 228 44.5 242 c 128,-1,23
 51 256 51 256 60 273 c 2,24,-1
 76 306 l 2,25,26
 88 329 88 329 98 340.5 c 128,-1,27
 108 352 108 352 118 363 c 0,28,29
 142 392 142 392 143.5 395.5 c 128,-1,30
 145 399 145 399 145 406 c 2,31,-1
 145 420 l 1,32,-1
 144 496 l 1,33,-1
 144 504 l 2,34,35
 144 510 144 510 149.5 537.5 c 128,-1,36
 155 565 155 565 160.5 586 c 128,-1,37
 166 607 166 607 178.5 628.5 c 128,-1,38
 191 650 191 650 210 662 c 1,39,40
 240 679 240 679 321 679 c 0,41,42
 349 679 349 679 367 670 c 0,43,44
 387 660 387 660 437 623 c 0,45,46
 463 605 463 605 463 551 c 0,47,48
 463 500 463 500 409 428 c 0,49,50
 389 402 389 402 366 379 c 0,51,52
 326 339 326 339 298 311 c 128,-1,53
 270 283 270 283 263 277 c 1,54,55
 302 228 302 228 404 170 c 0,56,57
 454 142 454 142 463.5 142 c 128,-1,58
 473 142 473 142 490.5 156.5 c 128,-1,59
 508 171 508 171 526 191 c 0,60,61
 568 240 568 240 570 263 c 1,62,-1
 571 288 l 1,63,64
 571 288 571 288 571 354 c 1,65,-1
 570 384 l 1,66,67
 559 403 559 403 503 411 c 1,68,-1
 503 437 l 1,69,-1
 703 437 l 1,70,-1
 703 411 l 1,71,72
 686 411 686 411 663 405 c 128,-1,73
 640 399 640 399 636 396.5 c 128,-1,74
 632 394 632 394 627 376 c 128,-1,75
 622 358 622 358 618 334 c 0,76,77
 610 276 610 276 610 237 c 1,78,79
 608 235 608 235 603 230.5 c 128,-1,80
 598 226 598 226 596 224 c 2,81,-1
 529 130 l 1,82,-1
 529 123 l 2,83,84
 529 105 529 105 548 99 c 128,-1,85
 567 93 567 93 590 89.5 c 128,-1,0
 613 86 613 86 632 80 c 128,-1,1
197.5 173.5 m 128,-1,87
 196 159 196 159 196 143.5 c 128,-1,88
 196 128 196 128 200 110 c 128,-1,89
 204 92 204 92 217 82.5 c 128,-1,90
 230 73 230 73 239.5 66 c 128,-1,91
 249 59 249 59 260 52 c 0,92,93
 288 37 288 37 304 37 c 0,94,95
 307 37 307 37 329 42.5 c 128,-1,96
 351 48 351 48 356.5 50 c 128,-1,97
 362 52 362 52 374 57.5 c 128,-1,98
 386 63 386 63 397 70 c 0,99,100
 425 88 425 88 425 97 c 0,101,102
 425 103 425 103 368 140 c 128,-1,103
 311 177 311 177 304.5 182 c 128,-1,104
 298 187 298 187 286.5 196.5 c 128,-1,105
 275 206 275 206 263 215 c 0,106,107
 232 238 232 238 225.5 238 c 128,-1,108
 219 238 219 238 212.5 227.5 c 128,-1,109
 206 217 206 217 202.5 202.5 c 128,-1,86
 199 188 199 188 197.5 173.5 c 128,-1,87
403 598 m 1,110,-1
 396 596 l 1,111,112
 385 556 385 556 366 532 c 0,113,114
 336 492 336 492 290 450 c 0,115,116
 283 443 283 443 260 427 c 0,117,118
 219 398 219 398 210 384 c 0,119,120
 206 377 206 377 195 367 c 128,-1,121
 184 357 184 357 170 343 c 1,122,123
 165 340 165 340 156 330 c 2,124,-1
 136 310 l 2,125,126
 97 272 97 272 89 257.5 c 128,-1,127
 81 243 81 243 78 232 c 1,128,129
 75 215 75 215 75 177 c 128,-1,130
 75 139 75 139 79.5 118 c 128,-1,131
 84 97 84 97 96 83.5 c 128,-1,132
 108 70 108 70 129 60 c 128,-1,133
 150 50 150 50 183 37 c 1,134,-1
 196 37 l 1,135,136
 169 59 169 59 155.5 83.5 c 128,-1,137
 142 108 142 108 142 133.5 c 128,-1,138
 142 159 142 159 143.5 171 c 128,-1,139
 145 183 145 183 148 195 c 0,140,141
 152 210 152 210 170 251 c 1,142,143
 185 280 185 280 211 302.5 c 128,-1,144
 237 325 237 325 263 343 c 1,145,146
 291 369 291 369 316.5 393.5 c 128,-1,147
 342 418 342 418 362 445 c 0,148,149
 407 504 407 504 423 571 c 0,150,151
 426 581 426 581 419.5 589.5 c 128,-1,152
 413 598 413 598 403 598 c 1,110,-1
331.5 636 m 128,-1,154
 319 637 319 637 293 637 c 128,-1,155
 267 637 267 637 245.5 627 c 128,-1,156
 224 617 224 617 213 598 c 0,157,158
 196 570 196 570 196 496 c 2,159,-1
 196 437 l 1,160,161
 222 454 222 454 249 472 c 128,-1,162
 276 490 276 490 299 512 c 0,163,164
 351 561 351 561 356 623 c 1,165,153
 344 635 344 635 331.5 636 c 128,-1,154
EndSplineSet
EndChar

StartChar: quotesingle
Encoding: 39 39 10
Width: 242
Flags: W
LayerCount: 2
Fore
SplineSet
147 402 m 2,0,-1
 90 403 l 1,1,2
 74 408 74 408 64 423.5 c 128,-1,3
 54 439 54 439 47 453 c 1,4,5
 57 453 57 453 58.5 455.5 c 128,-1,6
 60 458 60 458 60 472.5 c 128,-1,7
 60 487 60 487 56 510 c 128,-1,8
 52 533 52 533 47 556 c 0,9,10
 34 614 34 614 34 647 c 0,11,12
 34 670 34 670 42 675.5 c 128,-1,13
 50 681 50 681 66 681 c 1,14,-1
 190 670 l 1,15,16
 202 667 202 667 202 652 c 0,17,18
 202 580 202 580 184 409 c 1,19,20
 173 402 173 402 147 402 c 2,0,-1
147 638 m 1,21,22
 115 645 115 645 95.5 645 c 128,-1,23
 76 645 76 645 74 640.5 c 128,-1,24
 72 636 72 636 72 607 c 128,-1,25
 72 578 72 578 97 453 c 1,26,-1
 140 453 l 1,27,28
 147 502 147 502 147 535 c 2,29,-1
 147 638 l 1,21,22
EndSplineSet
EndChar

StartChar: parenleft
Encoding: 40 40 11
Width: 400
Flags: W
LayerCount: 2
Fore
SplineSet
273 56 m 1,0,1
 211 148 211 148 178 224.5 c 128,-1,2
 145 301 145 301 145 380 c 0,3,4
 145 469 145 469 193 587 c 1,5,6
 116 530 116 530 84 458 c 1,7,8
 67 417 67 417 67 375 c 128,-1,9
 67 333 67 333 75.5 288 c 128,-1,10
 84 243 84 243 107 202 c 0,11,12
 157 111 157 111 273 56 c 1,0,1
355 696 m 0,13,14
 373 696 373 696 373 682 c 0,15,16
 373 670 373 670 350 662 c 0,17,18
 340 658 340 658 328 654.5 c 128,-1,19
 316 651 316 651 304 645 c 0,20,21
 191 585 191 585 184 424 c 0,22,23
 182 379 182 379 182 352.5 c 128,-1,24
 182 326 182 326 184 308.5 c 128,-1,25
 186 291 186 291 194 266 c 0,26,27
 214 206 214 206 259 143.5 c 128,-1,28
 304 81 304 81 327 67 c 128,-1,29
 350 53 350 53 366 49.5 c 128,-1,30
 382 46 382 46 390 45 c 128,-1,31
 398 44 398 44 398 28 c 0,32,33
 398 0 398 0 339 0 c 0,34,35
 275 0 275 0 200 54 c 0,36,37
 83 140 83 140 38 264 c 0,38,39
 24 304 24 304 24 337.5 c 128,-1,40
 24 371 24 371 32.5 408.5 c 128,-1,41
 41 446 41 446 58 485 c 128,-1,42
 75 524 75 524 102 562 c 128,-1,43
 129 600 129 600 166 630 c 0,44,45
 246 696 246 696 355 696 c 0,13,14
EndSplineSet
EndChar

StartChar: parenright
Encoding: 41 41 12
Width: 400
Flags: W
LayerCount: 2
Fore
SplineSet
2 28 m 0,0,1
 2 44 2 44 10 45 c 128,-1,2
 18 46 18 46 33.5 49.5 c 128,-1,3
 49 53 49 53 72.5 67 c 128,-1,4
 96 81 96 81 128 125.5 c 128,-1,5
 160 170 160 170 178.5 205 c 128,-1,6
 197 240 197 240 206 266 c 0,7,8
 218 303 218 303 218 341 c 128,-1,9
 218 379 218 379 216 423.5 c 128,-1,10
 214 468 214 468 202 510 c 0,11,12
 175 603 175 603 96 645 c 0,13,14
 84 651 84 651 72 654.5 c 128,-1,15
 60 658 60 658 50 662 c 0,16,17
 27 670 27 670 27 683 c 128,-1,18
 27 696 27 696 45 696 c 0,19,20
 203 696 203 696 298 562 c 0,21,22
 349 490 349 490 368 408 c 0,23,24
 376 371 376 371 376 337.5 c 128,-1,25
 376 304 376 304 361.5 263.5 c 128,-1,26
 347 223 347 223 323 185 c 128,-1,27
 299 147 299 147 267 113.5 c 128,-1,28
 235 80 235 80 200 54 c 0,29,30
 125 0 125 0 63.5 0 c 128,-1,31
 2 0 2 0 2 28 c 0,0,1
207 587 m 1,32,33
 255 469 255 469 255 385 c 128,-1,34
 255 301 255 301 222 224.5 c 128,-1,35
 189 148 189 148 127 56 c 1,36,37
 295 136 295 136 324 288 c 0,38,39
 332 333 332 333 332 360.5 c 128,-1,40
 332 388 332 388 329.5 408.5 c 128,-1,41
 327 429 327 429 315 458 c 0,42,43
 285 529 285 529 207 587 c 1,32,33
EndSplineSet
EndChar

StartChar: asterisk
Encoding: 42 42 13
Width: 343
Flags: W
LayerCount: 2
Fore
SplineSet
276 661 m 1,0,1
 276 637 276 637 262 616 c 1,2,3
 290 607 290 607 299 591 c 1,4,5
 262 578 262 578 211 566 c 1,6,7
 221 550 221 550 244 540 c 128,-1,8
 267 530 267 530 279 523 c 128,-1,9
 291 516 291 516 299 504 c 1,10,11
 299 500 299 500 294 495 c 128,-1,12
 289 490 289 490 287 490 c 256,13,14
 285 490 285 490 270.5 495 c 128,-1,15
 256 500 256 500 251 502.5 c 128,-1,16
 246 505 246 505 237.5 508 c 128,-1,17
 229 511 229 511 220 515 c 0,18,19
 199 524 199 524 192 529 c 1,20,-1
 192 440 l 1,21,-1
 167 440 l 1,22,-1
 167 529 l 1,23,24
 162 524 162 524 111 490 c 1,25,-1
 104 490 l 2,26,27
 96 490 96 490 90.5 496 c 128,-1,28
 85 502 85 502 85 511.5 c 128,-1,29
 85 521 85 521 98 529 c 1,30,-1
 91 529 l 2,31,32
 80 529 80 529 72 522 c 128,-1,33
 64 515 64 515 54.5 515 c 128,-1,34
 45 515 45 515 39.5 521 c 128,-1,35
 34 527 34 527 34 535 c 1,36,-1
 35 541 l 1,37,38
 39 543 39 543 50 548 c 128,-1,39
 61 553 61 553 73 559 c 2,40,-1
 96 570 l 2,41,42
 117 581 117 581 120 585.5 c 128,-1,43
 123 590 123 590 123 600 c 128,-1,44
 123 610 123 610 118.5 617.5 c 128,-1,45
 114 625 114 625 108 632 c 0,46,47
 94 649 94 649 94 671 c 1,48,49
 109 671 109 671 118.5 660 c 128,-1,50
 128 649 128 649 134 642 c 0,51,52
 147 624 147 624 159 630 c 0,53,54
 163 632 163 632 167 635 c 1,55,-1
 167 692 l 1,56,-1
 198 692 l 1,57,-1
 198 629 l 1,58,59
 228 661 228 661 276 661 c 1,0,1
EndSplineSet
EndChar

StartChar: plus
Encoding: 43 43 14
Width: 459
Flags: W
LayerCount: 2
Fore
SplineSet
280 179 m 2,0,-1
 397 186 l 1,1,2
 432 186 432 186 432 170 c 1,3,4
 425 156 425 156 425 154 c 1,5,-1
 270 129 l 1,6,7
 269 120 269 120 269 111 c 2,8,-1
 269 84 l 2,9,10
 269 52 269 52 273 21 c 128,-1,11
 277 -10 277 -10 277 -42 c 0,12,13
 277 -57 277 -57 260 -57 c 0,14,15
 229 -57 229 -57 228 66 c 0,16,17
 227 97 227 97 227 123 c 1,18,-1
 214 124 l 1,19,-1
 207 123 l 1,20,-1
 202 123 l 1,21,22
 149 117 149 117 102 108.5 c 128,-1,23
 55 100 55 100 47 99 c 1,24,25
 27 109 27 109 27 120 c 0,26,27
 27 144 27 144 47 148 c 1,28,-1
 220 173 l 1,29,-1
 227 179 l 1,30,31
 227 306 227 306 237 343 c 0,32,33
 240 354 240 354 252 354 c 128,-1,34
 264 354 264 354 264 346 c 2,35,-1
 264 186 l 2,36,37
 264 179 264 179 280 179 c 2,0,-1
EndSplineSet
EndChar

StartChar: comma
Encoding: 44 44 15
Width: 214
Flags: W
LayerCount: 2
Fore
SplineSet
58 -33 m 1,0,-1
 42 15 l 1,1,2
 42 49 42 49 85 65 c 0,3,4
 96 69 96 69 107 69 c 0,5,6
 140 69 140 69 156 48.5 c 128,-1,7
 172 28 172 28 172 -6 c 0,8,9
 172 -32 172 -32 163 -42.5 c 128,-1,10
 154 -53 154 -53 138.5 -69 c 128,-1,11
 123 -85 123 -85 105 -100 c 0,12,13
 62 -136 62 -136 35 -136 c 128,-1,14
 8 -136 8 -136 8 -126 c 128,-1,15
 8 -116 8 -116 16 -109 c 128,-1,16
 24 -102 24 -102 34 -94 c 0,17,18
 59 -74 59 -74 59 -45 c 1,19,-1
 58 -33 l 1,0,-1
EndSplineSet
EndChar

StartChar: hyphen
Encoding: 45 45 16
Width: 510
Flags: W
LayerCount: 2
Fore
SplineSet
428 232 m 1,0,1
 308 224 308 224 242 224 c 2,2,-1
 115 224 l 2,3,4
 55 224 55 224 55 247 c 0,5,6
 55 264 55 264 81 276 c 1,7,-1
 275 270 l 1,8,-1
 419 276 l 2,9,10
 433 276 433 276 443 273 c 128,-1,11
 453 270 453 270 453 257 c 0,12,13
 453 232 453 232 428 232 c 1,0,1
EndSplineSet
EndChar

StartChar: period
Encoding: 46 46 17
Width: 216
Flags: W
LayerCount: 2
Fore
SplineSet
46 10 m 0,0,1
 40 20 40 20 40 33.5 c 128,-1,2
 40 47 40 47 47.5 58.5 c 128,-1,3
 55 70 55 70 67 78 c 0,4,5
 92 96 92 96 119 96 c 128,-1,6
 146 96 146 96 158.5 79 c 128,-1,7
 171 62 171 62 171 36.5 c 128,-1,8
 171 11 171 11 153.5 -6 c 128,-1,9
 136 -23 136 -23 107 -23 c 0,10,11
 68 -23 68 -23 46 10 c 0,0,1
EndSplineSet
EndChar

StartChar: slash
Encoding: 47 47 18
Width: 367
Flags: W
LayerCount: 2
Fore
SplineSet
54 -18 m 0,0,1
 36 -18 36 -18 36 -1 c 0,2,3
 36 19 36 19 127 246 c 1,4,-1
 140 279 l 2,5,6
 154 315 154 315 163 347 c 0,7,8
 194 470 194 470 262 604 c 0,9,10
 295 669 295 669 313 669 c 0,11,12
 319 669 319 669 326.5 664 c 128,-1,13
 334 659 334 659 334 652 c 128,-1,14
 334 645 334 645 321 607.5 c 128,-1,15
 308 570 308 570 287.5 517 c 128,-1,16
 267 464 267 464 243 403 c 128,-1,17
 219 342 219 342 196.5 286 c 128,-1,18
 174 230 174 230 156.5 187 c 128,-1,19
 139 144 139 144 131.5 125.5 c 128,-1,20
 124 107 124 107 113 81.5 c 128,-1,21
 102 56 102 56 91 34 c 0,22,23
 65 -18 65 -18 54 -18 c 0,0,1
EndSplineSet
EndChar

StartChar: zero
Encoding: 48 48 19
Width: 669
Flags: W
LayerCount: 2
Fore
SplineSet
433.5 25.5 m 128,-1,1
 375 -1 375 -1 318 -1 c 128,-1,2
 261 -1 261 -1 212.5 22 c 128,-1,3
 164 45 164 45 126.5 83.5 c 128,-1,4
 89 122 89 122 66 171.5 c 128,-1,5
 43 221 43 221 43 268 c 128,-1,6
 43 315 43 315 49 360.5 c 128,-1,7
 55 406 55 406 68.5 450.5 c 128,-1,8
 82 495 82 495 103.5 536 c 128,-1,9
 125 577 125 577 156 608 c 0,10,11
 222 676 222 676 314.5 676 c 128,-1,12
 407 676 407 676 466.5 646.5 c 128,-1,13
 526 617 526 617 562 571 c 0,14,15
 626 487 626 487 626 362 c 0,16,17
 626 223 626 223 534 105 c 0,18,0
 492 52 492 52 433.5 25.5 c 128,-1,1
230 365 m 128,-1,20
 223 325 223 325 223 275 c 128,-1,21
 223 225 223 225 242.5 165.5 c 128,-1,22
 262 106 262 106 298 50 c 0,23,24
 302 43 302 43 330 43 c 128,-1,25
 358 43 358 43 389 55 c 128,-1,26
 420 67 420 67 428.5 104.5 c 128,-1,27
 437 142 437 142 442 168.5 c 128,-1,28
 447 195 447 195 450 218 c 0,29,30
 454 261 454 261 454 303.5 c 128,-1,31
 454 346 454 346 453 376 c 128,-1,32
 452 406 452 406 448 439.5 c 128,-1,33
 444 473 444 473 436.5 507.5 c 128,-1,34
 429 542 429 542 416 570 c 0,35,36
 389 631 389 631 341 631 c 0,37,38
 300 631 300 631 270 585 c 0,39,40
 237 534 237 534 237 443 c 0,41,19
 237 405 237 405 230 365 c 128,-1,20
242 55 m 1,42,-1
 243 59 l 1,43,44
 225 95 225 95 208 159 c 0,45,46
 179 267 179 267 179 296 c 2,47,-1
 179 317 l 2,48,49
 179 332 179 332 180 335 c 2,50,-1
 229 603 l 1,51,52
 163 603 163 603 116 458 c 0,53,54
 95 395 95 395 87.5 346.5 c 128,-1,55
 80 298 80 298 80 279.5 c 128,-1,56
 80 261 80 261 93.5 222 c 128,-1,57
 107 183 107 183 130 148 c 1,58,59
 182 64 182 64 242 55 c 1,42,-1
478 118 m 1,60,-1
 484 118 l 2,61,62
 489 118 489 118 507 142.5 c 128,-1,63
 525 167 525 167 531.5 179.5 c 128,-1,64
 538 192 538 192 547.5 207 c 128,-1,65
 557 222 557 222 564 240 c 0,66,67
 581 281 581 281 581 333 c 128,-1,68
 581 385 581 385 570.5 423.5 c 128,-1,69
 560 462 560 462 542 498 c 0,70,71
 504 572 504 572 438 621 c 1,72,73
 476 524 476 524 486 468 c 0,74,75
 498 394 498 394 498 291.5 c 128,-1,76
 498 189 498 189 478 118 c 1,60,-1
EndSplineSet
EndChar

StartChar: one
Encoding: 49 49 20
Width: 525
Flags: W
LayerCount: 2
Fore
SplineSet
48 -13 m 1,0,1
 36 -6 36 -6 36 9 c 0,2,3
 36 25 36 25 48 31 c 1,4,5
 89 31 89 31 123.5 36.5 c 128,-1,6
 158 42 158 42 160 43 c 1,7,8
 160 75 160 75 161.5 113 c 128,-1,9
 163 151 163 151 164 190 c 0,10,11
 169 295 169 295 167 324 c 128,-1,12
 165 353 165 353 167.5 374.5 c 128,-1,13
 170 396 170 396 172 418 c 0,14,15
 179 475 179 475 171 500 c 1,16,17
 143 500 143 500 120 496 c 128,-1,18
 97 492 97 492 59.5 492 c 128,-1,19
 22 492 22 492 22 519 c 0,20,21
 22 526 22 526 28.5 531 c 128,-1,22
 35 536 35 536 41 537 c 1,23,-1
 51 537 l 2,24,25
 119 537 119 537 144 545 c 128,-1,26
 169 553 169 553 183 558.5 c 128,-1,27
 197 564 197 564 208 568 c 128,-1,28
 219 572 219 572 221 574 c 2,29,-1
 379 696 l 1,30,-1
 406 696 l 1,31,32
 406 682 406 682 409 665 c 128,-1,33
 412 648 412 648 407 634 c 1,34,-1
 405 472 l 1,35,36
 405 390 405 390 396 274.5 c 128,-1,37
 387 159 387 159 384 123 c 0,38,39
 379 44 379 44 383 44 c 2,40,-1
 495 31 l 2,41,42
 507 29 507 29 510.5 22.5 c 128,-1,43
 514 16 514 16 514 8.5 c 128,-1,44
 514 1 514 1 513.5 -6 c 128,-1,45
 513 -13 513 -13 505 -13 c 2,46,-1
 452 -10 l 1,47,-1
 120 -13 l 1,48,-1
 48 -13 l 1,0,1
214 431 m 1,49,50
 216 405 216 405 212 343 c 128,-1,51
 208 281 208 281 205.5 237.5 c 128,-1,52
 203 194 203 194 201 155 c 0,53,54
 196 57 196 57 197 43 c 1,55,-1
 225 43 l 2,56,57
 226 43 226 43 243 41 c 128,-1,58
 260 39 260 39 280 38 c 0,59,60
 334 33 334 33 334 37 c 2,61,-1
 370 531 l 1,62,-1
 354 591 l 2,63,64
 354 593 354 593 352 595 c 128,-1,65
 350 597 350 597 348 597 c 0,66,67
 342 597 342 597 336 591 c 1,68,-1
 214 512 l 1,69,-1
 214 431 l 1,49,50
EndSplineSet
EndChar

StartChar: two
Encoding: 50 50 21
Width: 602
Flags: W
LayerCount: 2
Fore
SplineSet
261 0 m 1,0,1
 233 7 233 7 200 7 c 128,-1,2
 167 7 167 7 138 3 c 128,-1,3
 109 -1 109 -1 86.5 -1 c 128,-1,4
 64 -1 64 -1 57 4.5 c 128,-1,5
 50 10 50 10 50 28 c 0,6,7
 50 35 50 35 67.5 41 c 128,-1,8
 85 47 85 47 109.5 53.5 c 128,-1,9
 134 60 134 60 160.5 66.5 c 128,-1,10
 187 73 187 73 197.5 77 c 128,-1,11
 208 81 208 81 220 88.5 c 128,-1,12
 232 96 232 96 247 105 c 0,13,14
 312 144 312 144 317.5 151.5 c 128,-1,15
 323 159 323 159 323 167 c 2,16,-1
 322 192 l 1,17,18
 330 444 330 444 330 629 c 0,19,20
 330 637 330 637 325 638 c 128,-1,21
 320 639 320 639 308 639 c 128,-1,22
 296 639 296 639 266 633 c 128,-1,23
 236 627 236 627 207 616 c 0,24,25
 136 587 136 587 136 545 c 128,-1,26
 136 503 136 503 185 460 c 0,27,28
 198 448 198 448 211 440 c 1,29,-1
 212 434 l 1,30,31
 212 416 212 416 154 380 c 0,32,33
 99 346 99 346 86 346 c 128,-1,34
 73 346 73 346 63.5 358 c 128,-1,35
 54 370 54 370 48 386 c 0,36,37
 37 417 37 417 37 437 c 128,-1,38
 37 457 37 457 37.5 466 c 128,-1,39
 38 475 38 475 40 484 c 0,40,41
 46 503 46 503 56 527 c 1,42,43
 139 643 139 643 247 668 c 0,44,45
 286 677 286 677 332 677 c 128,-1,46
 378 677 378 677 412 656 c 128,-1,47
 446 635 446 635 469 602 c 0,48,49
 515 538 515 538 515 453 c 1,50,-1
 459 285 l 1,51,52
 379 127 379 127 236 50 c 1,53,-1
 236 44 l 2,54,55
 236 36 236 36 286 33 c 128,-1,56
 336 30 336 30 338 30 c 2,57,-1
 497 37 l 1,58,59
 499 50 499 50 501 75 c 128,-1,60
 503 100 503 100 508 125 c 0,61,62
 520 187 520 187 555 187 c 1,63,-1
 552 118 l 2,64,65
 551 106 551 106 549.5 87 c 128,-1,66
 548 68 548 68 545.5 50 c 128,-1,67
 543 32 543 32 541.5 19 c 128,-1,68
 540 6 540 6 539 6 c 2,69,-1
 534 0 l 1,70,-1
 261 0 l 1,0,1
359 292 m 1,71,-1
 360 226 l 1,72,-1
 360 204 l 1,73,-1
 397 254 l 1,74,-1
 478 434 l 1,75,76
 480 436 480 436 480 460 c 128,-1,77
 480 484 480 484 474.5 512 c 128,-1,78
 469 540 469 540 457 566 c 0,79,80
 428 628 428 628 381 628 c 0,81,82
 364 628 364 628 364 592 c 1,83,-1
 366 564 l 1,84,85
 359 448 359 448 359 378 c 2,86,-1
 359 292 l 1,71,-1
105 514 m 1,87,88
 87 507 87 507 87 471 c 2,89,-1
 87 455 l 2,90,91
 87 444 87 444 92 429.5 c 128,-1,92
 97 415 97 415 112 415 c 0,93,94
 121 415 121 415 135 423.5 c 128,-1,95
 149 432 149 432 149 434 c 2,96,-1
 149 440 l 1,97,98
 112 514 112 514 105 514 c 1,87,88
EndSplineSet
EndChar

StartChar: three
Encoding: 51 51 22
Width: 586
Flags: W
LayerCount: 2
Fore
SplineSet
501 613 m 1,0,-1
 500 610 l 1,1,-1
 500 608 l 1,2,-1
 363 440 l 1,3,-1
 363 428 l 1,4,5
 443 410 443 410 494 344 c 0,6,7
 544 279 544 279 544 207.5 c 128,-1,8
 544 136 544 136 519 99.5 c 128,-1,9
 494 63 494 63 453 44 c 0,10,11
 387 12 387 12 257 12 c 0,12,13
 179 12 179 12 118 39 c 0,14,15
 40 74 40 74 40 146 c 0,16,17
 40 156 40 156 41.5 165 c 128,-1,18
 43 174 43 174 58 174 c 128,-1,19
 73 174 73 174 82.5 161.5 c 128,-1,20
 92 149 92 149 99.5 133 c 128,-1,21
 107 117 107 117 114.5 101.5 c 128,-1,22
 122 86 122 86 134 80 c 0,23,24
 186 55 186 55 246 55 c 1,25,-1
 271 56 l 1,26,-1
 277 62 l 1,27,-1
 277 72 l 1,28,-1
 278 116 l 1,29,-1
 278 135 l 2,30,31
 278 279 278 279 271 366 c 1,32,33
 257 366 257 366 243 357 c 0,34,35
 218 340 218 340 203 340 c 128,-1,36
 188 340 188 340 182.5 342 c 128,-1,37
 177 344 177 344 177 358.5 c 128,-1,38
 177 373 177 373 186.5 383 c 128,-1,39
 196 393 196 393 209 399.5 c 128,-1,40
 222 406 222 406 235.5 411 c 128,-1,41
 249 416 249 416 258 421 c 1,42,-1
 259 462 l 1,43,44
 259 530 259 530 246 608 c 1,45,46
 226 615 226 615 183 615 c 2,47,48
 183 615 183 615 109 614 c 1,49,-1
 96 608 l 1,50,51
 99 593 99 593 99 563 c 128,-1,52
 99 533 99 533 85 514 c 1,53,54
 78 514 78 514 69.5 515 c 128,-1,55
 61 516 61 516 60 527 c 2,56,-1
 54 638 l 1,57,58
 54 658 54 658 110 658 c 0,59,60
 157 658 157 658 218 649 c 0,61,62
 332 632 332 632 379 632 c 1,63,-1
 474 639 l 1,64,65
 501 639 501 639 501 613 c 1,0,-1
314.5 384.5 m 128,-1,67
 308 384 308 384 308 375.5 c 128,-1,68
 308 367 308 367 309 345 c 128,-1,69
 310 323 310 323 311 292.5 c 128,-1,70
 312 262 312 262 313.5 226.5 c 128,-1,71
 315 191 315 191 316 158 c 0,72,73
 318 82 318 82 320 62 c 1,74,-1
 342 62 l 2,75,76
 406 62 406 62 452 100 c 0,77,78
 501 140 501 140 501 202 c 0,79,80
 501 274 501 274 452 328 c 0,81,82
 401 385 401 385 329 385 c 0,83,66
 321 385 321 385 314.5 384.5 c 128,-1,67
302 453 m 1,84,-1
 314 459 l 1,85,-1
 426 589 l 1,86,-1
 426 602 l 1,87,-1
 302 602 l 1,88,-1
 302 453 l 1,84,-1
EndSplineSet
EndChar

StartChar: four
Encoding: 52 52 23
Width: 619
Flags: W
LayerCount: 2
Fore
SplineSet
582 40 m 2,0,1
 588 40 588 40 588 24 c 2,2,-1
 588 13 l 2,3,4
 588 2 588 2 582 0 c 1,5,6
 368 -13 368 -13 121 -13 c 0,7,8
 107 -13 107 -13 93 -10 c 128,-1,9
 79 -7 79 -7 79 11.5 c 128,-1,10
 79 30 79 30 92 33.5 c 128,-1,11
 105 37 105 37 115 37 c 128,-1,12
 125 37 125 37 150.5 38 c 128,-1,13
 176 39 176 39 204.5 40 c 128,-1,14
 233 41 233 41 256 42 c 2,15,-1
 278 43 l 1,16,-1
 284 49 l 1,17,-1
 285 118 l 1,18,19
 285 236 285 236 267 236 c 0,20,21
 254 236 254 236 241 229 c 1,22,-1
 30 229 l 2,23,24
 23 229 23 229 10.5 235.5 c 128,-1,25
 -2 242 -2 242 -2 251 c 2,26,-1
 -2 253 l 2,27,28
 -2 254 -2 254 -1 254 c 2,29,-1
 389 707 l 1,30,-1
 396 708 l 1,31,32
 417 708 417 708 428 672 c 0,33,34
 435 646 435 646 435 611 c 128,-1,35
 435 576 435 576 433 564 c 1,36,-1
 464 297 l 1,37,38
 463 296 463 296 463 292 c 2,39,-1
 463 285 l 2,40,41
 463 266 463 266 471 266 c 2,42,-1
 545 266 l 2,43,44
 546 266 546 266 548.5 273 c 128,-1,45
 551 280 551 280 551 288 c 128,-1,46
 551 296 551 296 547.5 309 c 128,-1,47
 544 322 544 322 544 328 c 0,48,49
 544 341 544 341 560 341 c 0,50,51
 590 341 590 341 590 271 c 1,52,-1
 588 236 l 1,53,-1
 576 223 l 1,54,-1
 464 211 l 1,55,56
 463 206 463 206 463 202 c 2,57,-1
 463 187 l 2,58,59
 463 149 463 149 469.5 113 c 128,-1,60
 476 77 476 77 476 40 c 1,61,-1
 582 40 l 2,0,1
303 540 m 1,62,-1
 302 512 l 1,63,-1
 302 501 l 2,64,65
 302 426 302 426 313 276 c 0,66,67
 329 64 329 64 334 55 c 2,68,-1
 340 43 l 1,69,-1
 436 43 l 1,70,71
 436 82 436 82 428.5 143.5 c 128,-1,72
 421 205 421 205 421 212 c 2,73,-1
 421 335 l 1,74,75
 420 356 420 356 412.5 445.5 c 128,-1,76
 405 535 405 535 401.5 578 c 128,-1,77
 398 621 398 621 396 638 c 1,78,-1
 389 638 l 1,79,-1
 303 546 l 1,80,-1
 303 540 l 1,62,-1
67 272 m 1,81,-1
 268 272 l 1,82,83
 268 324 268 324 260 375 c 128,-1,84
 252 426 252 426 252 478 c 1,85,-1
 241 478 l 1,86,-1
 67 272 l 1,81,-1
EndSplineSet
EndChar

StartChar: five
Encoding: 53 53 24
Width: 620
Flags: W
LayerCount: 2
Fore
SplineSet
598 567 m 2,0,1
 598 489 598 489 564 489 c 0,2,3
 560 489 560 489 554 489.5 c 128,-1,4
 548 490 548 490 548 496 c 2,5,-1
 548 614 l 1,6,-1
 314 582 l 1,7,-1
 243 365 l 1,8,-1
 350 354 l 1,9,-1
 474 291 l 2,10,11
 519 269 519 269 519 185 c 0,12,13
 519 127 519 127 496 90 c 0,14,15
 488 76 488 76 474 68 c 2,16,-1
 331 -19 l 1,17,18
 306 -26 306 -26 291 -28 c 128,-1,19
 276 -30 276 -30 260.5 -30.5 c 128,-1,20
 245 -31 245 -31 202 -19.5 c 128,-1,21
 159 -8 159 -8 117 12.5 c 128,-1,22
 75 33 75 33 44.5 61.5 c 128,-1,23
 14 90 14 90 14 119.5 c 128,-1,24
 14 149 14 149 37 149 c 0,25,26
 62 149 62 149 65 130 c 1,27,-1
 146 49 l 1,28,29
 173 19 173 19 245 18 c 0,30,31
 263 17 263 17 281 17 c 128,-1,32
 299 17 299 17 306 25 c 1,33,-1
 308 96 l 1,34,35
 308 191 308 191 288 322 c 1,36,-1
 260 323 l 1,37,38
 230 323 230 323 197 314 c 0,39,40
 135 296 135 296 112.5 296 c 128,-1,41
 90 296 90 296 86.5 300 c 128,-1,42
 83 304 83 304 83 315 c 128,-1,43
 83 326 83 326 83 337 c 128,-1,44
 83 348 83 348 89 354 c 1,45,-1
 127 583 l 1,46,47
 126 586 126 586 126 592.5 c 128,-1,48
 126 599 126 599 129 609.5 c 128,-1,49
 132 620 132 620 138 630 c 0,50,51
 151 652 151 652 166 652 c 1,52,-1
 177 651 l 1,53,-1
 245 632 l 1,54,55
 261 631 261 631 271 631 c 0,56,57
 315 631 315 631 350 631 c 128,-1,58
 385 631 385 631 412 633 c 0,59,60
 497 639 497 639 524 666 c 0,61,62
 553 695 553 695 567 695 c 128,-1,63
 581 695 581 695 587.5 682.5 c 128,-1,64
 594 670 594 670 596.5 653.5 c 128,-1,65
 599 637 599 637 598.5 620.5 c 128,-1,66
 598 604 598 604 598 594 c 2,67,-1
 598 567 l 2,0,1
337 310 m 1,68,69
 337 291 337 291 342.5 225 c 128,-1,70
 348 159 348 159 350 131.5 c 128,-1,71
 352 104 352 104 353.5 81.5 c 128,-1,72
 355 59 355 59 356 49 c 1,73,-1
 362 49 l 1,74,75
 407 66 407 66 442 103 c 0,76,77
 480 143 480 143 480 186 c 0,78,79
 480 235 480 235 450 260 c 1,80,81
 424 283 424 283 366 306 c 0,82,83
 358 310 358 310 356 310 c 2,84,-1
 337 310 l 1,68,69
238 588 m 2,85,-1
 201 595 l 1,86,87
 180 595 180 595 177 577 c 2,88,-1
 139 371 l 1,89,-1
 139 352 l 1,90,-1
 154 352 l 2,91,92
 191 352 191 352 195 365 c 2,93,-1
 270 571 l 1,94,-1
 270 583 l 1,95,96
 269 584 269 584 264.5 584.5 c 128,-1,97
 260 585 260 585 254 586 c 0,98,99
 243 588 243 588 238 588 c 2,85,-1
EndSplineSet
EndChar

StartChar: six
Encoding: 54 54 25
Width: 577
Flags: W
LayerCount: 2
Fore
SplineSet
499.5 576 m 128,-1,1
 505 557 505 557 505 535.5 c 128,-1,2
 505 514 505 514 496 514 c 0,3,4
 477 514 477 514 468 521 c 1,5,6
 452 591 452 591 411 617 c 0,7,8
 395 627 395 627 367 627 c 128,-1,9
 339 627 339 627 315 617.5 c 128,-1,10
 291 608 291 608 287 571 c 2,11,-1
 273 409 l 1,12,-1
 279 370 l 1,13,14
 286 370 286 370 301 372 c 2,15,-1
 325 376 l 2,16,17
 334 378 334 378 338 378 c 128,-1,18
 342 378 342 378 355.5 373.5 c 128,-1,19
 369 369 369 369 386 363 c 0,20,21
 432 348 432 348 443 341 c 1,22,23
 457 327 457 327 474.5 310.5 c 128,-1,24
 492 294 492 294 508 275 c 0,25,26
 545 231 545 231 545 184 c 128,-1,27
 545 137 545 137 524 100 c 128,-1,28
 503 63 503 63 468 38 c 0,29,30
 398 -13 398 -13 302 -13 c 2,31,-1
 289 -13 l 1,32,-1
 173 19 l 2,33,34
 169 20 169 20 153 34 c 0,35,36
 90 86 90 86 58 174 c 1,37,38
 39 223 39 223 39 259 c 0,39,40
 39 302 39 302 45.5 337.5 c 128,-1,41
 52 373 52 373 55 378 c 2,42,-1
 133 527 l 1,43,-1
 269 657 l 2,44,45
 293 681 293 681 382 677 c 0,46,47
 404 676 404 676 422 676 c 1,48,49
 442 657 442 657 457.5 642 c 128,-1,50
 473 627 473 627 483.5 611 c 128,-1,0
 494 595 494 595 499.5 576 c 128,-1,1
368 173 m 2,51,-1
 367 187 l 2,52,53
 356 329 356 329 333 329 c 2,54,-1
 284 329 l 1,55,-1
 273 316 l 1,56,-1
 252 118 l 1,57,-1
 252 98 l 1,58,-1
 250 40 l 2,59,60
 250 33 250 33 251 31 c 1,61,-1
 327 31 l 1,62,-1
 347 55 l 1,63,64
 355 63 355 63 361.5 112.5 c 128,-1,65
 368 162 368 162 368 173 c 2,51,-1
385 316 m 1,66,-1
 407 204 l 1,67,-1
 391 55 l 1,68,-1
 393 43 l 1,69,70
 437 49 437 49 468 92 c 0,71,72
 497 131 497 131 497 179 c 128,-1,73
 497 227 497 227 466 265 c 128,-1,74
 435 303 435 303 385 316 c 1,66,-1
82 266 m 1,75,-1
 84 246 l 1,76,77
 84 222 84 222 98 174 c 0,78,79
 117 112 117 112 148 81 c 0,80,81
 180 49 180 49 199 49 c 0,82,83
 205 49 205 49 207.5 51 c 128,-1,84
 210 53 210 53 211 62 c 2,85,-1
 217 229 l 1,86,-1
 217 236 l 1,87,-1
 242 565 l 1,88,-1
 227 558 l 1,89,-1
 103 384 l 1,90,-1
 82 266 l 1,75,-1
EndSplineSet
EndChar

StartChar: seven
Encoding: 55 55 26
Width: 620
Flags: W
LayerCount: 2
Fore
SplineSet
422 50 m 2,0,1
 435 50 435 50 435 31 c 0,2,3
 435 14 435 14 409 9 c 128,-1,4
 383 4 383 4 342 4 c 2,5,-1
 261 4 l 2,6,7
 137 4 137 4 25 12 c 1,8,9
 16 17 16 17 14 20 c 128,-1,10
 12 23 12 23 12 30 c 0,11,12
 12 54 12 54 33.5 58 c 128,-1,13
 55 62 55 62 87 62 c 2,14,-1
 124 62 l 1,15,-1
 130 68 l 1,16,-1
 230 285 l 1,17,-1
 174 285 l 2,18,19
 167 285 167 285 167 308.5 c 128,-1,20
 167 332 167 332 180 332 c 2,21,-1
 251 332 l 1,22,-1
 362 593 l 1,23,-1
 205 638 l 1,24,-1
 201 638 l 1,25,-1
 195 639 l 1,26,27
 184 639 184 639 180 636 c 128,-1,28
 176 633 176 633 170.5 624.5 c 128,-1,29
 165 616 165 616 158.5 605.5 c 128,-1,30
 152 595 152 595 145 583 c 0,31,32
 128 553 128 553 124 546 c 1,33,-1
 123 530 l 2,34,35
 123 516 123 516 130.5 505 c 128,-1,36
 138 494 138 494 138 481 c 128,-1,37
 138 468 138 468 127 463 c 128,-1,38
 116 458 116 458 108.5 458 c 128,-1,39
 101 458 101 458 92 466 c 128,-1,40
 83 474 83 474 78 485 c 0,41,42
 68 507 68 507 68 528.5 c 128,-1,43
 68 550 68 550 77 570 c 128,-1,44
 86 590 86 590 99 608.5 c 128,-1,45
 112 627 112 627 126 644 c 128,-1,46
 140 661 140 661 149 676 c 1,47,48
 160 686 160 686 170 687.5 c 128,-1,49
 180 689 180 689 188 689 c 2,50,-1
 204 689 l 2,51,52
 210 689 210 689 211 688 c 2,53,-1
 354 638 l 1,54,-1
 361 638 l 1,55,-1
 392 637 l 2,56,57
 418 637 418 637 438.5 637 c 128,-1,58
 459 637 459 637 473 638 c 0,59,60
 494 641 494 641 520.5 650.5 c 128,-1,61
 547 660 547 660 553 665.5 c 128,-1,62
 559 671 559 671 564.5 671 c 128,-1,63
 570 671 570 671 577 668 c 128,-1,64
 584 665 584 665 591 661 c 0,65,66
 610 650 610 650 608 645 c 2,67,-1
 475 304 l 1,68,-1
 533 304 l 2,69,70
 535 304 535 304 537.5 297 c 128,-1,71
 540 290 540 290 540 288.5 c 128,-1,72
 540 287 540 287 535 280 c 128,-1,73
 530 273 530 273 527 273 c 2,74,-1
 453 254 l 1,75,-1
 356 50 l 1,76,-1
 422 50 l 2,0,1
310 56 m 1,77,-1
 409 261 l 1,78,79
 406 265 406 265 406 274.5 c 128,-1,80
 406 284 406 284 415 294.5 c 128,-1,81
 424 305 424 305 434 310 c 1,82,-1
 539 596 l 1,83,-1
 539 602 l 1,84,85
 498 602 498 602 454 597 c 128,-1,86
 410 592 410 592 409 589 c 2,87,-1
 168 56 l 1,88,-1
 310 56 l 1,77,-1
EndSplineSet
EndChar

StartChar: eight
Encoding: 56 56 27
Width: 599
Flags: W
LayerCount: 2
Fore
SplineSet
545 192 m 1,0,-1
 532 99 l 1,1,2
 525 71 525 71 509.5 45.5 c 128,-1,3
 494 20 494 20 489 18 c 2,4,-1
 359 -44 l 1,5,-1
 272 -56 l 1,6,7
 260 -51 260 -51 241 -49.5 c 128,-1,8
 222 -48 222 -48 205 -43 c 128,-1,9
 188 -38 188 -38 161 -21 c 128,-1,10
 134 -4 134 -4 110 18 c 1,11,12
 55 72 55 72 55 117 c 1,13,14
 38 118 38 118 21 122.5 c 128,-1,15
 4 127 4 127 4 148 c 0,16,17
 4 178 4 178 43 178 c 2,18,-1
 62 178 l 1,19,20
 62 231 62 231 104 288 c 0,21,22
 140 336 140 336 191 371 c 1,23,-1
 192 375 l 2,24,25
 192 377 192 377 187 384 c 128,-1,26
 182 391 182 391 179 396 c 1,27,-1
 142 514 l 1,28,29
 129 520 129 520 129 532 c 128,-1,30
 129 544 129 544 130.5 546.5 c 128,-1,31
 132 549 132 549 135 551.5 c 128,-1,32
 138 554 138 554 143 557.5 c 128,-1,33
 148 561 148 561 162.5 580.5 c 128,-1,34
 177 600 177 600 192 621 c 128,-1,35
 207 642 207 642 224 656 c 0,36,37
 257 682 257 682 333 682 c 0,38,39
 402 682 402 682 452 657 c 1,40,41
 455 651 455 651 458 651 c 1,42,43
 509 619 509 619 523 602 c 0,44,45
 553 566 553 566 553 511 c 0,46,47
 553 392 553 392 471 340 c 1,48,49
 465 340 465 340 458 337.5 c 128,-1,50
 451 335 451 335 451 331.5 c 128,-1,51
 451 328 451 328 460.5 321 c 128,-1,52
 470 314 470 314 482 305 c 0,53,54
 513 282 513 282 520 266 c 0,55,56
 521 264 521 264 524 254.5 c 128,-1,57
 527 245 527 245 531 233 c 128,-1,58
 535 221 535 221 539 209.5 c 128,-1,59
 543 198 543 198 545 192 c 1,0,-1
254 99 m 0,60,61
 254 -13 254 -13 293 -13 c 0,62,63
 382 -13 382 -13 442 36 c 256,64,65
 502 85 502 85 502 164 c 0,66,67
 502 225 502 225 463 268 c 0,68,69
 423 311 423 311 360 311 c 0,70,71
 309 311 309 311 278 224 c 0,72,73
 254 158 254 158 254 99 c 0,60,61
110.5 205 m 128,-1,75
 97 170 97 170 97 139.5 c 128,-1,76
 97 109 97 109 107 84.5 c 128,-1,77
 117 60 117 60 134 40 c 0,78,79
 172 -3 172 -3 223 -3 c 1,80,81
 223 20 223 20 218 49 c 0,82,83
 210 105 210 105 210 116.5 c 128,-1,84
 210 128 210 128 216 150.5 c 128,-1,85
 222 173 222 173 231 202 c 0,86,87
 250 263 250 263 272 316 c 1,88,-1
 272 329 l 1,89,90
 200 329 200 329 148 268 c 0,91,74
 124 240 124 240 110.5 205 c 128,-1,75
315 459 m 2,92,-1
 315 422 l 2,93,94
 315 382 315 382 336 368 c 0,95,96
 349 359 349 359 376.5 359 c 128,-1,97
 404 359 404 359 429.5 370 c 128,-1,98
 455 381 455 381 474 400 c 0,99,100
 513 442 513 442 513 499 c 0,101,102
 513 559 513 559 470 601 c 0,103,104
 424 645 424 645 365 645 c 0,105,106
 341 645 341 645 326 568 c 0,107,108
 315 511 315 511 315 459 c 2,92,-1
201.5 555 m 128,-1,110
 191 528 191 528 191 507 c 128,-1,111
 191 486 191 486 198 463.5 c 128,-1,112
 205 441 205 441 218 420 c 0,113,114
 248 369 248 369 285 369 c 1,115,116
 285 389 285 389 278.5 408.5 c 128,-1,117
 272 428 272 428 272 450.5 c 128,-1,118
 272 473 272 473 276 497 c 128,-1,119
 280 521 280 521 285 544 c 0,120,121
 298 606 298 606 298 639 c 1,122,123
 281 639 281 639 274.5 631.5 c 128,-1,124
 268 624 268 624 264 618 c 128,-1,125
 260 612 260 612 256 609 c 128,-1,126
 252 606 252 606 244 604.5 c 128,-1,127
 236 603 236 603 235 601 c 0,128,109
 212 582 212 582 201.5 555 c 128,-1,110
EndSplineSet
EndChar

StartChar: nine
Encoding: 57 57 28
Width: 594
Flags: W
LayerCount: 2
Fore
SplineSet
206 5 m 2,0,1
 175 5 175 5 175 27 c 128,-1,2
 175 49 175 49 194 62 c 1,3,-1
 281 242 l 1,4,-1
 281 251 l 1,5,6
 174 251 174 251 136.5 265 c 128,-1,7
 99 279 99 279 73.5 303.5 c 128,-1,8
 48 328 48 328 27 372 c 1,9,10
 27 372 27 372 25 411 c 1,11,-1
 25 421 l 2,12,13
 25 516 25 516 76 580 c 0,14,15
 110 623 110 623 120 626 c 2,16,-1
 269 676 l 2,17,18
 275 679 275 679 309 679 c 128,-1,19
 343 679 343 679 382 668.5 c 128,-1,20
 421 658 421 658 448 632 c 0,21,22
 554 530 554 530 554 373 c 0,23,24
 554 322 554 322 517 229 c 0,25,26
 511 214 511 214 504 206 c 0,27,28
 493 194 493 194 492 179 c 1,29,30
 435 101 435 101 380 61 c 0,31,32
 362 48 362 48 349 44 c 2,33,-1
 212 6 l 2,34,35
 211 5 211 5 210 5 c 2,36,-1
 206 5 l 2,0,1
269 68 m 1,37,38
 321 73 321 73 365.5 105.5 c 128,-1,39
 410 138 410 138 442.5 184 c 128,-1,40
 475 230 475 230 493.5 283.5 c 128,-1,41
 512 337 512 337 512 380 c 128,-1,42
 512 423 512 423 500.5 466.5 c 128,-1,43
 489 510 489 510 466.5 547 c 128,-1,44
 444 584 444 584 410.5 608.5 c 128,-1,45
 377 633 377 633 334 633 c 0,46,47
 331 633 331 633 322.5 632.5 c 128,-1,48
 314 632 314 632 312 632 c 1,49,50
 317 616 317 616 326.5 604.5 c 128,-1,51
 336 593 336 593 345 582 c 0,52,53
 368 554 368 554 368 527 c 2,54,-1
 368 391 l 1,55,-1
 269 80 l 1,56,-1
 269 68 l 1,37,38
73.5 473 m 128,-1,58
 69 453 69 453 69 415 c 128,-1,59
 69 377 69 377 95.5 342.5 c 128,-1,60
 122 308 122 308 170 297 c 1,61,62
 170 327 170 327 160.5 358 c 128,-1,63
 151 389 151 389 151 418 c 128,-1,64
 151 447 151 447 153 468 c 128,-1,65
 155 489 155 489 159 509 c 128,-1,66
 163 529 163 529 169 550 c 128,-1,67
 175 571 175 571 182 596 c 1,68,-1
 182 602 l 1,69,-1
 151 589 l 2,70,71
 139 583 139 583 119 555.5 c 128,-1,72
 99 528 99 528 88.5 510.5 c 128,-1,57
 78 493 78 493 73.5 473 c 128,-1,58
194 421 m 2,73,74
 192 413 192 413 192 402.5 c 128,-1,75
 192 392 192 392 196.5 372.5 c 128,-1,76
 201 353 201 353 207 336 c 0,77,78
 221 297 221 297 231 297 c 2,79,-1
 294 297 l 2,80,81
 295 297 295 297 299.5 307 c 128,-1,82
 304 317 304 317 308 330.5 c 128,-1,83
 312 344 312 344 316 359 c 128,-1,84
 320 374 320 374 322 388 c 0,85,86
 326 408 326 408 326 446 c 128,-1,87
 326 484 326 484 323 505 c 128,-1,88
 320 526 320 526 314 542 c 0,89,90
 302 571 302 571 269 602 c 1,91,92
 240 602 240 602 231 571 c 1,93,-1
 194 421 l 2,73,74
EndSplineSet
EndChar

StartChar: colon
Encoding: 58 58 29
Width: 241
Flags: W
LayerCount: 2
Fore
SplineSet
61 10 m 128,-1,1
 55 20 55 20 55 33.5 c 128,-1,2
 55 47 55 47 62.5 58.5 c 128,-1,3
 70 70 70 70 82 78 c 0,4,5
 107 96 107 96 133.5 96 c 128,-1,6
 160 96 160 96 173 79 c 128,-1,7
 186 62 186 62 186 36.5 c 128,-1,8
 186 11 186 11 168 -6 c 128,-1,9
 150 -23 150 -23 130.5 -23 c 128,-1,10
 111 -23 111 -23 99 -19 c 128,-1,11
 87 -15 87 -15 77 -7.5 c 128,-1,0
 67 0 67 0 61 10 c 128,-1,1
61 367 m 128,-1,13
 55 377 55 377 55 390.5 c 128,-1,14
 55 404 55 404 62.5 415.5 c 128,-1,15
 70 427 70 427 82 436 c 0,16,17
 107 453 107 453 133.5 453 c 128,-1,18
 160 453 160 453 173 436 c 128,-1,19
 186 419 186 419 186 393.5 c 128,-1,20
 186 368 186 368 168 351 c 128,-1,21
 150 334 150 334 130.5 334 c 128,-1,22
 111 334 111 334 99 338 c 128,-1,23
 87 342 87 342 77 349.5 c 128,-1,12
 67 357 67 357 61 367 c 128,-1,13
EndSplineSet
EndChar

StartChar: semicolon
Encoding: 59 59 30
Width: 260
Flags: W
LayerCount: 2
Fore
SplineSet
76 367 m 128,-1,1
 70 377 70 377 70 390.5 c 128,-1,2
 70 404 70 404 77.5 415.5 c 128,-1,3
 85 427 85 427 97 436 c 0,4,5
 122 453 122 453 148.5 453 c 128,-1,6
 175 453 175 453 188 436 c 128,-1,7
 201 419 201 419 201 393.5 c 128,-1,8
 201 368 201 368 183 351 c 128,-1,9
 165 334 165 334 145.5 334 c 128,-1,10
 126 334 126 334 114 338 c 128,-1,11
 102 342 102 342 92 349.5 c 128,-1,0
 82 357 82 357 76 367 c 128,-1,1
79 -33 m 1,12,-1
 63 15 l 1,13,14
 63 39 63 39 91 58 c 0,15,16
 106 69 106 69 129 69 c 0,17,18
 161 69 161 69 177.5 48.5 c 128,-1,19
 194 28 194 28 194 -2 c 128,-1,20
 194 -32 194 -32 186 -42 c 0,21,22
 152 -79 152 -79 126 -100 c 0,23,24
 108 -115 108 -115 88.5 -125.5 c 128,-1,25
 69 -136 69 -136 49 -136 c 128,-1,26
 29 -136 29 -136 29 -126 c 256,27,28
 29 -116 29 -116 37 -109 c 128,-1,29
 45 -102 45 -102 54 -94 c 0,30,31
 80 -74 80 -74 80 -45 c 1,32,-1
 79 -33 l 1,12,-1
EndSplineSet
EndChar

StartChar: less
Encoding: 60 60 31
Width: 437
Flags: W
LayerCount: 2
Fore
SplineSet
364 149.5 m 128,-1,1
 365 148 365 148 365 136 c 128,-1,2
 365 124 365 124 358 124 c 2,3,-1
 327 124 l 1,4,-1
 85 286 l 1,5,6
 85 290 85 290 66 301 c 0,7,8
 29 322 29 322 29 332 c 0,9,10
 29 348 29 348 36 354 c 1,11,-1
 358 552 l 1,12,-1
 361 553 l 2,13,14
 363 553 363 553 369.5 547.5 c 128,-1,15
 376 542 376 542 377 539 c 128,-1,16
 378 536 378 536 375 530.5 c 128,-1,17
 372 525 372 525 368 519 c 0,18,19
 359 503 359 503 358 503 c 2,20,-1
 221 415 l 1,21,-1
 215 409 l 1,22,-1
 110 341 l 1,23,-1
 110 329 l 1,24,-1
 358 155 l 2,25,0
 363 151 363 151 364 149.5 c 128,-1,1
EndSplineSet
EndChar

StartChar: equal
Encoding: 61 61 32
Width: 439
Flags: W
LayerCount: 2
Fore
SplineSet
124 171 m 1,0,-1
 61 168 l 1,1,-1
 61 196 l 1,2,-1
 81 200 l 1,3,4
 160 213 160 213 237 221 c 1,5,6
 265 221 265 221 294.5 221 c 128,-1,7
 324 221 324 221 363 208 c 0,8,9
 364 208 364 208 364 206 c 128,-1,10
 364 204 364 204 364 198 c 0,11,12
 364 190 364 190 338 183 c 1,13,14
 281 183 281 183 224 183 c 1,15,-1
 124 171 l 1,0,-1
146 371 m 1,16,-1
 101 370 l 1,17,-1
 86 370 l 1,18,-1
 86 410 l 1,19,-1
 363 410 l 2,20,21
 376 410 376 410 376 391 c 1,22,-1
 375 387 l 1,23,-1
 375 385 l 1,24,-1
 162 371 l 1,25,-1
 146 371 l 1,16,-1
EndSplineSet
EndChar

StartChar: greater
Encoding: 62 62 33
Width: 438
Flags: W
LayerCount: 2
Fore
SplineSet
79 124 m 2,0,1
 72 124 72 124 72 136 c 128,-1,2
 72 148 72 148 73 149.5 c 128,-1,3
 74 151 74 151 79 155 c 2,4,-1
 328 329 l 1,5,-1
 328 341 l 1,6,-1
 222 409 l 1,7,-1
 216 415 l 1,8,-1
 79 503 l 1,9,10
 60 535 60 535 60 537 c 0,11,12
 62 542 62 542 68 547.5 c 128,-1,13
 74 553 74 553 77 553 c 1,14,-1
 402 354 l 1,15,16
 409 348 409 348 409 337 c 128,-1,17
 409 326 409 326 400 319 c 128,-1,18
 391 312 391 312 380 306 c 0,19,20
 353 290 353 290 353 286 c 1,21,-1
 111 124 l 1,22,-1
 79 124 l 2,0,1
EndSplineSet
EndChar

StartChar: question
Encoding: 63 63 34
Width: 527
Flags: W
LayerCount: 2
Fore
SplineSet
146 37 m 0,0,1
 146 112 146 112 214 112 c 0,2,3
 246 112 246 112 267.5 90 c 128,-1,4
 289 68 289 68 289 35 c 128,-1,5
 289 2 289 2 264 -18 c 128,-1,6
 239 -38 239 -38 212 -38 c 128,-1,7
 185 -38 185 -38 174.5 -31 c 128,-1,8
 164 -24 164 -24 158 -14 c 0,9,10
 146 5 146 5 146 37 c 0,0,1
227 69 m 1,11,-1
 223 68 l 1,12,-1
 221 68 l 1,13,-1
 184 30 l 2,14,15
 183 29 183 29 183 28 c 2,16,-1
 183 25 l 2,17,18
 183 17 183 17 185.5 10.5 c 128,-1,19
 188 4 188 4 205 4 c 0,20,21
 253 4 253 4 253 38 c 0,22,23
 253 69 253 69 227 69 c 1,11,-1
326 161 m 1,24,-1
 174 154 l 2,25,26
 160 154 160 154 153 165 c 128,-1,27
 146 176 146 176 146 187 c 2,28,-1
 146 198 l 1,29,-1
 271 341 l 1,30,-1
 326 502 l 2,31,32
 328 506 328 506 328 524.5 c 128,-1,33
 328 543 328 543 326.5 555 c 128,-1,34
 325 567 325 567 322 579 c 0,35,36
 318 596 318 596 302 632 c 1,37,38
 293 638 293 638 285.5 646.5 c 128,-1,39
 278 655 278 655 270 663 c 0,40,41
 253 682 253 682 236 682 c 0,42,43
 172 682 172 682 120 614 c 0,44,45
 71 550 71 550 71 483 c 1,46,-1
 72 446 l 1,47,48
 82 408 82 408 136 408 c 0,49,50
 184 408 184 408 184 490 c 1,51,52
 181 499 181 499 165 539 c 1,53,54
 165 551 165 551 169 555 c 128,-1,55
 173 559 173 559 184 559 c 2,56,-1
 196 558 l 1,57,58
 209 533 209 533 218.5 506 c 128,-1,59
 228 479 228 479 239 453 c 1,60,-1
 239 450 l 1,61,-1
 240 446 l 1,62,63
 240 407 240 407 206 384 c 0,64,65
 177 365 177 365 142 365 c 128,-1,66
 107 365 107 365 87.5 375 c 128,-1,67
 68 385 68 385 56 402 c 0,68,69
 34 433 34 433 34 482.5 c 128,-1,70
 34 532 34 532 51 574 c 128,-1,71
 68 616 68 616 97.5 650 c 128,-1,72
 127 684 127 684 167 705 c 128,-1,73
 207 726 207 726 249 726 c 128,-1,74
 291 726 291 726 333.5 714.5 c 128,-1,75
 376 703 376 703 412 680 c 0,76,77
 495 629 495 629 495 547 c 0,78,79
 495 506 495 506 482 463.5 c 128,-1,80
 469 421 469 421 462 409 c 2,81,-1
 326 161 l 1,24,-1
370 502 m 0,82,83
 339 335 339 335 233 211 c 1,84,85
 246 211 246 211 256 211 c 128,-1,86
 266 211 266 211 274 212 c 0,87,88
 295 215 295 215 296 217 c 2,89,-1
 450 514 l 1,90,-1
 450 588 l 2,91,92
 450 623 450 623 400 650 c 0,93,94
 364 670 364 670 326 676 c 1,95,96
 326 675 326 675 332 666.5 c 128,-1,97
 338 658 338 658 338 651 c 1,98,99
 356 608 356 608 363.5 584.5 c 128,-1,100
 371 561 371 561 371 546 c 2,101,-1
 371 519 l 2,102,103
 371 506 371 506 370 502 c 0,82,83
EndSplineSet
EndChar

StartChar: at
Encoding: 64 64 35
Width: 704
Flags: W
LayerCount: 2
Fore
SplineSet
484 249 m 1,0,1
 538 267 538 267 538 388 c 2,2,-1
 538 402 l 1,3,-1
 537 432 l 1,4,-1
 537 438 l 1,5,6
 533 469 533 469 496 492 c 0,7,8
 461 514 461 514 428.5 514 c 128,-1,9
 396 514 396 514 363 499 c 128,-1,10
 330 484 330 484 300 462 c 0,11,12
 261 433 261 433 197 362 c 0,13,14
 170 331 170 331 164 300.5 c 128,-1,15
 158 270 158 270 158 248 c 2,16,-1
 158 219 l 1,17,-1
 160 174 l 1,18,19
 212 109 212 109 320 91 c 0,20,21
 350 86 350 86 386 86 c 0,22,23
 468 86 468 86 537 124 c 0,24,25
 543 128 543 128 556.5 136.5 c 128,-1,26
 570 145 570 145 584 154 c 0,27,28
 618 175 618 175 619 175 c 0,29,30
 637 175 637 175 637 162 c 0,31,32
 637 145 637 145 610 120 c 0,33,34
 584 97 584 97 546 77.5 c 128,-1,35
 508 58 508 58 478 50 c 0,36,37
 425 35 425 35 368 35 c 128,-1,38
 311 35 311 35 279.5 38 c 128,-1,39
 248 41 248 41 217 49 c 0,40,41
 112 76 112 76 64 184 c 1,42,43
 46 227 46 227 46 268 c 128,-1,44
 46 309 46 309 61 343.5 c 128,-1,45
 76 378 76 378 99.5 418 c 128,-1,46
 123 458 123 458 159.5 484 c 128,-1,47
 196 510 196 510 239 525 c 128,-1,48
 282 540 282 540 329 548 c 128,-1,49
 376 556 376 556 424 564 c 1,50,-1
 442 564 l 2,51,52
 472 564 472 564 522.5 548 c 128,-1,53
 573 532 573 532 589.5 524.5 c 128,-1,54
 606 517 606 517 618.5 497 c 128,-1,55
 631 477 631 477 638 452 c 0,56,57
 652 408 652 408 652 369 c 128,-1,58
 652 330 652 330 637.5 299 c 128,-1,59
 623 268 623 268 600 243 c 0,60,61
 546 186 546 186 486 186 c 0,62,63
 481 186 481 186 461.5 193.5 c 128,-1,64
 442 201 442 201 432 206.5 c 128,-1,65
 422 212 422 212 417.5 218 c 128,-1,66
 413 224 413 224 412 224 c 2,67,-1
 373 212 l 1,68,69
 313 212 313 212 284 246 c 0,70,71
 272 260 272 260 272 281 c 2,72,-1
 272 285 l 2,73,74
 272 289 272 289 287 319 c 128,-1,75
 302 349 302 349 317 368 c 0,76,77
 353 415 353 415 393 415 c 0,78,79
 429 415 429 415 448 376 c 0,80,81
 462 347 462 347 462 319 c 128,-1,82
 462 291 462 291 456.5 280 c 128,-1,83
 451 269 451 269 451 257 c 1,84,-1
 484 249 l 1,0,1
164 124 m 256,85,86
 164 130 164 130 159.5 130 c 128,-1,87
 155 130 155 130 155 124 c 256,88,89
 155 118 155 118 159.5 118 c 128,-1,90
 164 118 164 118 164 124 c 256,85,86
139 149 m 256,91,92
 139 155 139 155 134.5 155 c 128,-1,93
 130 155 130 155 130 149 c 256,94,95
 130 143 130 143 134.5 143 c 128,-1,96
 139 143 139 143 139 149 c 256,91,92
121 174 m 0,97,98
 128 174 128 174 128 179.5 c 128,-1,99
 128 185 128 185 122 187 c 1,100,101
 116 187 116 187 116 180.5 c 128,-1,102
 116 174 116 174 121 174 c 0,97,98
261 488 m 1,103,104
 96 417 96 417 96 271 c 1,105,-1
 95 247 l 1,106,107
 95 212 95 212 110 199 c 1,108,-1
 122 212 l 1,109,110
 129 349 129 349 172 401 c 0,111,112
 183 415 183 415 219 449.5 c 128,-1,113
 255 484 255 484 261 488 c 1,103,104
310 280 m 0,114,115
 310 270 310 270 349 237 c 1,116,117
 376 237 376 237 397 286 c 0,118,119
 412 320 412 320 412 337.5 c 128,-1,120
 412 355 412 355 409.5 365.5 c 128,-1,121
 407 376 407 376 392 376 c 1,122,-1
 386 375 l 1,123,124
 310 311 310 311 310 280 c 0,114,115
581 450.5 m 128,-1,126
 587 433 587 433 587 404 c 0,127,128
 587 344 587 344 562 262 c 1,129,130
 610 295 610 295 613 342 c 0,131,132
 614 356 614 356 614 372 c 128,-1,133
 614 388 614 388 613 405.5 c 128,-1,134
 612 423 612 423 608 439 c 0,135,136
 601 475 601 475 575 488 c 1,137,125
 575 468 575 468 581 450.5 c 128,-1,126
EndSplineSet
EndChar

StartChar: A
Encoding: 65 65 36
Width: 847
Flags: W
LayerCount: 2
Fore
SplineSet
371 8 m 128,-1,1
 371 -5 371 -5 364 -5 c 2,2,-1
 56 -5 l 2,3,4
 47 -5 47 -5 42.5 2.5 c 128,-1,5
 38 10 38 10 38 21 c 128,-1,6
 38 32 38 32 50 41 c 1,7,8
 62 42 62 42 77.5 43 c 128,-1,9
 93 44 93 44 106 45 c 0,10,11
 139 47 139 47 142 52 c 1,12,-1
 245 326 l 1,13,-1
 246 333 l 1,14,15
 246 371 246 371 165 378 c 0,16,17
 147 379 147 379 137 379 c 0,18,19
 97 379 97 379 67.5 351.5 c 128,-1,20
 38 324 38 324 38 281 c 0,21,22
 38 252 38 252 66 252 c 0,23,24
 86 252 86 252 91.5 261 c 128,-1,25
 97 270 97 270 97 285 c 2,26,-1
 97 309 l 1,27,28
 100 318 100 318 104 320 c 128,-1,29
 108 322 108 322 116.5 322 c 128,-1,30
 125 322 125 322 131 317 c 128,-1,31
 137 312 137 312 140 305 c 0,32,33
 148 290 148 290 148 276 c 128,-1,34
 148 262 148 262 141.5 250 c 128,-1,35
 135 238 135 238 125 228 c 0,36,37
 101 206 101 206 80 206 c 0,38,39
 41 206 41 206 19.5 225.5 c 128,-1,40
 -2 245 -2 245 -2 278.5 c 128,-1,41
 -2 312 -2 312 8 338 c 128,-1,42
 18 364 18 364 36 383 c 0,43,44
 75 424 75 424 130 424 c 0,45,46
 168 424 168 424 198 417.5 c 128,-1,47
 228 411 228 411 262 388 c 1,48,-1
 264 387 l 2,49,50
 265 387 265 387 269 390 c 128,-1,51
 273 393 273 393 273 395 c 2,52,-1
 354 606 l 1,53,-1
 354 609 l 2,54,55
 354 611 354 611 351.5 614.5 c 128,-1,56
 349 618 349 618 347 618 c 2,57,-1
 211 618 l 2,58,59
 204 618 204 618 204 626.5 c 128,-1,60
 204 635 204 635 208.5 649 c 128,-1,61
 213 663 213 663 222 663 c 2,62,-1
 657 672 l 2,63,64
 665 672 665 672 669 663.5 c 128,-1,65
 673 655 673 655 673 639 c 128,-1,66
 673 623 673 623 663 623 c 2,67,-1
 572 623 l 1,68,-1
 645 406 l 1,69,70
 647 395 647 395 650 391 c 128,-1,71
 653 387 653 387 673 387 c 128,-1,72
 693 387 693 387 723.5 396.5 c 128,-1,73
 754 406 754 406 788 406 c 0,74,75
 805 406 805 406 805 387 c 0,76,77
 805 375 805 375 796 368.5 c 128,-1,78
 787 362 787 362 776 361 c 2,79,-1
 685 349 l 1,80,81
 673 349 673 349 673 338 c 1,82,-1
 775 43 l 1,83,-1
 829 29 l 1,84,85
 841 28 841 28 841 15.5 c 128,-1,86
 841 3 841 3 835 -4 c 1,87,88
 828 -3 828 -3 822 -3 c 2,89,-1
 811 -3 l 1,90,-1
 622 -8 l 2,91,92
 611 -8 611 -8 608 -4 c 128,-1,93
 605 0 605 0 605 14 c 128,-1,94
 605 28 605 28 619 33.5 c 128,-1,95
 633 39 633 39 644.5 42 c 128,-1,96
 656 45 656 45 665.5 44.5 c 128,-1,97
 675 44 675 44 686 43 c 0,98,99
 708 41 708 41 721 41 c 1,100,-1
 721 53 l 1,101,-1
 633 326 l 1,102,-1
 622 326 l 2,103,104
 618 326 618 326 578.5 290.5 c 128,-1,105
 539 255 539 255 529 245.5 c 128,-1,106
 519 236 519 236 515.5 227 c 128,-1,107
 512 218 512 218 497 218 c 128,-1,108
 482 218 482 218 473.5 227 c 128,-1,109
 465 236 465 236 457.5 247 c 128,-1,110
 450 258 450 258 441.5 267 c 128,-1,111
 433 276 433 276 425.5 276 c 128,-1,112
 418 276 418 276 418 275.5 c 128,-1,113
 418 275 418 275 417 275 c 2,114,-1
 416 275 l 1,115,-1
 337 57 l 1,116,117
 335 55 335 55 335 47.5 c 128,-1,118
 335 40 335 40 340.5 38 c 128,-1,119
 346 36 346 36 353 33.5 c 128,-1,120
 360 31 360 31 365.5 26 c 128,-1,0
 371 21 371 21 371 8 c 128,-1,1
192 64 m 2,121,-1
 192 54 l 2,122,123
 192 50 192 50 193 45.5 c 128,-1,124
 194 41 194 41 205 41 c 2,125,-1
 279 41 l 2,126,127
 283 41 283 41 289 50.5 c 128,-1,128
 295 60 295 60 302 69 c 1,129,-1
 496 601 l 1,130,-1
 496 618 l 1,131,-1
 399 618 l 1,132,-1
 193 69 l 2,133,134
 192 69 192 69 192 64 c 2,121,-1
439 338 m 1,135,-1
 438 332 l 1,136,137
 438 324 438 324 440.5 322 c 128,-1,138
 443 320 443 320 449.5 315.5 c 128,-1,139
 456 311 456 311 464.5 305 c 128,-1,140
 473 299 473 299 481.5 293 c 128,-1,141
 490 287 490 287 502 280 c 1,142,-1
 605 365 l 1,143,144
 617 371 617 371 617 372.5 c 128,-1,145
 617 374 617 374 616 376 c 1,146,-1
 616 378 l 1,147,-1
 540 594 l 1,148,-1
 439 338 l 1,135,-1
EndSplineSet
EndChar

StartChar: B
Encoding: 66 66 37
Width: 721
Flags: W
LayerCount: 2
Fore
SplineSet
214 332 m 1,0,-1
 213 266 l 2,1,2
 213 209 213 209 217 53 c 1,3,-1
 223 40 l 1,4,5
 230 33 230 33 288 30 c 128,-1,6
 346 27 346 27 355 26 c 1,7,8
 355 167 355 167 347 245 c 1,9,10
 344 296 344 296 343.5 343 c 128,-1,11
 343 390 343 390 341 436 c 0,12,13
 336 540 336 540 316 625 c 1,14,15
 309 632 309 632 291 632 c 0,16,17
 231 632 231 632 204 625 c 1,18,19
 204 553 204 553 206 527 c 0,20,21
 211 480 211 480 211 449 c 1,22,-1
 215 362 l 1,23,-1
 214 332 l 1,0,-1
78 -54 m 0,24,25
 55 -54 55 -54 55 -25 c 0,26,27
 55 5 55 5 102 24 c 0,28,29
 124 32 124 32 174 40 c 1,30,-1
 180 46 l 1,31,-1
 180 295 l 2,32,33
 180 305 180 305 173 308 c 128,-1,34
 166 311 166 311 158 313.5 c 128,-1,35
 150 316 150 316 143 320.5 c 128,-1,36
 136 325 136 325 136 337 c 0,37,38
 136 367 136 367 174 369 c 1,39,40
 174 463 174 463 155 600 c 1,41,42
 134 600 134 600 118 581.5 c 128,-1,43
 102 563 102 563 88.5 540.5 c 128,-1,44
 75 518 75 518 62.5 499.5 c 128,-1,45
 50 481 50 481 38 481 c 128,-1,46
 26 481 26 481 18.5 490 c 128,-1,47
 11 499 11 499 11 505 c 2,48,-1
 11 514 l 2,49,50
 11 518 11 518 12 520 c 0,51,52
 41 594 41 594 115 638 c 1,53,54
 185 681 185 681 265 681 c 128,-1,55
 345 681 345 681 402.5 669.5 c 128,-1,56
 460 658 460 658 500.5 640 c 128,-1,57
 541 622 541 622 567 599.5 c 128,-1,58
 593 577 593 577 608 556 c 0,59,60
 633 518 633 518 633 485 c 0,61,62
 633 478 633 478 632 476 c 1,63,64
 635 473 635 473 635 442 c 128,-1,65
 635 411 635 411 621.5 387 c 128,-1,66
 608 363 608 363 577 337 c 1,67,68
 632 316 632 316 660.5 279.5 c 128,-1,69
 689 243 689 243 689 187 c 128,-1,70
 689 131 689 131 672 94.5 c 128,-1,71
 655 58 655 58 629.5 33.5 c 128,-1,72
 604 9 604 9 573 -4.5 c 128,-1,73
 542 -18 542 -18 514 -25 c 0,74,75
 474 -35 474 -35 433 -35 c 128,-1,76
 392 -35 392 -35 349 -28 c 128,-1,77
 306 -21 306 -21 261 -21 c 2,78,-1
 217 -21 l 1,79,80
 213 -29 213 -29 209.5 -32 c 128,-1,81
 206 -35 206 -35 196.5 -35 c 128,-1,82
 187 -35 187 -35 180.5 -28 c 128,-1,83
 174 -21 174 -21 161.5 -21 c 128,-1,84
 149 -21 149 -21 138.5 -26 c 128,-1,85
 128 -31 128 -31 118 -38 c 0,86,87
 93 -54 93 -54 78 -54 c 0,24,25
396 23 m 2,88,89
 396 14 396 14 423.5 14 c 128,-1,90
 451 14 451 14 490 21.5 c 128,-1,91
 529 29 529 29 564 47 c 0,92,93
 645 90 645 90 645 164 c 256,94,95
 645 238 645 238 626 263 c 0,96,97
 614 278 614 278 593.5 287 c 128,-1,98
 573 296 573 296 539 307 c 1,99,-1
 520 307 l 1,100,101
 513 306 513 306 494.5 303 c 128,-1,102
 476 300 476 300 455.5 297 c 128,-1,103
 435 294 435 294 416.5 291.5 c 128,-1,104
 398 289 398 289 391.5 288 c 128,-1,105
 385 287 385 287 385 279 c 2,106,-1
 385 275 l 2,107,108
 385 177 385 177 397 28 c 1,109,110
 396 27 396 27 396 26 c 2,111,-1
 396 23 l 2,88,89
386 342 m 1,112,-1
 428 344 l 2,113,114
 438 345 438 345 454 346 c 0,115,116
 487 350 487 350 510 354 c 2,117,-1
 520 356 l 1,118,119
 556 378 556 378 570.5 409 c 128,-1,120
 585 440 585 440 585 462 c 0,121,122
 585 543 585 543 502 589 c 0,123,124
 470 607 470 607 439 613.5 c 128,-1,125
 408 620 408 620 399.5 620 c 128,-1,126
 391 620 391 620 391 619 c 1,127,-1
 371 619 l 1,128,129
 371 578 371 578 376 513 c 0,130,131
 386 383 386 383 386 342 c 1,112,-1
EndSplineSet
EndChar

StartChar: C
Encoding: 67 67 38
Width: 648
Flags: W
LayerCount: 2
Fore
SplineSet
328 6 m 2,0,-1
 377 5 l 1,1,2
 467 5 467 5 520 35 c 0,3,4
 567 61 567 61 574 92 c 0,5,6
 582 125 582 125 591 135 c 128,-1,7
 600 145 600 145 609 145 c 128,-1,8
 618 145 618 145 625.5 139.5 c 128,-1,9
 633 134 633 134 633 119.5 c 128,-1,10
 633 105 633 105 624.5 83 c 128,-1,11
 616 61 616 61 602 42 c 1,12,13
 574 0 574 0 535 -18 c 0,14,15
 467 -50 467 -50 375 -50 c 0,16,17
 259 -50 259 -50 186 14 c 0,18,19
 89 100 89 100 76 293 c 1,20,-1
 26 293 l 2,21,22
 18 293 18 293 18 305 c 128,-1,23
 18 317 18 317 23 323 c 128,-1,24
 28 329 28 329 35 332.5 c 128,-1,25
 42 336 42 336 50.5 338 c 128,-1,26
 59 340 59 340 66 342 c 1,27,28
 73 435 73 435 104 512 c 0,29,30
 128 572 128 572 151 593 c 128,-1,31
 174 614 174 614 208 630.5 c 128,-1,32
 242 647 242 647 278 658 c 0,33,34
 345 679 345 679 409 679 c 1,35,-1
 522 653 l 1,36,37
 528 664 528 664 540.5 671 c 128,-1,38
 553 678 553 678 570 678 c 0,39,40
 597 678 597 678 597 631 c 1,41,-1
 566 497 l 2,42,43
 566 495 566 495 549 491 c 1,44,45
 528 491 528 491 522 504 c 1,46,47
 483 614 483 614 417 626 c 0,48,49
 400 629 400 629 387 629 c 0,50,51
 325 629 325 629 325 583 c 0,52,53
 325 577 325 577 326 573 c 1,54,-1
 326 576 l 1,55,56
 327 571 327 571 327 558 c 2,57,-1
 327 454 l 2,58,59
 327 234 327 234 321 142.5 c 128,-1,60
 315 51 315 51 315 28.5 c 128,-1,61
 315 6 315 6 328 6 c 2,0,-1
280 427 m 2,62,63
 280 566 280 566 284 617 c 1,64,65
 267 617 267 617 226 588 c 1,66,67
 186 562 186 562 168 526 c 128,-1,68
 150 490 150 490 141 454 c 0,69,70
 127 397 127 397 127 321 c 128,-1,71
 127 245 127 245 136.5 199 c 128,-1,72
 146 153 146 153 164 118 c 0,73,74
 198 54 198 54 263 20 c 1,75,76
 280 119 280 119 280 408 c 2,77,-1
 280 427 l 2,62,63
547 553 m 1,78,79
 555 588 555 588 555 621 c 1,80,81
 545 620 545 620 536.5 619 c 128,-1,82
 528 618 528 618 519.5 617 c 128,-1,83
 511 616 511 616 505 614 c 1,84,-1
 547 553 l 1,78,79
EndSplineSet
EndChar

StartChar: D
Encoding: 68 68 39
Width: 763
Flags: W
LayerCount: 2
Fore
SplineSet
356 627 m 1,0,-1
 357 617 l 1,1,2
 357 483 357 483 352.5 340.5 c 128,-1,3
 348 198 348 198 348 120.5 c 128,-1,4
 348 43 348 43 351.5 31 c 128,-1,5
 355 19 355 19 362 12 c 0,6,7
 372 2 372 2 404 2 c 0,8,9
 530 2 530 2 604 95 c 0,10,11
 673 181 673 181 673 308 c 0,12,13
 673 363 673 363 658 423.5 c 128,-1,14
 643 484 643 484 610 534.5 c 128,-1,15
 577 585 577 585 525 618 c 128,-1,16
 473 651 473 651 400 651 c 0,17,18
 383 651 383 651 369.5 647 c 128,-1,19
 356 643 356 643 356 627 c 1,0,-1
128 689 m 1,20,21
 168 674 168 674 220.5 674 c 128,-1,22
 273 674 273 674 296.5 677 c 128,-1,23
 320 680 320 680 338 684 c 0,24,25
 383 694 383 694 410 694 c 0,26,27
 468 694 468 694 524 667 c 128,-1,28
 580 640 580 640 624 589.5 c 128,-1,29
 668 539 668 539 695 467 c 128,-1,30
 722 395 722 395 722 309 c 128,-1,31
 722 223 722 223 697 158.5 c 128,-1,32
 672 94 672 94 626 50 c 0,33,34
 534 -38 534 -38 373 -38 c 0,35,36
 341 -38 341 -38 310 -34.5 c 128,-1,37
 279 -31 279 -31 247 -28 c 0,38,39
 151 -17 151 -17 125 -17 c 2,40,-1
 88 -17 l 2,41,42
 78 -17 78 -17 67 -18 c 1,43,44
 60 -11 60 -11 60 2.5 c 128,-1,45
 60 16 60 16 65.5 18 c 128,-1,46
 71 20 71 20 94 20 c 2,47,-1
 155 20 l 2,48,49
 162 20 162 20 162 30 c 0,50,51
 162 80 162 80 156.5 172 c 128,-1,52
 151 264 151 264 150 294 c 1,53,54
 139 302 139 302 126 308 c 128,-1,55
 113 314 113 314 99 321 c 1,56,57
 141 345 141 345 153 373 c 1,58,-1
 153 393 l 1,59,60
 151 411 151 411 148.5 449 c 128,-1,61
 146 487 146 487 143.5 513.5 c 128,-1,62
 141 540 141 540 140 564 c 0,63,64
 137 611 137 611 134 634 c 1,65,66
 132 641 132 641 118 641 c 128,-1,67
 104 641 104 641 91.5 636.5 c 128,-1,68
 79 632 79 632 68.5 624.5 c 128,-1,69
 58 617 58 617 48.5 608 c 128,-1,70
 39 599 39 599 29 590 c 1,71,72
 16 590 16 590 6.5 593.5 c 128,-1,73
 -3 597 -3 597 -3 611 c 2,74,-1
 -3 621 l 1,75,76
 25 656 25 656 55.5 671 c 128,-1,77
 86 686 86 686 128 689 c 1,20,21
291 634 m 2,78,-1
 187 631 l 1,79,-1
 183 460 l 1,80,81
 183 372 183 372 192 222 c 0,82,83
 205 25 205 25 205 20 c 1,84,-1
 212 13 l 1,85,86
 225 13 225 13 236 14 c 2,87,-1
 278 15 l 1,88,-1
 310 14 l 1,89,-1
 310 39 l 1,90,-1
 309 64 l 1,91,-1
 314 403 l 1,92,-1
 313 437 l 1,93,-1
 313 478 l 1,94,-1
 314 559 l 1,95,-1
 314 584 l 2,96,97
 314 620 314 620 307 635 c 1,98,99
 302 634 302 634 291 634 c 2,78,-1
EndSplineSet
EndChar

StartChar: E
Encoding: 69 69 40
Width: 634
Flags: W
LayerCount: 2
Fore
SplineSet
528 -9 m 2,0,-1
 497 -10 l 1,1,-1
 470 -10 l 2,2,3
 401 -10 401 -10 191 -15 c 1,4,-1
 162 -16 l 2,5,6
 155 -16 155 -16 123 -16 c 128,-1,7
 91 -16 91 -16 65 -13.5 c 128,-1,8
 39 -11 39 -11 39 4 c 128,-1,9
 39 19 39 19 53 24 c 1,10,-1
 138 22 l 1,11,12
 138 94 138 94 132.5 160 c 128,-1,13
 127 226 127 226 127 298 c 1,14,15
 122 307 122 307 109.5 311 c 128,-1,16
 97 315 97 315 92.5 319.5 c 128,-1,17
 88 324 88 324 88 335 c 256,18,19
 88 346 88 346 93 348.5 c 128,-1,20
 98 351 98 351 104.5 351.5 c 128,-1,21
 111 352 111 352 117.5 353 c 128,-1,22
 124 354 124 354 127 361 c 1,23,-1
 127 375 l 1,24,-1
 128 420 l 1,25,-1
 128 435 l 1,26,-1
 129 518 l 2,27,28
 129 549 129 549 123 603 c 1,29,30
 119 602 119 602 105 602 c 0,31,32
 77 602 77 602 58 602 c 128,-1,33
 39 602 39 602 34 602 c 0,34,35
 27 603 27 603 27 611 c 0,36,37
 27 634 27 634 33.5 643.5 c 128,-1,38
 40 653 40 653 59 653 c 2,39,-1
 179 654 l 2,40,41
 231 654 231 654 283 650 c 128,-1,42
 335 646 335 646 380.5 646 c 128,-1,43
 426 646 426 646 464.5 648 c 128,-1,44
 503 650 503 650 539 664 c 0,45,46
 547 668 547 668 552.5 673 c 128,-1,47
 558 678 558 678 565 678 c 256,48,49
 572 678 572 678 578 672.5 c 128,-1,50
 584 667 584 667 584 659 c 1,51,-1
 583 655 l 1,52,-1
 583 653 l 1,53,54
 573 636 573 636 567 625.5 c 128,-1,55
 561 615 561 615 556 610 c 1,56,57
 549 600 549 600 539.5 600 c 128,-1,58
 530 600 530 600 475 602 c 128,-1,59
 420 604 420 604 312 599 c 1,60,61
 301 480 301 480 301 362 c 1,62,63
 345 362 345 362 369.5 372 c 128,-1,64
 394 382 394 382 405 386.5 c 128,-1,65
 416 391 416 391 427 391 c 256,66,67
 438 391 438 391 444 384 c 128,-1,68
 450 377 450 377 450 354 c 128,-1,69
 450 331 450 331 439.5 318.5 c 128,-1,70
 429 306 429 306 398.5 306 c 128,-1,71
 368 306 368 306 363 325 c 1,72,-1
 301 321 l 1,73,-1
 300 308 l 2,74,75
 295 243 295 243 295 226 c 2,76,-1
 295 198 l 2,77,78
 295 185 295 185 295.5 167 c 128,-1,79
 296 149 296 149 296.5 128.5 c 128,-1,80
 297 108 297 108 298 90 c 128,-1,81
 299 72 299 72 299.5 59.5 c 128,-1,82
 300 47 300 47 301 46 c 2,83,-1
 307 34 l 1,84,-1
 357 33 l 1,85,-1
 421 32 l 1,86,87
 546 32 546 32 585 65 c 0,88,89
 592 71 592 71 597 71 c 0,90,91
 633 71 633 71 633 37 c 1,92,-1
 631 23 l 2,93,94
 629 10 629 10 627 10 c 1,95,-1
 614 -3 l 1,96,-1
 604 -4 l 2,97,98
 554 -9 554 -9 528 -9 c 2,0,-1
165 598 m 1,99,-1
 163 479 l 1,100,-1
 163 371 l 2,101,102
 163 239 163 239 170 153 c 1,103,104
 178 35 178 35 183 35 c 1,105,-1
 189 29 l 1,106,-1
 265 28 l 1,107,108
 265 55 265 55 263.5 78 c 128,-1,109
 262 101 262 101 260 124 c 0,110,111
 256 195 256 195 256 245.5 c 128,-1,112
 256 296 256 296 260 363.5 c 128,-1,113
 264 431 264 431 264 502 c 1,114,-1
 263 562 l 1,115,-1
 263 599 l 1,116,-1
 165 604 l 1,117,-1
 165 598 l 1,99,-1
EndSplineSet
EndChar

StartChar: F
Encoding: 70 70 41
Width: 672
Flags: W
LayerCount: 2
Fore
SplineSet
398 -18 m 1,0,1
 150 -25 150 -25 118 -25 c 128,-1,2
 86 -25 86 -25 68 -23 c 128,-1,3
 50 -21 50 -21 50 -3 c 0,4,5
 50 31 50 31 112 31 c 0,6,7
 131 31 131 31 134.5 41.5 c 128,-1,8
 138 52 138 52 138 71 c 1,9,-1
 131 174 l 1,10,-1
 137 286 l 1,11,-1
 124 286 l 2,12,13
 102 286 102 286 91.5 293.5 c 128,-1,14
 81 301 81 301 81 311 c 0,15,16
 81 336 81 336 137 336 c 1,17,18
 145 368 145 368 145 419 c 2,19,-1
 145 488 l 1,20,-1
 144 562 l 1,21,-1
 144 589 l 1,22,-1
 137 614 l 1,23,-1
 32 627 l 2,24,25
 22 629 22 629 20.5 637 c 128,-1,26
 19 645 19 645 19 652.5 c 128,-1,27
 19 660 19 660 20.5 666.5 c 128,-1,28
 22 673 22 673 32 677 c 1,29,30
 83 677 83 677 148 668 c 0,31,32
 271 651 271 651 298 651 c 0,33,34
 322 651 322 651 347 651 c 1,35,-1
 367 652 l 1,36,-1
 565 689 l 1,37,-1
 658 689 l 1,38,-1
 664 677 l 1,39,-1
 667 586 l 2,40,41
 667 561 667 561 660 540.5 c 128,-1,42
 653 520 653 520 629 520 c 2,43,-1
 620 520 l 2,44,45
 617 520 617 520 615 521 c 2,46,-1
 521 621 l 1,47,-1
 510 621 l 2,48,49
 437 621 437 621 387 611 c 128,-1,50
 337 601 337 601 336 596 c 0,51,52
 333 569 333 569 332 548.5 c 128,-1,53
 331 528 331 528 330 508.5 c 128,-1,54
 329 489 329 489 329 470 c 2,55,-1
 329 361 l 1,56,57
 344 348 344 348 367 348.5 c 128,-1,58
 390 349 390 349 400 352 c 0,59,60
 427 358 427 358 435.5 361.5 c 128,-1,61
 444 365 444 365 446.5 375 c 128,-1,62
 449 385 449 385 451.5 395.5 c 128,-1,63
 454 406 454 406 457.5 414.5 c 128,-1,64
 461 423 461 423 472 423 c 0,65,66
 497 423 497 423 497 379 c 0,67,68
 497 344 497 344 489.5 310.5 c 128,-1,69
 482 277 482 277 474 260 c 128,-1,70
 466 243 466 243 454 243 c 1,71,-1
 444 247 l 2,72,73
 435 251 435 251 435 254 c 2,74,-1
 435 311 l 1,75,-1
 336 311 l 1,76,-1
 329 298 l 1,77,-1
 329 235 l 2,78,79
 329 108 329 108 336 31 c 0,80,81
 337 25 337 25 347 25 c 2,82,-1
 420 31 l 1,83,84
 448 31 448 31 448 9 c 0,85,86
 448 -18 448 -18 398 -18 c 1,0,1
175 243 m 1,87,-1
 173 152 l 1,88,-1
 173 104 l 1,89,-1
 175 44 l 1,90,-1
 181 31 l 1,91,-1
 211 31 l 2,92,93
 260 31 260 31 287 37 c 1,94,95
 294 40 294 40 294 54 c 2,96,-1
 293 69 l 1,97,-1
 298 261 l 1,98,-1
 292 490 l 1,99,-1
 292 546 l 2,100,101
 292 573 292 573 293 584 c 1,102,-1
 287 596 l 1,103,-1
 199 614 l 1,104,-1
 193 602 l 2,105,106
 192 601 192 601 189.5 549.5 c 128,-1,107
 187 498 187 498 185 459 c 128,-1,108
 183 420 183 420 181 380 c 0,109,110
 178 322 178 322 175 243 c 1,87,-1
618.5 643.5 m 128,-1,112
 616 646 616 646 599.5 646 c 128,-1,113
 583 646 583 646 583 637 c 0,114,115
 583 624 583 624 595 615.5 c 128,-1,116
 607 607 607 607 615 602 c 1,117,118
 621 611 621 611 621 626 c 128,-1,111
 621 641 621 641 618.5 643.5 c 128,-1,112
EndSplineSet
EndChar

StartChar: G
Encoding: 71 71 42
Width: 793
Flags: W
LayerCount: 2
Fore
SplineSet
562 285 m 1,0,-1
 649 281 l 1,1,2
 681 281 681 281 713.5 292.5 c 128,-1,3
 746 304 746 304 766 328 c 1,4,5
 776 328 776 328 784.5 322.5 c 128,-1,6
 793 317 793 317 793 300.5 c 128,-1,7
 793 284 793 284 782 275 c 128,-1,8
 771 266 771 266 757 261.5 c 128,-1,9
 743 257 743 257 729.5 253.5 c 128,-1,10
 716 250 716 250 710.5 238.5 c 128,-1,11
 705 227 705 227 703.5 213.5 c 128,-1,12
 702 200 702 200 701 186 c 128,-1,13
 700 172 700 172 700 159 c 128,-1,14
 700 146 700 146 697 136 c 0,15,16
 654 -63 654 -63 404 -63 c 0,17,18
 276 -63 276 -63 186 30 c 1,19,20
 91 126 91 126 62 302 c 1,21,-1
 8 302 l 2,22,23
 1 302 1 302 1 319 c 1,24,-1
 2 329 l 1,25,26
 5 330 5 330 12.5 333 c 128,-1,27
 20 336 20 336 28 339 c 0,28,29
 52 347 52 347 54.5 348.5 c 128,-1,30
 57 350 57 350 61.5 368 c 128,-1,31
 66 386 66 386 71 409 c 0,32,33
 83 462 83 462 90 487 c 1,34,35
 124 580 124 580 201 636 c 128,-1,36
 278 692 278 692 373 692 c 0,37,38
 402 692 402 692 448 681.5 c 128,-1,39
 494 671 494 671 518.5 666 c 128,-1,40
 543 661 543 661 566.5 661 c 128,-1,41
 590 661 590 661 601.5 666 c 128,-1,42
 613 671 613 671 620.5 676.5 c 128,-1,43
 628 682 628 682 635 687 c 128,-1,44
 642 692 642 692 649 692 c 128,-1,45
 656 692 656 692 660 688 c 2,46,-1
 677 671 l 1,47,-1
 677 527 l 2,48,49
 677 516 677 516 667 511 c 128,-1,50
 657 506 657 506 649 506 c 1,51,52
 614 522 614 522 582 545.5 c 128,-1,53
 550 569 550 569 517.5 591 c 128,-1,54
 485 613 485 613 451 628.5 c 128,-1,55
 417 644 417 644 377 644 c 1,56,-1
 363 643 l 1,57,58
 343 473 343 473 343 387 c 0,59,60
 343 233 343 233 363 129 c 0,61,62
 364 124 364 124 367 103 c 128,-1,63
 370 82 370 82 374 58 c 0,64,65
 383 -5 383 -5 384 -6 c 0,66,67
 391 -17 391 -17 401 -19 c 128,-1,68
 411 -21 411 -21 418 -21 c 128,-1,69
 425 -21 425 -21 438.5 -17.5 c 128,-1,70
 452 -14 452 -14 469 -9 c 0,71,72
 510 3 510 3 534 13 c 1,73,74
 559 30 559 30 577 55 c 128,-1,75
 595 80 595 80 595 104 c 128,-1,76
 595 128 595 128 590 143.5 c 128,-1,77
 585 159 585 159 576.5 173 c 128,-1,78
 568 187 568 187 557 201 c 128,-1,79
 546 215 546 215 534 232 c 1,80,81
 522 232 522 232 497 218 c 128,-1,82
 472 204 472 204 465 204 c 128,-1,83
 458 204 458 204 447.5 214 c 128,-1,84
 437 224 437 224 437 237 c 128,-1,85
 437 250 437 250 452 260 c 128,-1,86
 467 270 467 270 487 276 c 0,87,88
 522 285 522 285 562 285 c 1,0,-1
240 38 m 0,89,90
 261 23 261 23 290 8.5 c 128,-1,91
 319 -6 319 -6 321 -6 c 2,92,-1
 339 -6 l 1,93,94
 325 79 325 79 309 163.5 c 128,-1,95
 293 248 293 248 293 334 c 0,96,97
 293 345 293 345 296 379 c 0,98,99
 301 452 301 452 301 488 c 2,100,-1
 301 562 l 2,101,102
 301 601 301 601 302 616 c 1,103,104
 296 623 296 623 293 623 c 0,105,106
 287 623 287 623 261 610 c 1,107,108
 189 561 189 561 152.5 496.5 c 128,-1,109
 116 432 116 432 116 345 c 128,-1,110
 116 258 116 258 156 164.5 c 128,-1,111
 196 71 196 71 240 38 c 0,89,90
636 116 m 1,112,113
 653 183 653 183 656 204 c 1,114,115
 656 231 656 231 608 239 c 0,116,117
 597 241 597 241 589 241 c 1,118,119
 609 209 609 209 622 179.5 c 128,-1,120
 635 150 635 150 636 116 c 1,112,113
543 620 m 1,121,122
 548 616 548 616 578 600 c 0,123,124
 631 571 631 571 644 558 c 1,125,-1
 644 627 l 1,126,127
 641 626 641 626 631.5 625.5 c 128,-1,128
 622 625 622 625 608 624 c 128,-1,129
 594 623 594 623 577 622 c 128,-1,130
 560 621 560 621 543 620 c 1,121,122
EndSplineSet
EndChar

StartChar: H
Encoding: 72 72 43
Width: 895
Flags: W
LayerCount: 2
Fore
SplineSet
162 -7 m 1,0,-1
 95 -8 l 2,1,2
 70 -8 70 -8 48 -6 c 1,3,4
 39 -2 39 -2 36.5 1.5 c 128,-1,5
 34 5 34 5 34 12 c 2,6,-1
 36 26 l 2,7,8
 39 40 39 40 41 40 c 2,9,-1
 167 40 l 1,10,-1
 173 181 l 1,11,12
 173 286 173 286 149 286 c 0,13,14
 130 286 130 286 113.5 276 c 128,-1,15
 97 266 97 266 83 266 c 0,16,17
 59 266 59 266 59 287 c 0,18,19
 59 293 59 293 59.5 297 c 128,-1,20
 60 301 60 301 66 304 c 2,21,-1
 153 341 l 1,22,-1
 153 378 l 1,23,-1
 116 577 l 1,24,-1
 41 577 l 1,25,26
 29 605 29 605 29 610 c 0,27,28
 29 623 29 623 43 625 c 128,-1,29
 57 627 57 627 75 627 c 2,30,-1
 103 626 l 1,31,32
 107 637 107 637 112 641.5 c 128,-1,33
 117 646 117 646 128 646 c 256,34,35
 139 646 139 646 146.5 641.5 c 128,-1,36
 154 637 154 637 189.5 637 c 128,-1,37
 225 637 225 637 285 647.5 c 128,-1,38
 345 658 345 658 406 658 c 0,39,40
 439 658 439 658 439 635 c 0,41,42
 439 618 439 618 431 613.5 c 128,-1,43
 423 609 423 609 412 609 c 2,44,-1
 387 610 l 2,45,46
 373 610 373 610 362 603.5 c 128,-1,47
 351 597 351 597 351 576.5 c 128,-1,48
 351 556 351 556 352 545 c 128,-1,49
 353 534 353 534 354 522 c 0,50,51
 358 494 358 494 358 455 c 2,52,-1
 357 396 l 1,53,-1
 364 384 l 1,54,-1
 469 384 l 1,55,-1
 699 337 l 1,56,-1
 699 577 l 2,57,58
 699 581 699 581 695 590 c 0,59,60
 687 607 687 607 680 607 c 2,61,-1
 581 607 l 2,62,63
 574 607 574 607 574 622 c 0,64,65
 574 657 574 657 731 657 c 0,66,67
 756 657 756 657 774.5 658 c 128,-1,68
 793 659 793 659 805 658 c 1,69,70
 829 658 829 658 829 641 c 0,71,72
 829 622 829 622 811.5 617 c 128,-1,73
 794 612 794 612 782 612 c 2,74,-1
 761 612 l 2,75,76
 753 612 753 612 749 613 c 1,77,-1
 742 607 l 1,78,-1
 736 350 l 1,79,80
 746 350 746 350 749.5 348 c 128,-1,81
 753 346 753 346 756 346 c 256,82,83
 759 346 759 346 794 383 c 0,84,85
 859 453 859 453 866 453 c 128,-1,86
 873 453 873 453 879 447 c 128,-1,87
 885 441 885 441 885 426.5 c 128,-1,88
 885 412 885 412 868 389.5 c 128,-1,89
 851 367 851 367 827 348 c 0,90,91
 782 311 782 311 736 291 c 1,92,93
 736 258 736 258 736.5 228.5 c 128,-1,94
 737 199 737 199 738 170 c 0,95,96
 739 102 739 102 742 43 c 1,97,98
 750 39 750 39 762.5 36.5 c 128,-1,99
 775 34 775 34 787 30 c 0,100,101
 817 22 817 22 817 3 c 0,102,103
 817 -20 817 -20 783 -20 c 128,-1,104
 749 -20 749 -20 712 -12.5 c 128,-1,105
 675 -5 675 -5 637 -5 c 1,106,-1
 618 -6 l 1,107,108
 611 -5 611 -5 611 13 c 0,109,110
 611 45 611 45 665 45 c 0,111,112
 682 45 682 45 692 43 c 1,113,-1
 699 74 l 1,114,-1
 699 285 l 1,115,-1
 469 335 l 1,116,-1
 420 336 l 2,117,118
 376 336 376 336 364 316 c 1,119,-1
 357 114 l 1,120,-1
 357 93 l 2,121,122
 357 37 357 37 364 30 c 1,123,-1
 394 30 l 2,124,125
 464 30 464 30 464 3 c 0,126,127
 464 -12 464 -12 425 -25 c 1,128,129
 412 -25 412 -25 403.5 -21.5 c 128,-1,130
 395 -18 395 -18 384 -18 c 128,-1,131
 373 -18 373 -18 367 -20 c 128,-1,132
 361 -22 361 -22 356 -25 c 0,133,134
 344 -32 344 -32 336 -32 c 2,135,-1
 334 -32 l 2,136,137
 333 -32 333 -32 332 -31 c 0,138,139
 284 -7 284 -7 162 -7 c 1,0,-1
326 297 m 1,140,141
 326 384 326 384 320 487.5 c 128,-1,142
 314 591 314 591 311.5 598 c 128,-1,143
 309 605 309 605 307 607 c 1,144,145
 215 607 215 607 171 590 c 0,146,147
 159 586 159 586 159 582 c 2,148,-1
 208 198 l 1,149,-1
 208 118 l 2,150,151
 208 85 208 85 212 64 c 2,152,-1
 215 43 l 1,153,-1
 221 37 l 1,154,-1
 307 37 l 2,155,156
 311 37 311 37 313 72.5 c 128,-1,157
 315 108 315 108 314 136 c 1,158,-1
 326 297 l 1,140,141
EndSplineSet
EndChar

StartChar: I
Encoding: 73 73 44
Width: 457
Flags: W
LayerCount: 2
Fore
SplineSet
324 -34 m 1,0,-1
 274 -36 l 1,1,-1
 255 -36 l 2,2,3
 226 -36 226 -36 210 -34 c 0,4,5
 173 -28 173 -28 152 -28 c 2,6,-1
 68 -28 l 2,7,8
 51 -28 51 -28 43.5 -23 c 128,-1,9
 36 -18 36 -18 35 -2 c 128,-1,10
 34 14 34 14 48 16 c 128,-1,11
 62 18 62 18 79 16.5 c 128,-1,12
 96 15 96 15 112 15 c 128,-1,13
 128 15 128 15 133 24 c 1,14,-1
 135 164 l 1,15,-1
 137 272 l 2,16,17
 137 283 137 283 136 287 c 1,18,19
 130 285 130 285 123 285 c 128,-1,20
 116 285 116 285 107 297.5 c 128,-1,21
 98 310 98 310 98 320 c 128,-1,22
 98 330 98 330 104 333.5 c 128,-1,23
 110 337 110 337 117 339 c 128,-1,24
 124 341 124 341 130 343 c 128,-1,25
 136 345 136 345 136 350 c 0,26,27
 133 380 133 380 132.5 415.5 c 128,-1,28
 132 451 132 451 131 487.5 c 128,-1,29
 130 524 130 524 129.5 560 c 128,-1,30
 129 596 129 596 126 627 c 1,31,32
 119 634 119 634 117 634 c 2,33,-1
 79 634 l 2,34,35
 66 634 66 634 53 634.5 c 128,-1,36
 40 635 40 635 33 643.5 c 128,-1,37
 26 652 26 652 26 660 c 128,-1,38
 26 668 26 668 26.5 672 c 128,-1,39
 27 676 27 676 33 679 c 1,40,-1
 132 684 l 1,41,42
 150 682 150 682 167 682 c 2,43,-1
 345 686 l 1,44,-1
 359 686 l 1,45,-1
 402 685 l 1,46,-1
 416 685 l 1,47,48
 423 682 423 682 423 664.5 c 128,-1,49
 423 647 423 647 413 640.5 c 128,-1,50
 403 634 403 634 376 634 c 1,51,-1
 328 636 l 1,52,53
 328 540 328 540 323.5 440 c 128,-1,54
 319 340 319 340 319 217.5 c 128,-1,55
 319 95 319 95 330 12 c 1,56,-1
 398 7 l 1,57,58
 419 7 419 7 420 -16 c 1,59,60
 416 -25 416 -25 407 -27 c 1,61,-1
 324 -34 l 1,0,-1
287 521 m 1,62,63
 287 636 287 636 265 636 c 0,64,65
 245 636 245 636 228 636 c 0,66,67
 194 636 194 636 176 634 c 1,68,69
 170 632 170 632 170 623 c 0,70,71
 170 589 170 589 170.5 530.5 c 128,-1,72
 171 472 171 472 171.5 404.5 c 128,-1,73
 172 337 172 337 173 267 c 128,-1,74
 174 197 174 197 176 140 c 0,75,76
 179 12 179 12 182 12 c 2,77,-1
 274 12 l 1,78,-1
 280 18 l 1,79,-1
 281 43 l 1,80,-1
 281 52 l 1,81,-1
 280 74 l 1,82,-1
 280 80 l 1,83,-1
 287 521 l 1,62,63
EndSplineSet
EndChar

StartChar: J
Encoding: 74 74 45
Width: 646
Flags: W
LayerCount: 2
Fore
SplineSet
412 670 m 2,0,-1
 521 676 l 1,1,2
 547 676 547 676 555.5 648 c 128,-1,3
 564 620 564 620 564 586 c 2,4,-1
 564 508 l 2,5,6
 564 324 564 324 541 220 c 128,-1,7
 518 116 518 116 482.5 56 c 128,-1,8
 447 -4 447 -4 404 -38 c 1,9,10
 329 -95 329 -95 210 -95 c 0,11,12
 19 -95 19 -95 19 109 c 0,13,14
 19 170 19 170 36 192 c 1,15,16
 44 204 44 204 57 204 c 128,-1,17
 70 204 70 204 78.5 199.5 c 128,-1,18
 87 195 87 195 95 188 c 128,-1,19
 103 181 103 181 112 172 c 128,-1,20
 121 163 121 163 132.5 154.5 c 128,-1,21
 144 146 144 146 153 142 c 128,-1,22
 162 138 162 138 167 135 c 0,23,24
 177 129 177 129 177 115 c 128,-1,25
 177 101 177 101 173.5 84.5 c 128,-1,26
 170 68 170 68 165.5 53 c 128,-1,27
 161 38 161 38 156.5 26.5 c 128,-1,28
 152 15 152 15 151.5 10 c 128,-1,29
 151 5 151 5 151.5 -4.5 c 128,-1,30
 152 -14 152 -14 154 -23 c 0,31,32
 157 -45 157 -45 174 -45 c 0,33,34
 259 -45 259 -45 299 -13 c 1,35,36
 312 40 312 40 312 128 c 128,-1,37
 312 216 312 216 314.5 279.5 c 128,-1,38
 317 343 317 343 319 395.5 c 128,-1,39
 321 448 321 448 323 496.5 c 128,-1,40
 325 545 325 545 325 605 c 1,41,-1
 324 619 l 1,42,-1
 324 627 l 1,43,-1
 299 633 l 1,44,-1
 200 621 l 2,45,46
 175 617 175 617 157 597 c 0,47,48
 125 563 125 563 125 534.5 c 128,-1,49
 125 506 125 506 140.5 497 c 128,-1,50
 156 488 156 488 175 485.5 c 128,-1,51
 194 483 194 483 209.5 481 c 128,-1,52
 225 479 225 479 225 468 c 0,53,54
 225 454 225 454 205.5 444 c 128,-1,55
 186 434 186 434 166.5 434 c 128,-1,56
 147 434 147 434 130 445 c 128,-1,57
 113 456 113 456 100 472 c 1,58,59
 71 504 71 504 71 533 c 0,60,61
 71 565 71 565 104 609 c 1,62,63
 136 650 136 650 202 671 c 0,64,65
 238 682 238 682 274 682 c 128,-1,66
 310 682 310 682 325.5 680 c 128,-1,67
 341 678 341 678 354.5 676 c 128,-1,68
 368 674 368 674 381 672 c 128,-1,69
 394 670 394 670 412 670 c 2,0,-1
70 107 m 1,70,-1
 71 96 l 2,71,72
 76 51 76 51 82 25.5 c 128,-1,73
 88 0 88 0 109 -16 c 1,74,75
 109 62 109 62 123 107 c 1,76,77
 120 110 120 110 113.5 114 c 128,-1,78
 107 118 107 118 100 122 c 0,79,80
 84 133 84 133 80 133 c 0,81,82
 70 133 70 133 70 107 c 1,70,-1
512 574 m 1,83,-1
 511 608 l 1,84,-1
 505 614 l 2,85,86
 503 616 503 616 481.5 618.5 c 128,-1,87
 460 621 460 621 455 621 c 256,88,89
 450 621 450 621 438.5 620 c 128,-1,90
 427 619 427 619 414 618 c 0,91,92
 379 615 379 615 374 614 c 1,93,94
 374 284 374 284 344 -12 c 1,95,96
 404 6 404 6 448 90.5 c 128,-1,97
 492 175 492 175 498 266 c 1,98,99
 513 453 513 453 513 532 c 1,100,-1
 512 574 l 1,83,-1
EndSplineSet
EndChar

StartChar: K
Encoding: 75 75 46
Width: 827
Flags: W
LayerCount: 2
Fore
SplineSet
636 -17 m 1,0,1
 606 -17 606 -17 606 0 c 128,-1,2
 606 17 606 17 616 24.5 c 128,-1,3
 626 32 626 32 637.5 35.5 c 128,-1,4
 649 39 649 39 659 41.5 c 128,-1,5
 669 44 669 44 669 52.5 c 128,-1,6
 669 61 669 61 665 63.5 c 128,-1,7
 661 66 661 66 647.5 82 c 128,-1,8
 634 98 634 98 612 129.5 c 128,-1,9
 590 161 590 161 564 190 c 0,10,11
 503 260 503 260 447 260 c 128,-1,12
 391 260 391 260 372 228 c 1,13,14
 368 195 368 195 368 150.5 c 128,-1,15
 368 106 368 106 371.5 85.5 c 128,-1,16
 375 65 375 65 387 46 c 1,17,-1
 451 60 l 2,18,19
 454 60 454 60 460.5 51 c 128,-1,20
 467 42 467 42 467 34.5 c 128,-1,21
 467 27 467 27 459 20.5 c 128,-1,22
 451 14 451 14 440 10 c 0,23,24
 422 2 422 2 401 2 c 2,25,-1
 60 2 l 1,26,27
 60 26 60 26 68 33 c 0,28,29
 77 42 77 42 93.5 45 c 128,-1,30
 110 48 110 48 122.5 54.5 c 128,-1,31
 135 61 135 61 146 62 c 1,32,-1
 147 93 l 1,33,34
 147 143 147 143 141.5 187 c 128,-1,35
 136 231 136 231 130 288 c 1,36,-1
 90 288 l 1,37,38
 90 305 90 305 100 319.5 c 128,-1,39
 110 334 110 334 130 334 c 1,40,-1
 130 616 l 1,41,42
 122 614 122 614 101 610 c 2,43,-1
 47 600 l 1,44,45
 23 600 23 600 23 631 c 1,46,-1
 24 646 l 1,47,48
 77 666 77 666 169 675 c 0,49,50
 190 677 190 677 200 677 c 2,51,-1
 294 676 l 1,52,-1
 402 675 l 1,53,-1
 416 675 l 2,54,55
 422 675 422 675 430 676 c 0,56,57
 455 677 455 677 455 653 c 0,58,59
 455 644 455 644 432.5 638.5 c 128,-1,60
 410 633 410 633 399 628.5 c 128,-1,61
 388 624 388 624 387 616 c 0,62,63
 371 547 371 547 371 371 c 2,64,-1
 371 360 l 1,65,-1
 372 329 l 1,66,-1
 372 319 l 1,67,68
 393 335 393 335 452 389.5 c 128,-1,69
 511 444 511 444 551.5 481.5 c 128,-1,70
 592 519 592 519 628 552 c 0,71,72
 708 626 708 626 728 640 c 128,-1,73
 748 654 748 654 755.5 656.5 c 128,-1,74
 763 659 763 659 775.5 659 c 128,-1,75
 788 659 788 659 795.5 658 c 128,-1,76
 803 657 803 657 807 643 c 1,77,78
 781 609 781 609 736 567 c 128,-1,79
 691 525 691 525 642.5 481 c 128,-1,80
 594 437 594 437 549 395 c 128,-1,81
 504 353 504 353 478 319 c 1,82,83
 541 293 541 293 613 210 c 0,84,85
 643 176 643 176 671 140.5 c 128,-1,86
 699 105 699 105 725.5 78.5 c 128,-1,87
 752 52 752 52 775 44.5 c 128,-1,88
 798 37 798 37 831 37 c 1,89,90
 831 8 831 8 752 -6 c 0,91,92
 698 -16 698 -16 650 -16 c 1,93,-1
 636 -17 l 1,0,1
190 616 m 1,94,-1
 175 243 l 1,95,-1
 175 228 l 1,96,97
 180 181 180 181 183 150 c 0,98,99
 188 80 188 80 190 62 c 1,100,101
 218 41 218 41 322 41 c 1,102,103
 322 185 322 185 330 340.5 c 128,-1,104
 338 496 338 496 341 571 c 2,105,-1
 342 594 l 1,106,-1
 342 616 l 1,107,-1
 190 616 l 1,94,-1
EndSplineSet
EndChar

StartChar: L
Encoding: 76 76 47
Width: 751
Flags: W
LayerCount: 2
Fore
SplineSet
433 -2 m 1,0,1
 306 -19 306 -19 171 -19 c 0,2,3
 136 -19 136 -19 107.5 -17 c 128,-1,4
 79 -15 79 -15 54 -7.5 c 128,-1,5
 29 0 29 0 26 7 c 128,-1,6
 23 14 23 14 23 39 c 1,7,-1
 129 39 l 1,8,-1
 128 116 l 1,9,-1
 128 146 l 2,10,11
 128 160 128 160 130 171 c 1,12,-1
 126 291 l 1,13,14
 91 297 91 297 84.5 301.5 c 128,-1,15
 78 306 78 306 78 313.5 c 128,-1,16
 78 321 78 321 84 328.5 c 128,-1,17
 90 336 90 336 98 344 c 0,18,19
 120 366 120 366 121.5 374 c 128,-1,20
 123 382 123 382 127 408.5 c 128,-1,21
 131 435 131 435 135 467 c 2,22,-1
 142 527 l 2,23,24
 146 555 146 555 146 562 c 2,25,-1
 144 625 l 1,26,-1
 65 620 l 1,27,28
 44 620 44 620 44 642 c 0,29,30
 44 647 44 647 60 653 c 0,31,32
 85 663 85 663 97 663 c 2,33,-1
 119 662 l 1,34,-1
 420 676 l 1,35,36
 463 676 463 676 463 655 c 256,37,38
 463 634 463 634 434 630 c 0,39,40
 385 624 385 624 375 619 c 1,41,42
 371 608 371 608 368 602 c 0,43,44
 360 578 360 578 358 559 c 128,-1,45
 356 540 356 540 353.5 517.5 c 128,-1,46
 351 495 351 495 348.5 469.5 c 128,-1,47
 346 444 346 444 343.5 421.5 c 128,-1,48
 341 399 341 399 339.5 383 c 128,-1,49
 338 367 338 367 335 351 c 0,50,51
 329 319 329 319 329 224 c 2,52,-1
 330 104 l 2,53,54
 330 79 330 79 336.5 64.5 c 128,-1,55
 343 50 343 50 374 50 c 1,56,-1
 447 45 l 1,57,58
 471 45 471 45 483 50.5 c 128,-1,59
 495 56 495 56 507 61.5 c 128,-1,60
 519 67 519 67 532 74 c 0,61,62
 564 92 564 92 572.5 100 c 128,-1,63
 581 108 581 108 600.5 128.5 c 128,-1,64
 620 149 620 149 642 172 c 0,65,66
 695 229 695 229 709 245 c 1,67,68
 739 234 739 234 739 183 c 0,69,70
 739 145 739 145 725.5 96 c 128,-1,71
 712 47 712 47 703 28 c 0,72,73
 682 -16 682 -16 659 -16 c 0,74,75
 612 -16 612 -16 566.5 -8.5 c 128,-1,76
 521 -1 521 -1 495 -1 c 2,77,-1
 462 -1 l 1,78,-1
 438 -2 l 1,79,-1
 433 -2 l 1,0,1
171 72 m 1,80,-1
 172 39 l 1,81,82
 177 30 177 30 181 27.5 c 128,-1,83
 185 25 185 25 193 25 c 1,84,-1
 274 39 l 1,85,86
 276 41 276 41 280 53 c 2,87,-1
 285 72 l 1,88,89
 304 137 304 137 314 490 c 0,90,91
 317 571 317 571 317 604 c 2,92,-1
 317 620 l 1,93,-1
 205 620 l 1,94,-1
 190 590 l 2,95,96
 187 583 187 583 181 470 c 128,-1,97
 175 357 175 357 172 311 c 0,98,99
 167 208 167 208 165 188.5 c 128,-1,100
 163 169 163 169 164 161 c 128,-1,101
 165 153 165 153 166.5 142.5 c 128,-1,102
 168 132 168 132 169.5 121.5 c 128,-1,103
 171 111 171 111 171 106 c 2,104,-1
 171 72 l 1,80,-1
551 42 m 1,105,106
 566 39 566 39 610.5 39 c 128,-1,107
 655 39 655 39 669 68 c 128,-1,108
 683 97 683 97 683 154 c 1,109,110
 672 142 672 142 658 126.5 c 128,-1,111
 644 111 644 111 628 95 c 0,112,113
 589 57 589 57 551 42 c 1,105,106
EndSplineSet
EndChar

StartChar: M
Encoding: 77 77 48
Width: 1123
Flags: W
LayerCount: 2
Fore
SplineSet
223.5 469 m 128,-1,1
 235 516 235 516 235 547 c 128,-1,2
 235 578 235 578 230 608 c 1,3,-1
 165 602 l 1,4,5
 136 602 136 602 124.5 611 c 128,-1,6
 113 620 113 620 113 632 c 128,-1,7
 113 644 113 644 132 654 c 1,8,9
 241 669 241 669 321.5 670 c 128,-1,10
 402 671 402 671 463 671 c 1,11,12
 466 610 466 610 524 387 c 0,13,14
 539 327 539 327 553 278 c 1,15,-1
 561 276 l 1,16,17
 590 276 590 276 656 459 c 0,18,19
 667 491 667 491 676.5 518 c 128,-1,20
 686 545 686 545 689 553 c 128,-1,21
 692 561 692 561 692 568 c 2,22,-1
 691 603 l 1,23,-1
 691 620 l 2,24,25
 691 623 691 623 694.5 634.5 c 128,-1,26
 698 646 698 646 709 646 c 1,27,-1
 908 680 l 1,28,29
 957 680 957 680 957 654 c 0,30,31
 957 638 957 638 946.5 633 c 128,-1,32
 936 628 936 628 923 625 c 128,-1,33
 910 622 910 622 899.5 617 c 128,-1,34
 889 612 889 612 889 597 c 128,-1,35
 889 582 889 582 896 548 c 128,-1,36
 903 514 903 514 913 478 c 0,37,38
 938 389 938 389 955 379 c 0,39,40
 961 376 961 376 970.5 373.5 c 128,-1,41
 980 371 980 371 989 368 c 0,42,43
 1010 363 1010 363 1010 355 c 0,44,45
 1010 343 1010 343 1004 337 c 128,-1,46
 998 331 998 331 991 325 c 0,47,48
 972 309 972 309 972 287 c 2,49,-1
 972 261 l 1,50,-1
 979 240 l 2,51,52
 985 222 985 222 993.5 200 c 128,-1,53
 1002 178 1002 178 1010 155.5 c 128,-1,54
 1018 133 1018 133 1025 114.5 c 128,-1,55
 1032 96 1032 96 1040.5 81.5 c 128,-1,56
 1049 67 1049 67 1060 59 c 0,57,58
 1076 48 1076 48 1129 37 c 1,59,-1
 1130 26 l 2,60,61
 1130 21 1130 21 1126.5 11.5 c 128,-1,62
 1123 2 1123 2 1113 2 c 2,63,-1
 891 2 l 1,64,-1
 842 54 l 1,65,-1
 727 465 l 1,66,-1
 709 450 l 1,67,68
 651 311 651 311 614.5 239.5 c 128,-1,69
 578 168 578 168 570.5 156 c 128,-1,70
 563 144 563 144 550.5 126.5 c 128,-1,71
 538 109 538 109 524 92 c 0,72,73
 489 53 489 53 463 53 c 128,-1,74
 437 53 437 53 426 68 c 128,-1,75
 415 83 415 83 406 106 c 0,76,77
 369 205 369 205 333 306.5 c 128,-1,78
 297 408 297 408 278 510 c 1,79,80
 271 490 271 490 254.5 425 c 128,-1,81
 238 360 238 360 226.5 316 c 128,-1,82
 215 272 215 272 204 231 c 0,83,84
 177 136 177 136 167.5 118.5 c 128,-1,85
 158 101 158 101 155.5 93.5 c 128,-1,86
 153 86 153 86 151 78 c 0,87,88
 147 64 147 64 147 54.5 c 128,-1,89
 147 45 147 45 155 37 c 1,90,-1
 229 37 l 1,91,92
 228 34 228 34 227 27 c 128,-1,93
 226 20 226 20 222 13 c 0,94,95
 210 -5 210 -5 183 -5 c 2,96,-1
 -11 -5 l 1,97,98
 -11 16 -11 16 -1.5 24 c 128,-1,99
 8 32 8 32 21 35.5 c 128,-1,100
 34 39 34 39 47.5 43 c 128,-1,101
 61 47 61 47 70 62 c 1,102,103
 76 75 76 75 85.5 93 c 128,-1,104
 95 111 95 111 104 128 c 0,105,106
 123 167 123 167 131.5 196.5 c 128,-1,107
 140 226 140 226 159 275.5 c 128,-1,108
 178 325 178 325 195 373.5 c 128,-1,0
 212 422 212 422 223.5 469 c 128,-1,1
1010 46 m 1,109,-1
 976 88 l 1,110,111
 966 127 966 127 953 180.5 c 128,-1,112
 940 234 940 234 925.5 292 c 128,-1,113
 911 350 911 350 896 406 c 128,-1,114
 881 462 881 462 867 507 c 0,115,116
 836 607 836 607 819 607 c 0,117,118
 790 607 790 607 774 598.5 c 128,-1,119
 758 590 758 590 750 563 c 1,120,121
 750 545 750 545 762 504 c 2,122,-1
 780 438 l 2,123,124
 786 415 786 415 790 396 c 1,125,126
 813 315 813 315 835 236 c 128,-1,127
 857 157 857 157 887 79 c 1,128,129
 903 42 903 42 932 39 c 0,130,131
 941 38 941 38 954.5 38 c 128,-1,132
 968 38 968 38 984 42 c 128,-1,133
 1000 46 1000 46 1010 46 c 1,109,-1
413 620 m 1,134,-1
 392 621 l 2,135,136
 382 621 382 621 369.5 621 c 128,-1,137
 357 621 357 621 346 620.5 c 128,-1,138
 335 620 335 620 328 616 c 0,139,140
 313 607 313 607 313 576 c 2,141,-1
 313 562 l 2,142,143
 313 553 313 553 314 552 c 2,144,-1
 437 139 l 2,145,146
 439 129 439 129 447.5 125 c 128,-1,147
 456 121 456 121 462 121 c 2,148,-1
 472 121 l 1,149,150
 486 135 486 135 507 170 c 128,-1,151
 528 205 528 205 528 207 c 0,152,153
 516 237 516 237 490 337 c 0,154,155
 438 538 438 538 413 620 c 1,134,-1
EndSplineSet
EndChar

StartChar: N
Encoding: 78 78 49
Width: 816
Flags: W
LayerCount: 2
Fore
SplineSet
232.5 43 m 128,-1,1
 243 38 243 38 243 20 c 128,-1,2
 243 2 243 2 230 2 c 2,3,-1
 69 4 l 2,4,5
 57 4 57 4 54 14.5 c 128,-1,6
 51 25 51 25 50.5 35.5 c 128,-1,7
 50 46 50 46 57 50.5 c 128,-1,8
 64 55 64 55 73.5 57.5 c 128,-1,9
 83 60 83 60 92.5 64 c 128,-1,10
 102 68 102 68 106 80 c 1,11,12
 128 215 128 215 138 453 c 0,13,14
 140 516 140 516 140 545 c 2,15,-1
 140 586 l 2,16,17
 140 598 140 598 138 610 c 1,18,19
 77 610 77 610 68 623 c 0,20,21
 57 640 57 640 57 663 c 1,22,23
 165 673 165 673 262 677.5 c 128,-1,24
 359 682 359 682 378 682 c 0,25,26
 448 682 448 682 448 657 c 0,27,28
 448 646 448 646 427 635 c 128,-1,29
 406 624 406 624 406 615.5 c 128,-1,30
 406 607 406 607 419.5 582.5 c 128,-1,31
 433 558 433 558 452 529 c 0,32,33
 492 465 492 465 517 433 c 1,34,35
 519 435 519 435 524 435 c 0,36,37
 555 435 555 435 573 453 c 1,38,39
 576 447 576 447 576 435.5 c 128,-1,40
 576 424 576 424 572 418.5 c 128,-1,41
 568 413 568 413 562 406 c 0,42,43
 549 391 549 391 549 377 c 128,-1,44
 549 363 549 363 551 363 c 1,45,46
 555 351 555 351 573 315 c 2,47,-1
 604 254 l 2,48,49
 616 229 616 229 627.5 207 c 128,-1,50
 639 185 639 185 647.5 168 c 128,-1,51
 656 151 656 151 659 146 c 1,52,53
 668 186 668 186 668 268.5 c 128,-1,54
 668 351 668 351 665 410.5 c 128,-1,55
 662 470 662 470 658 518 c 0,56,57
 650 628 650 628 644 628 c 2,58,-1
 550 620 l 1,59,60
 550 649 550 649 560 660 c 128,-1,61
 570 671 570 671 578.5 672 c 128,-1,62
 587 673 587 673 599.5 674.5 c 128,-1,63
 612 676 612 676 625.5 677.5 c 128,-1,64
 639 679 639 679 650 680 c 0,65,66
 690 686 690 686 726 686 c 0,67,68
 780 686 780 686 783 677 c 1,69,-1
 785 654 l 1,70,71
 775 653 775 653 759.5 648.5 c 128,-1,72
 744 644 744 644 733 642 c 1,73,74
 730 640 730 640 719 633.5 c 128,-1,75
 708 627 708 627 705 625 c 1,76,77
 704 617 704 617 703 598 c 128,-1,78
 702 579 702 579 700 558 c 0,79,80
 697 507 697 507 697 493 c 2,81,-1
 697 477 l 1,82,83
 700 233 700 233 705 160 c 128,-1,84
 710 87 710 87 710 76 c 0,85,86
 706 9 706 9 500 0 c 0,87,88
 480 0 480 0 470.5 7.5 c 128,-1,89
 461 15 461 15 461 33.5 c 128,-1,90
 461 52 461 52 463 56 c 1,91,-1
 340 266 l 1,92,-1
 276 261 l 1,93,94
 276 265 276 265 276.5 270.5 c 128,-1,95
 277 276 277 276 281.5 286.5 c 128,-1,96
 286 297 286 297 296 304 c 128,-1,97
 306 311 306 311 306 328.5 c 128,-1,98
 306 346 306 346 292.5 376.5 c 128,-1,99
 279 407 279 407 260 440 c 0,100,101
 222 510 222 510 185 552 c 1,102,103
 180 544 180 544 180 527 c 2,104,-1
 180 509 l 2,105,106
 180 461 180 461 174 366 c 0,107,108
 161 182 161 182 161 141 c 0,109,110
 161 62 161 62 167 55 c 0,111,112
 171 50 171 50 183 50 c 128,-1,113
 195 50 195 50 208.5 49 c 128,-1,0
 222 48 222 48 232.5 43 c 128,-1,1
230 627 m 2,114,115
 197 627 197 627 197 610 c 0,116,117
 197 603 197 603 205.5 591.5 c 128,-1,118
 214 580 214 580 227 563 c 0,119,120
 270 507 270 507 279.5 489.5 c 128,-1,121
 289 472 289 472 302.5 446.5 c 128,-1,122
 316 421 316 421 335 384 c 128,-1,123
 354 347 354 347 375.5 305 c 128,-1,124
 397 263 397 263 417 224 c 0,125,126
 468 124 468 124 478 102.5 c 128,-1,127
 488 81 488 81 496 72 c 0,128,129
 517 49 517 49 548 49 c 0,130,131
 549 49 549 49 560.5 51.5 c 128,-1,132
 572 54 572 54 587 57 c 0,133,134
 624 64 624 64 637 71 c 1,135,136
 637 116 637 116 552 287 c 0,137,138
 528 334 528 334 493.5 394 c 128,-1,139
 459 454 459 454 365 585 c 1,140,141
 335 623 335 623 278 626 c 0,142,143
 260 627 260 627 249 627 c 2,144,-1
 230 627 l 2,114,115
EndSplineSet
EndChar

StartChar: O
Encoding: 79 79 50
Width: 780
Flags: W
LayerCount: 2
Fore
SplineSet
512.5 -2 m 128,-1,1
 443 -29 443 -29 367.5 -29 c 128,-1,2
 292 -29 292 -29 234 -3 c 128,-1,3
 176 23 176 23 132.5 65.5 c 128,-1,4
 89 108 89 108 64.5 163 c 128,-1,5
 40 218 40 218 40 268.5 c 128,-1,6
 40 319 40 319 47.5 366.5 c 128,-1,7
 55 414 55 414 72 460 c 0,8,9
 130 626 130 626 264 676 c 0,10,11
 316 696 316 696 378 696 c 0,12,13
 572 696 572 696 665 586 c 0,14,15
 739 498 739 498 739 363 c 0,16,17
 739 182 739 182 632 76 c 1,18,0
 582 25 582 25 512.5 -2 c 128,-1,1
243 356 m 0,19,20
 240 317 240 317 240 286 c 128,-1,21
 240 255 240 255 247.5 219.5 c 128,-1,22
 255 184 255 184 268 148 c 0,23,24
 292 77 292 77 337 13 c 1,25,26
 343 -1 343 -1 406 8 c 0,27,28
 480 19 480 19 496 74 c 1,29,30
 507 116 507 116 517.5 145.5 c 128,-1,31
 528 175 528 175 536 201 c 0,32,33
 554 260 554 260 554 302 c 128,-1,34
 554 344 554 344 551 377 c 128,-1,35
 548 410 548 410 541 446.5 c 128,-1,36
 534 483 534 483 522.5 520 c 128,-1,37
 511 557 511 557 494 586 c 0,38,39
 454 653 454 653 399 653 c 0,40,41
 341 653 341 653 301 584 c 0,42,43
 255 506 255 506 243 356 c 0,19,20
274 28 m 1,44,-1
 275 32 l 1,45,46
 190 197 190 197 190 304 c 0,47,48
 190 418 190 418 269 630 c 1,49,50
 142 607 142 607 104 405 c 0,51,52
 93 343 93 343 93 302 c 128,-1,53
 93 261 93 261 103.5 217 c 128,-1,54
 114 173 114 173 136 132 c 1,55,56
 190 37 190 37 274 28 c 1,44,-1
508 642 m 1,57,58
 602 529 602 529 602 337 c 0,59,60
 602 264 602 264 548 106 c 0,61,62
 535 68 535 68 526 40 c 1,63,64
 609 86 609 86 651 172.5 c 128,-1,65
 693 259 693 259 693 378 c 0,66,67
 693 459 693 459 638 536 c 0,68,69
 587 608 587 608 508 642 c 1,57,58
EndSplineSet
EndChar

StartChar: P
Encoding: 80 80 51
Width: 644
Flags: W
LayerCount: 2
Fore
SplineSet
73 -12 m 2,0,1
 61 -12 61 -12 61 7 c 128,-1,2
 61 26 61 26 80 26 c 1,3,4
 80 26 80 26 137 21 c 1,5,-1
 137 357 l 1,6,-1
 105 353 l 1,7,8
 85 353 85 353 85 372 c 0,9,10
 85 379 85 379 106.5 384.5 c 128,-1,11
 128 390 128 390 133 390 c 1,12,13
 133 572 133 572 96 628 c 0,14,15
 86 643 86 643 72 643 c 2,16,-1
 43 641 l 1,17,18
 22 641 22 641 22 660 c 0,19,20
 22 673 22 673 36 679 c 1,21,22
 80 682 80 682 118 682 c 2,23,-1
 207 682 l 2,24,25
 454 682 454 682 568 602 c 0,26,27
 629 559 629 559 629 479 c 0,28,29
 629 419 629 419 595 369 c 0,30,31
 580 347 580 347 552 327.5 c 128,-1,32
 524 308 524 308 488.5 297.5 c 128,-1,33
 453 287 453 287 419 283 c 0,34,35
 377 278 377 278 313 278 c 1,36,-1
 313 38 l 1,37,-1
 325 26 l 1,38,39
 330 27 330 27 342 27 c 2,40,-1
 369 27 l 2,41,42
 409 27 409 27 420 24 c 0,43,44
 437 19 437 19 451 1 c 1,45,-1
 438 -12 l 1,46,-1
 73 -12 l 2,0,1
148 642 m 1,47,48
 148 623 148 623 150 617 c 1,49,50
 150 587 150 587 155.5 511.5 c 128,-1,51
 161 436 161 436 162 426 c 128,-1,52
 163 416 163 416 164 386 c 128,-1,53
 165 356 165 356 166 316.5 c 128,-1,54
 167 277 167 277 168.5 233 c 128,-1,55
 170 189 170 189 172 150 c 0,56,57
 174 85 174 85 174 38 c 1,58,59
 176 38 176 38 187 36 c 128,-1,60
 198 34 198 34 211 32 c 128,-1,61
 224 30 224 30 234.5 28.5 c 128,-1,62
 245 27 245 27 251.5 26.5 c 128,-1,63
 258 26 258 26 264 36 c 128,-1,64
 270 46 270 46 273 62 c 0,65,66
 277 82 277 82 277 134 c 2,67,-1
 275 290 l 1,68,69
 273 316 273 316 270.5 352 c 128,-1,70
 268 388 268 388 265 427.5 c 128,-1,71
 262 467 262 467 258 505 c 128,-1,72
 254 543 254 543 250 574 c 0,73,74
 243 642 243 642 238 642 c 2,75,-1
 148 642 l 1,47,48
372 324 m 2,76,-1
 412 325 l 2,77,78
 465 327 465 327 484 380 c 1,79,80
 497 413 497 413 497 458.5 c 128,-1,81
 497 504 497 504 493.5 527 c 128,-1,82
 490 550 490 550 480 569 c 0,83,84
 453 620 453 620 366 635 c 0,85,86
 319 643 319 643 286 643 c 1,87,88
 286 488 286 488 304 386 c 0,89,90
 309 354 309 354 314.5 342 c 128,-1,91
 320 330 320 330 331 327 c 128,-1,92
 342 324 342 324 372 324 c 2,76,-1
513 586 m 1,93,94
 530 554 530 554 534.5 527.5 c 128,-1,95
 539 501 539 501 539 470 c 128,-1,96
 539 439 539 439 532 404.5 c 128,-1,97
 525 370 525 370 498 343 c 1,98,99
 530 348 530 348 556 379 c 0,100,101
 588 418 588 418 588 473 c 0,102,103
 588 526 588 526 560 560 c 1,104,105
 537 586 537 586 513 586 c 1,93,94
EndSplineSet
EndChar

StartChar: Q
Encoding: 81 81 52
Width: 829
Flags: W
LayerCount: 2
Fore
SplineSet
448 679 m 2,0,-1
 480 680 l 1,1,2
 553 680 553 680 647 610 c 0,3,4
 715 560 715 560 720 431 c 0,5,6
 722 397 722 397 722 365 c 128,-1,7
 722 333 722 333 716 289 c 128,-1,8
 710 245 710 245 698 200 c 0,9,10
 672 98 672 98 635 50 c 1,11,12
 627 46 627 46 627 36.5 c 128,-1,13
 627 27 627 27 638 13.5 c 128,-1,14
 649 0 649 0 665 -12 c 0,15,16
 703 -42 703 -42 721.5 -42 c 128,-1,17
 740 -42 740 -42 751.5 -35.5 c 128,-1,18
 763 -29 763 -29 772 -18 c 0,19,20
 789 3 789 3 789 32 c 0,21,22
 789 47 789 47 778 64 c 0,23,24
 756 96 756 96 756 108 c 0,25,26
 756 109 756 109 760.5 117 c 128,-1,27
 765 125 765 125 775.5 123.5 c 128,-1,28
 786 122 786 122 797 112 c 128,-1,29
 808 102 808 102 815 88 c 0,30,31
 829 58 829 58 829 32.5 c 128,-1,32
 829 7 829 7 821 -12.5 c 128,-1,33
 813 -32 813 -32 798 -48 c 0,34,35
 767 -81 767 -81 716 -81 c 0,36,37
 687 -81 687 -81 664.5 -67 c 128,-1,38
 642 -53 642 -53 622 -37 c 128,-1,39
 602 -21 602 -21 573 2 c 1,40,-1
 572 2 l 2,41,42
 571 2 571 2 570 2.5 c 128,-1,43
 569 3 569 3 569 2.5 c 128,-1,44
 569 2 569 2 568 2 c 2,45,-1
 567 2 l 1,46,47
 446 -60 446 -60 364 -60 c 0,48,49
 310 -60 310 -60 241 -22 c 0,50,51
 118 44 118 44 74 174 c 0,52,53
 58 221 58 221 58 278 c 0,54,55
 58 292 58 292 60 308 c 1,56,57
 58 309 58 309 50 311.5 c 128,-1,58
 42 314 42 314 34 318 c 0,59,60
 11 327 11 327 11 337 c 128,-1,61
 11 347 11 347 19 351.5 c 128,-1,62
 27 356 27 356 36 358 c 0,63,64
 50 362 50 362 67 362 c 1,65,66
 93 516 93 516 187 632 c 0,67,68
 263 725 263 725 338 725 c 0,69,70
 379 725 379 725 421 704 c 0,71,72
 426 702 426 702 428 697.5 c 128,-1,73
 430 693 430 693 432 689 c 0,74,75
 437 679 437 679 448 679 c 2,0,-1
256 275 m 0,76,77
 256 178 256 178 278 74 c 1,78,79
 293 41 293 41 315 20 c 0,80,81
 356 -19 356 -19 389 -19 c 0,82,83
 419 -19 419 -19 460 -5 c 0,84,85
 539 22 539 22 539 42 c 0,86,87
 539 66 539 66 502 96 c 0,88,89
 469 124 469 124 450 124 c 0,90,91
 438 124 438 124 428 114 c 0,92,93
 408 94 408 94 395.5 94 c 128,-1,94
 383 94 383 94 375.5 103 c 128,-1,95
 368 112 368 112 368 124 c 0,96,97
 368 147 368 147 390 160 c 128,-1,98
 412 173 412 173 436.5 173 c 128,-1,99
 461 173 461 173 481 166 c 128,-1,100
 501 159 501 159 518 146 c 0,101,102
 542 127 542 127 564.5 102 c 128,-1,103
 587 77 587 77 588 76.5 c 128,-1,104
 589 76 589 76 590 76 c 0,105,106
 626 76 626 76 666 260 c 0,107,108
 680 321 680 321 680 341 c 0,109,110
 680 483 680 483 636 550 c 0,111,112
 588 624 588 624 481 624 c 0,113,114
 408 624 408 624 353 562 c 0,115,116
 284 484 284 484 262 346 c 0,117,118
 256 307 256 307 256 275 c 0,76,77
132 410 m 128,-1,120
 115 337 115 337 115 270.5 c 128,-1,121
 115 204 115 204 132.5 159 c 128,-1,122
 150 114 150 114 174.5 82 c 128,-1,123
 199 50 199 50 225.5 30.5 c 128,-1,124
 252 11 252 11 271 4 c 1,125,126
 227 56 227 56 214 198 c 0,127,128
 211 238 211 238 211 288.5 c 128,-1,129
 211 339 211 339 221.5 391.5 c 128,-1,130
 232 444 232 444 254 490 c 0,131,132
 297 580 297 580 396 651 c 1,133,134
 365 671 365 671 338 671 c 0,135,136
 291 671 291 671 250 635 c 128,-1,137
 209 599 209 599 179 541 c 128,-1,119
 149 483 149 483 132 410 c 128,-1,120
EndSplineSet
EndChar

StartChar: R
Encoding: 82 82 53
Width: 752
Flags: W
LayerCount: 2
Fore
SplineSet
613 67 m 1,0,-1
 614 86 l 1,1,2
 614 132 614 132 606 153 c 0,3,4
 586 210 586 210 528 232 c 0,5,6
 514 237 514 237 501 237 c 1,7,8
 474 231 474 231 442 222 c 2,9,-1
 411 213 l 1,10,-1
 405 207 l 1,11,-1
 417 21 l 1,12,-1
 448 21 l 2,13,14
 466 21 466 21 482 19.5 c 128,-1,15
 498 18 498 18 498 4 c 0,16,17
 498 -24 498 -24 432.5 -24 c 128,-1,18
 367 -24 367 -24 299.5 -16.5 c 128,-1,19
 232 -9 232 -9 163 -9 c 1,20,-1
 132 -10 l 1,21,22
 119 -4 119 -4 119 9.5 c 128,-1,23
 119 23 119 23 130 27.5 c 128,-1,24
 141 32 141 32 156.5 33 c 128,-1,25
 172 34 172 34 187.5 34 c 128,-1,26
 203 34 203 34 212 39 c 1,27,-1
 213 77 l 1,28,29
 213 342 213 342 188 579 c 0,30,31
 187 581 187 581 185 588 c 128,-1,32
 183 595 183 595 182 597 c 1,33,-1
 179 598 l 1,34,35
 158 598 158 598 110 536 c 0,36,37
 98 519 98 519 86 502 c 0,38,39
 70 479 70 479 70 436 c 128,-1,40
 70 393 70 393 71.5 373 c 128,-1,41
 73 353 73 353 78 336 c 0,42,43
 88 307 88 307 127 272 c 1,44,45
 127 259 127 259 101 250 c 1,46,47
 63 250 63 250 42 315 c 0,48,49
 26 362 26 362 26 418 c 128,-1,50
 26 474 26 474 53 532.5 c 128,-1,51
 80 591 80 591 138 629 c 1,52,53
 202 661 202 661 294 661 c 0,54,55
 437 661 437 661 524 618 c 0,56,57
 576 592 576 592 611 543.5 c 128,-1,58
 646 495 646 495 646 414 c 0,59,60
 646 411 646 411 645 404.5 c 128,-1,61
 644 398 644 398 643 392 c 0,62,63
 640 372 640 372 640 374 c 1,64,-1
 572 269 l 1,65,-1
 572 262 l 1,66,67
 666 228 666 228 666 62 c 1,68,-1
 665 27 l 1,69,70
 684 8 684 8 687 8 c 1,71,72
 694 14 694 14 700.5 22 c 128,-1,73
 707 30 707 30 714 36 c 0,74,75
 734 53 734 53 744.5 53 c 128,-1,76
 755 53 755 53 759.5 52.5 c 128,-1,77
 764 52 764 52 764 41.5 c 128,-1,78
 764 31 764 31 759 16 c 128,-1,79
 754 1 754 1 745 -12 c 0,80,81
 724 -42 724 -42 695 -42 c 0,82,83
 678 -42 678 -42 667.5 -36 c 128,-1,84
 657 -30 657 -30 639.5 -16 c 128,-1,85
 622 -2 622 -2 617.5 19.5 c 128,-1,86
 613 41 613 41 613 67 c 1,0,-1
231 616 m 1,87,-1
 229 545 l 1,88,-1
 229 520 l 2,89,90
 229 317 229 317 256 58 c 1,91,92
 263 54 263 54 269 39 c 1,93,94
 330 32 330 32 377 32 c 1,95,-1
 374 121 l 1,96,-1
 368 145 l 1,97,98
 362 232 362 232 361 318.5 c 128,-1,99
 360 405 360 405 353.5 456 c 128,-1,100
 347 507 347 507 344 529 c 128,-1,101
 341 551 341 551 338 571.5 c 128,-1,102
 335 592 335 592 332 607 c 2,103,-1
 330 622 l 1,104,-1
 244 622 l 1,105,-1
 231 616 l 1,87,-1
379 616 m 1,106,-1
 380 597 l 1,107,108
 386 519 386 519 389 439 c 128,-1,109
 392 359 392 359 405 281 c 1,110,111
 408 274 408 274 417 274 c 0,112,113
 563 274 563 274 603 405 c 1,114,115
 603 491 603 491 552 543 c 0,116,117
 535 561 535 561 517 569 c 128,-1,118
 499 577 499 577 480.5 584.5 c 128,-1,119
 462 592 462 592 444 599 c 0,120,121
 402 616 402 616 399 616 c 2,122,-1
 379 616 l 1,106,-1
EndSplineSet
EndChar

StartChar: S
Encoding: 83 83 54
Width: 620
Flags: W
LayerCount: 2
Fore
SplineSet
571 478 m 0,0,1
 571 462 571 462 534 462 c 0,2,3
 528 462 528 462 514 474.5 c 128,-1,4
 500 487 500 487 479.5 506 c 128,-1,5
 459 525 459 525 434.5 546.5 c 128,-1,6
 410 568 410 568 384 587 c 0,7,8
 324 631 324 631 286 631 c 0,9,10
 198 631 198 631 166 586 c 0,11,12
 154 569 154 569 154 548.5 c 128,-1,13
 154 528 154 528 165 510.5 c 128,-1,14
 176 493 176 493 203 473 c 0,15,16
 261 430 261 430 392 385 c 1,17,18
 394 387 394 387 400 395.5 c 128,-1,19
 406 404 406 404 413 414 c 0,20,21
 431 438 431 438 438 438 c 128,-1,22
 445 438 445 438 449.5 432.5 c 128,-1,23
 454 427 454 427 454 422 c 128,-1,24
 454 417 454 417 451.5 411 c 128,-1,25
 449 405 449 405 445 398 c 0,26,27
 434 379 434 379 433 374 c 1,28,29
 506 323 506 323 532 285 c 0,30,31
 563 240 563 240 563 171 c 0,32,33
 563 84 563 84 491 23 c 0,34,35
 417 -40 417 -40 304 -40 c 0,36,37
 248 -40 248 -40 193.5 -21.5 c 128,-1,38
 139 -3 139 -3 105 41 c 1,39,-1
 103 42 l 2,40,41
 101 42 101 42 97 39.5 c 128,-1,42
 93 37 93 37 93 35 c 2,43,-1
 79 -33 l 2,44,45
 78 -40 78 -40 67.5 -40 c 128,-1,46
 57 -40 57 -40 53.5 -37.5 c 128,-1,47
 50 -35 50 -35 45 -27 c 1,48,-1
 44 13 l 1,49,50
 44 61 44 61 52 153 c 1,51,52
 57 167 57 167 74 167 c 128,-1,53
 91 167 91 167 103 151.5 c 128,-1,54
 115 136 115 136 126 115 c 128,-1,55
 137 94 137 94 148 73 c 128,-1,56
 159 52 159 52 174 41 c 1,57,58
 183 32 183 32 214 20 c 0,59,60
 280 -7 280 -7 324 -7 c 0,61,62
 377 -7 377 -7 410 28 c 0,63,64
 441 61 441 61 441 113 c 0,65,66
 441 146 441 146 386 188 c 0,67,68
 333 228 333 228 294 228 c 0,69,70
 287 228 287 228 274 220 c 0,71,72
 251 205 251 205 245 205 c 1,73,74
 246 210 246 210 246 214 c 2,75,-1
 246 221 l 2,76,77
 246 235 246 235 242 243 c 1,78,79
 130 300 130 300 99 340 c 0,80,81
 81 364 81 364 76 391 c 128,-1,82
 71 418 71 418 71 452 c 0,83,84
 71 541 71 541 105 599 c 0,85,86
 129 640 129 640 172.5 657.5 c 128,-1,87
 216 675 216 675 254.5 675 c 128,-1,88
 293 675 293 675 317 670 c 128,-1,89
 341 665 341 665 363 656 c 0,90,91
 394 643 394 643 454 605 c 1,92,-1
 462 605 l 1,93,-1
 515 668 l 1,94,-1
 527 669 l 1,95,96
 552 669 552 669 556 655 c 1,97,98
 571 529 571 529 571 478 c 0,0,1
111 522 m 1,99,-1
 110 462 l 1,100,-1
 110 444 l 2,101,102
 110 406 110 406 134 362 c 0,103,104
 169 300 169 300 379 235 c 0,105,106
 435 217 435 217 454.5 187 c 128,-1,107
 474 157 474 157 474 120 c 256,108,109
 474 83 474 83 460 43 c 1,110,111
 481 43 481 43 500 80 c 0,112,113
 523 124 523 124 523 181 c 128,-1,114
 523 238 523 238 495 272 c 128,-1,115
 467 306 467 306 424 330.5 c 128,-1,116
 381 355 381 355 330 374 c 128,-1,117
 279 393 279 393 233.5 415 c 128,-1,118
 188 437 188 437 154 466 c 128,-1,119
 120 495 120 495 111 539 c 1,120,-1
 111 522 l 1,99,-1
481.5 576.5 m 128,-1,122
 477 572 477 572 477 569 c 128,-1,123
 477 566 477 566 484 556.5 c 128,-1,124
 491 547 491 547 499 537 c 0,125,126
 520 511 520 511 524 511 c 2,127,-1
 532 511 l 1,128,-1
 530 522 l 2,129,130
 528 533 528 533 526 548 c 0,131,132
 520 578 520 578 515 599 c 1,133,134
 511 596 511 596 504.5 592.5 c 128,-1,135
 498 589 498 589 492 585 c 128,-1,121
 486 581 486 581 481.5 576.5 c 128,-1,122
EndSplineSet
EndChar

StartChar: T
Encoding: 84 84 55
Width: 693
Flags: W
LayerCount: 2
Fore
SplineSet
161 -18 m 2,0,1
 148 -18 148 -18 148 4 c 0,2,3
 148 10 148 10 150 15 c 128,-1,4
 152 20 152 20 161 20 c 2,5,-1
 236 20 l 1,6,7
 238 45 238 45 242 81.5 c 128,-1,8
 246 118 246 118 250 162 c 0,9,10
 260 272 260 272 260 361 c 2,11,-1
 260 604 l 1,12,-1
 199 595 l 1,13,-1
 34 489 l 2,14,15
 33 489 33 489 32.5 484.5 c 128,-1,16
 32 480 32 480 30 480 c 0,17,18
 19 480 19 480 11 490 c 128,-1,19
 3 500 3 500 3 511 c 1,20,-1
 70 687 l 1,21,-1
 183 652 l 2,22,23
 212 643 212 643 266 643 c 1,24,-1
 343 645 l 1,25,-1
 440 644 l 2,26,27
 513 644 513 644 560 666 c 0,28,29
 569 670 569 670 575 674.5 c 128,-1,30
 581 679 581 679 586 683 c 0,31,32
 598 691 598 691 611.5 691 c 128,-1,33
 625 691 625 691 629 685 c 2,34,-1
 697 546 l 1,35,36
 697 541 697 541 687.5 531.5 c 128,-1,37
 678 522 678 522 678 523 c 2,38,-1
 562 572 l 1,39,-1
 479 604 l 1,40,41
 467 604 467 604 459.5 598 c 128,-1,42
 452 592 452 592 448 574 c 0,43,44
 440 544 440 544 440 436 c 1,45,-1
 434 168 l 1,46,47
 434 43 434 43 446 26 c 0,48,49
 450 21 450 21 456 21 c 2,50,-1
 510 26 l 1,51,52
 523 26 523 26 531.5 24.5 c 128,-1,53
 540 23 540 23 540 14 c 0,54,55
 540 -12 540 -12 527 -14 c 1,56,-1
 465 -18 l 1,57,-1
 161 -18 l 2,0,1
302 603 m 1,58,59
 296 549 296 549 296 458 c 1,60,-1
 292 254 l 1,61,62
 292 198 292 198 288 150 c 0,63,64
 282 62 282 62 282 21 c 1,65,-1
 310 21 l 2,66,67
 352 21 352 21 396 25 c 1,68,-1
 408 605 l 1,69,70
 381 596 381 596 358 596 c 128,-1,71
 335 596 335 596 302 603 c 1,58,59
167 610 m 1,72,73
 147 623 147 623 119 623 c 1,74,-1
 106 624 l 1,75,76
 87 624 87 624 71 566 c 0,77,78
 68 555 68 555 68 554 c 2,79,-1
 167 610 l 1,72,73
643 579 m 1,80,81
 643 604 643 604 626 622 c 0,82,83
 620 629 620 629 608.5 629 c 128,-1,84
 597 629 597 629 577 624 c 128,-1,85
 557 619 557 619 550 604 c 1,86,-1
 643 579 l 1,80,81
EndSplineSet
EndChar

StartChar: U
Encoding: 85 85 56
Width: 741
Flags: W
LayerCount: 2
Fore
SplineSet
599 659 m 128,-1,1
 599 684 599 684 628 684 c 0,2,3
 635 684 635 684 641.5 676 c 128,-1,4
 648 668 648 668 649.5 648 c 128,-1,5
 651 628 651 628 654 604 c 128,-1,6
 657 580 657 580 658 558 c 0,7,8
 662 507 662 507 662 440.5 c 128,-1,9
 662 374 662 374 657.5 303 c 128,-1,10
 653 232 653 232 636 178 c 0,11,12
 604 70 604 70 506 0 c 0,13,14
 495 -8 495 -8 447.5 -20 c 128,-1,15
 400 -32 400 -32 391 -32 c 128,-1,16
 382 -32 382 -32 358 -29.5 c 128,-1,17
 334 -27 334 -27 309 -22 c 0,18,19
 249 -10 249 -10 230.5 10 c 128,-1,20
 212 30 212 30 199 44 c 128,-1,21
 186 58 186 58 177.5 70.5 c 128,-1,22
 169 83 169 83 163 98 c 128,-1,23
 157 113 157 113 151 138 c 0,24,25
 141 178 141 178 119 296 c 1,26,-1
 90 309 l 1,27,28
 93 323 93 323 98 329.5 c 128,-1,29
 103 336 103 336 115 340 c 1,30,31
 118 347 118 347 124 377.5 c 128,-1,32
 130 408 130 408 130 410 c 2,33,-1
 124 479 l 1,34,-1
 129 626 l 1,35,36
 103 626 103 626 92 609.5 c 128,-1,37
 81 593 81 593 75 573.5 c 128,-1,38
 69 554 69 554 64 537.5 c 128,-1,39
 59 521 59 521 46 521 c 256,40,41
 33 521 33 521 25.5 530 c 128,-1,42
 18 539 18 539 18 563 c 128,-1,43
 18 587 18 587 33 612.5 c 128,-1,44
 48 638 48 638 72 654 c 1,45,46
 119 683 119 683 190 683 c 1,47,-1
 298 676 l 1,48,49
 323 676 323 676 345.5 680 c 128,-1,50
 368 684 368 684 385 684 c 128,-1,51
 402 684 402 684 402 671 c 128,-1,52
 402 658 402 658 392 649.5 c 128,-1,53
 382 641 382 641 368 635 c 0,54,55
 345 625 345 625 320 621 c 1,56,57
 314 613 314 613 310.5 576 c 128,-1,58
 307 539 307 539 307 528 c 2,59,-1
 310 335 l 1,60,-1
 360 340 l 1,61,62
 371 340 371 340 371 320 c 128,-1,63
 371 300 371 300 353 295.5 c 128,-1,64
 335 291 335 291 313 290 c 1,65,-1
 313 271 l 1,66,-1
 351 19 l 2,67,68
 352 12 352 12 396.5 12 c 128,-1,69
 441 12 441 12 480 33 c 128,-1,70
 519 54 519 54 545.5 87.5 c 128,-1,71
 572 121 572 121 587.5 163.5 c 128,-1,72
 603 206 603 206 612 250 c 0,73,74
 625 319 625 319 625 405 c 1,75,-1
 624 460 l 2,76,77
 624 491 624 491 615.5 537.5 c 128,-1,78
 607 584 607 584 603 609 c 128,-1,0
 599 634 599 634 599 659 c 128,-1,1
167 576 m 1,79,-1
 171 520 l 1,80,-1
 168 397 l 1,81,82
 168 259 168 259 186.5 187 c 128,-1,83
 205 115 205 115 231.5 74 c 128,-1,84
 258 33 258 33 302 21 c 1,85,-1
 277 324 l 1,86,-1
 271 627 l 2,87,88
 271 628 271 628 247.5 630 c 128,-1,89
 224 632 224 632 213 633 c 128,-1,90
 202 634 202 634 201 634 c 0,91,92
 180 634 180 634 173.5 616 c 128,-1,93
 167 598 167 598 167 576 c 1,79,-1
EndSplineSet
EndChar

StartChar: V
Encoding: 86 86 57
Width: 661
Flags: W
LayerCount: 2
Fore
SplineSet
635 635 m 1,0,-1
 607 637 l 1,1,-1
 436 -4 l 2,2,3
 432 -18 432 -18 424 -20.5 c 128,-1,4
 416 -23 416 -23 392.5 -23 c 128,-1,5
 369 -23 369 -23 334.5 -14.5 c 128,-1,6
 300 -6 300 -6 263 3 c 1,7,8
 247 14 247 14 245 28 c 1,9,-1
 161 296 l 1,10,-1
 100 296 l 2,11,12
 93 296 93 296 93 310.5 c 128,-1,13
 93 325 93 325 102 328 c 128,-1,14
 111 331 111 331 121.5 331.5 c 128,-1,15
 132 332 132 332 141 334 c 128,-1,16
 150 336 150 336 150 346 c 1,17,-1
 99 618 l 1,18,-1
 1 618 l 2,19,20
 -6 618 -6 618 -6 632.5 c 128,-1,21
 -6 647 -6 647 4.5 653.5 c 128,-1,22
 15 660 15 660 29 663 c 128,-1,23
 43 666 43 666 57.5 666.5 c 128,-1,24
 72 667 72 667 84 668 c 128,-1,25
 96 669 96 669 108 670.5 c 128,-1,26
 120 672 120 672 133 673 c 0,27,28
 159 675 159 675 179 675 c 2,29,-1
 206 675 l 1,30,-1
 238 674 l 1,31,32
 238 674 238 674 249 674 c 1,33,34
 265 667 265 667 267.5 652.5 c 128,-1,35
 270 638 270 638 271 629 c 128,-1,36
 272 620 272 620 279 612 c 1,37,-1
 418 89 l 1,38,-1
 424 89 l 1,39,-1
 532 526 l 1,40,-1
 532 532 l 1,41,42
 534 536 534 536 537.5 561 c 128,-1,43
 541 586 541 586 543 598 c 128,-1,44
 545 610 545 610 545 612 c 2,45,-1
 545 619 l 2,46,47
 545 634 545 634 538 634 c 2,48,-1
 464 634 l 2,49,50
 457 634 457 634 457 651 c 128,-1,51
 457 668 457 668 462 672.5 c 128,-1,52
 467 677 467 677 475 679 c 128,-1,53
 483 681 483 681 500 682 c 128,-1,54
 517 683 517 683 535.5 684 c 128,-1,55
 554 685 554 685 571 686 c 128,-1,56
 588 687 588 687 593.5 687 c 128,-1,57
 599 687 599 687 612 686.5 c 128,-1,58
 625 686 625 686 639 683 c 0,59,60
 676 675 676 675 676 655 c 128,-1,61
 676 635 676 635 635 635 c 1,0,-1
300 33 m 1,62,-1
 312 30 l 2,63,64
 373 14 373 14 387 14 c 1,65,-1
 387 46 l 1,66,-1
 235 624 l 1,67,-1
 150 624 l 2,68,69
 146 624 146 624 138 620 c 128,-1,70
 130 616 130 616 130 612 c 2,71,-1
 275 46 l 1,72,-1
 300 33 l 1,62,-1
EndSplineSet
EndChar

StartChar: W
Encoding: 87 87 58
Width: 890
Flags: W
LayerCount: 2
Fore
SplineSet
875 595 m 1,0,-1
 832 601 l 2,1,2
 830 601 830 601 825 598.5 c 128,-1,3
 820 596 820 596 820 595 c 2,4,-1
 689 0 l 2,5,6
 687 -10 687 -10 679 -18 c 128,-1,7
 671 -26 671 -26 661 -26 c 128,-1,8
 651 -26 651 -26 644 -19.5 c 128,-1,9
 637 -13 637 -13 637 -6.5 c 128,-1,10
 637 0 637 0 639 6 c 1,11,-1
 534 329 l 1,12,-1
 534 333 l 1,13,-1
 527 335 l 1,14,15
 522 335 522 335 504 254 c 2,16,-1
 454 37 l 2,17,18
 454 33 454 33 460.5 31.5 c 128,-1,19
 467 30 467 30 476 27 c 0,20,21
 497 19 497 19 497 3 c 128,-1,22
 497 -13 497 -13 494 -16 c 128,-1,23
 491 -19 491 -19 473.5 -18.5 c 128,-1,24
 456 -18 456 -18 416.5 -16.5 c 128,-1,25
 377 -15 377 -15 332.5 -12.5 c 128,-1,26
 288 -10 288 -10 248.5 -8.5 c 128,-1,27
 209 -7 209 -7 193 -6 c 1,28,29
 180 -1 180 -1 180 10.5 c 128,-1,30
 180 22 180 22 186.5 28 c 128,-1,31
 193 34 193 34 202 38 c 0,32,33
 216 43 216 43 237 43 c 1,34,-1
 237 68 l 1,35,-1
 94 571 l 1,36,-1
 87 577 l 1,37,38
 69 539 69 539 69 483 c 0,39,40
 69 466 69 466 72.5 455 c 128,-1,41
 76 444 76 444 76 431.5 c 128,-1,42
 76 419 76 419 72 416.5 c 128,-1,43
 68 414 68 414 52 414 c 128,-1,44
 36 414 36 414 27.5 426.5 c 128,-1,45
 19 439 19 439 19 466 c 128,-1,46
 19 493 19 493 19.5 515 c 128,-1,47
 20 537 20 537 24 558 c 0,48,49
 34 610 34 610 63 626 c 1,50,51
 63 626 63 626 80 634 c 0,52,53
 125 657 125 657 131 657 c 2,54,-1
 268 657 l 2,55,56
 275 657 275 657 287 650.5 c 128,-1,57
 299 644 299 644 299 637 c 128,-1,58
 299 630 299 630 296 627 c 128,-1,59
 293 624 293 624 289 621 c 0,60,61
 279 614 279 614 279 605 c 2,62,-1
 280 595 l 1,63,-1
 416 118 l 1,64,-1
 422 112 l 1,65,-1
 447 173 l 1,66,-1
 497 440 l 1,67,68
 496 445 496 445 496 448 c 2,69,-1
 496 456 l 2,70,71
 496 491 496 491 506 525 c 128,-1,72
 516 559 516 559 516 595 c 1,73,74
 510 599 510 599 489.5 603 c 128,-1,75
 469 607 469 607 454 607 c 1,76,-1
 450 616 l 2,77,78
 447 621 447 621 447 625.5 c 128,-1,79
 447 630 447 630 452 637 c 128,-1,80
 457 644 457 644 466 645 c 2,81,-1
 559 651 l 1,82,83
 591 651 591 651 591 625 c 0,84,85
 591 598 591 598 571 583 c 1,86,87
 560 545 560 545 553 515.5 c 128,-1,88
 546 486 546 486 546 451 c 2,89,-1
 546 428 l 1,90,-1
 658 74 l 1,91,-1
 664 68 l 1,92,-1
 763 558 l 1,93,-1
 763 593 l 1,94,-1
 707 588 l 2,95,96
 699 588 699 588 693.5 589.5 c 128,-1,97
 688 591 688 591 688 601 c 0,98,99
 688 651 688 651 791.5 651 c 128,-1,100
 895 651 895 651 895 616 c 0,101,102
 895 595 895 595 875 595 c 1,0,-1
280 62 m 1,103,104
 280 55 280 55 298 37 c 1,105,-1
 386 37 l 1,106,-1
 398 43 l 1,107,-1
 229 607 l 1,108,-1
 144 607 l 2,109,110
 133 607 133 607 131.5 603 c 128,-1,111
 130 599 130 599 130 593 c 2,112,-1
 130 587 l 2,113,114
 130 585 130 585 131 583 c 2,115,-1
 280 62 l 1,103,104
EndSplineSet
EndChar

StartChar: X
Encoding: 88 88 59
Width: 773
Flags: W
LayerCount: 2
Fore
SplineSet
421 -39 m 1,0,1
 390 -39 390 -39 390 -16 c 0,2,3
 390 10 390 10 440 17 c 1,4,-1
 440 29 l 1,5,-1
 316 240 l 2,6,7
 312 247 312 247 307 247 c 0,8,9
 306 247 306 247 305 246 c 1,10,-1
 304 246 l 1,11,-1
 138 42 l 1,12,-1
 223 42 l 2,13,14
 229 42 229 42 232.5 32 c 128,-1,15
 236 22 236 22 236 15 c 128,-1,16
 236 8 236 8 222.5 1.5 c 128,-1,17
 209 -5 209 -5 188.5 -9 c 128,-1,18
 168 -13 168 -13 143.5 -15.5 c 128,-1,19
 119 -18 119 -18 96 -19 c 0,20,21
 51 -21 51 -21 37 -21 c 2,22,-1
 6 -20 l 1,23,24
 1 -16 1 -16 -6 -8 c 128,-1,25
 -13 0 -13 0 -13 2 c 0,26,27
 -13 18 -13 18 -0.5 23.5 c 128,-1,28
 12 29 12 29 28.5 30 c 128,-1,29
 45 31 45 31 60 31 c 128,-1,30
 75 31 75 31 80 36 c 2,31,-1
 283 296 l 1,32,-1
 87 600 l 2,33,34
 71 625 71 625 44 625 c 0,35,36
 29 625 29 625 27.5 631 c 128,-1,37
 26 637 26 637 24 640 c 1,38,39
 24 650 24 650 36.5 656 c 128,-1,40
 49 662 49 662 55 662 c 2,41,-1
 390 662 l 2,42,43
 393 662 393 662 401 652.5 c 128,-1,44
 409 643 409 643 409 637.5 c 128,-1,45
 409 632 409 632 402.5 627.5 c 128,-1,46
 396 623 396 623 388 620 c 0,47,48
 369 612 369 612 360 612 c 1,49,-1
 459 439 l 1,50,51
 459 435 459 435 468 432 c 1,52,-1
 470 432 l 1,53,-1
 638 612 l 1,54,-1
 638 624 l 1,55,-1
 629 624 l 1,56,-1
 604 625 l 1,57,-1
 596 625 l 1,58,-1
 546 619 l 1,59,60
 532 619 532 619 529 629.5 c 128,-1,61
 526 640 526 640 526 646 c 2,62,-1
 526 657 l 2,63,64
 526 662 526 662 527 662 c 2,65,-1
 539 669 l 2,66,67
 541 670 541 670 554 671 c 128,-1,68
 567 672 567 672 585.5 673.5 c 128,-1,69
 604 675 604 675 625.5 676.5 c 128,-1,70
 647 678 647 678 666 679 c 128,-1,71
 685 680 685 680 698.5 681 c 128,-1,72
 712 682 712 682 720 682 c 0,73,74
 756 682 756 682 756 658 c 0,75,76
 756 650 756 650 750 644 c 1,77,-1
 707 625 l 1,78,-1
 508 396 l 1,79,-1
 490 383 l 1,80,-1
 695 29 l 1,81,-1
 701 23 l 1,82,83
 711 25 711 25 734 25 c 128,-1,84
 757 25 757 25 772.5 19.5 c 128,-1,85
 788 14 788 14 788 -6 c 0,86,87
 788 -19 788 -19 781 -20 c 0,88,89
 765 -22 765 -22 744 -23 c 128,-1,90
 723 -24 723 -24 703.5 -25 c 128,-1,91
 684 -26 684 -26 670 -26 c 2,92,-1
 651 -26 l 2,93,94
 622 -26 622 -26 589.5 -25.5 c 128,-1,95
 557 -25 557 -25 526 -26 c 0,96,97
 450 -28 450 -28 421 -39 c 1,0,1
490 23 m 1,98,-1
 654 23 l 1,99,-1
 312 619 l 1,100,-1
 127 619 l 1,101,-1
 341 259 l 1,102,-1
 347 253 l 1,103,-1
 490 23 l 1,98,-1
EndSplineSet
EndChar

StartChar: Y
Encoding: 89 89 60
Width: 709
Flags: W
LayerCount: 2
Fore
SplineSet
388 164 m 128,-1,1
 367 114 367 114 361 90.5 c 128,-1,2
 355 67 355 67 355 61 c 128,-1,3
 355 55 355 55 358 46 c 1,4,-1
 487 46 l 1,5,-1
 502 24 l 1,6,7
 476 -24 476 -24 2 -24 c 1,8,9
 2 7 2 7 9 19 c 128,-1,10
 16 31 16 31 21 31 c 2,11,-1
 143 31 l 1,12,-1
 137 65 l 1,13,-1
 137 69 l 1,14,15
 143 91 143 91 154.5 111.5 c 128,-1,16
 166 132 166 132 177 152 c 0,17,18
 204 203 204 203 204 233 c 128,-1,19
 204 263 204 263 196.5 269.5 c 128,-1,20
 189 276 189 276 179.5 276.5 c 128,-1,21
 170 277 170 277 162.5 277 c 128,-1,22
 155 277 155 277 155 284.5 c 128,-1,23
 155 292 155 292 160 296 c 128,-1,24
 165 300 165 300 172 303 c 0,25,26
 186 309 186 309 201 311 c 1,27,28
 175 356 175 356 143 442 c 1,29,-1
 100 588 l 1,30,-1
 100 603 l 1,31,32
 41 603 41 603 20 622 c 0,33,34
 11 630 11 630 11 646 c 2,35,36
 11 646 11 646 12 662 c 1,37,-1
 158 676 l 1,38,39
 218 676 218 676 218 638 c 1,40,-1
 217 634 l 1,41,-1
 217 631 l 1,42,-1
 158 603 l 1,43,44
 157 601 157 601 157 600 c 2,45,-1
 157 597 l 1,46,47
 160 573 160 573 178 506.5 c 128,-1,48
 196 440 196 440 208 404 c 0,49,50
 234 325 234 325 246 325 c 2,51,-1
 260 325 l 1,52,-1
 404 609 l 1,53,54
 402 615 402 615 402 637.5 c 128,-1,55
 402 660 402 660 407.5 671.5 c 128,-1,56
 413 683 413 683 432 683 c 2,57,-1
 514 681 l 1,58,-1
 739 687 l 1,59,60
 739 657 739 657 700 646 c 0,61,62
 678 639 678 639 653 639 c 1,63,64
 645 607 645 607 608 580 c 1,65,-1
 623 566 l 1,66,67
 618 562 618 562 606 549.5 c 128,-1,68
 594 537 594 537 588 531 c 2,69,-1
 579 522 l 1,70,-1
 579 508 l 1,71,-1
 479 340 l 1,72,-1
 478 331 l 2,73,74
 478 324 478 324 482.5 321.5 c 128,-1,75
 487 319 487 319 493 317.5 c 128,-1,76
 499 316 499 316 503.5 313.5 c 128,-1,77
 508 311 508 311 508 300.5 c 128,-1,78
 508 290 508 290 499 284 c 128,-1,79
 490 278 490 278 478 274.5 c 128,-1,80
 466 271 466 271 453.5 267 c 128,-1,81
 441 263 441 263 435 253 c 0,82,0
 409 214 409 214 388 164 c 128,-1,1
557 644 m 1,83,-1
 507 639 l 1,84,85
 489 630 489 630 469.5 608 c 128,-1,86
 450 586 450 586 447 580 c 2,87,-1
 180 54 l 1,88,-1
 180 38 l 1,89,90
 196 38 196 38 247 45.5 c 128,-1,91
 298 53 298 53 298 54 c 2,92,-1
 608 639 l 1,93,-1
 557 644 l 1,83,-1
EndSplineSet
EndChar

StartChar: Z
Encoding: 90 90 61
Width: 769
Flags: W
LayerCount: 2
Fore
SplineSet
719 79 m 2,0,1
 719 91 719 91 733 91 c 0,2,3
 762 91 762 91 762 63 c 0,4,5
 762 23 762 23 737 -6 c 0,6,7
 711 -36 711 -36 671 -36 c 0,8,9
 660 -36 660 -36 650 -33 c 2,10,-1
 336 34 l 1,11,-1
 161 -8 l 1,12,13
 141 -22 141 -22 124 -31 c 128,-1,14
 107 -40 107 -40 92 -40 c 0,15,16
 61 -40 61 -40 61 -21 c 1,17,-1
 62 -14 l 1,18,-1
 167 239 l 1,19,20
 192 275 192 275 192 283 c 1,21,22
 172 276 172 276 148.5 276 c 128,-1,23
 125 276 125 276 121 281 c 128,-1,24
 117 286 117 286 117 295.5 c 128,-1,25
 117 305 117 305 119.5 314.5 c 128,-1,26
 122 324 122 324 136 327 c 2,27,-1
 235 346 l 1,28,-1
 415 593 l 1,29,30
 400 624 400 624 322 624 c 0,31,32
 172 624 172 624 110 559 c 0,33,34
 85 533 85 533 85 491 c 0,35,36
 85 467 85 467 104 444 c 1,37,38
 112 436 112 436 118 429.5 c 128,-1,39
 124 423 124 423 124 416 c 256,40,41
 124 409 124 409 118 404.5 c 128,-1,42
 112 400 112 400 101 400 c 128,-1,43
 90 400 90 400 77 409 c 128,-1,44
 64 418 64 418 55 432 c 0,45,46
 36 462 36 462 36 491 c 0,47,48
 36 542 36 542 65.5 576.5 c 128,-1,49
 95 611 95 611 138 631 c 0,50,51
 218 668 218 668 318 668 c 2,52,-1
 334 668 l 1,53,-1
 538 624 l 1,54,55
 580 624 580 624 614.5 630.5 c 128,-1,56
 649 637 649 637 687 637 c 2,57,-1
 712 637 l 1,58,-1
 706 612 l 1,59,-1
 502 346 l 2,60,61
 501 345 501 345 501 344 c 2,62,-1
 501 342 l 2,63,64
 501 333 501 333 513.5 331.5 c 128,-1,65
 526 330 526 330 541.5 329 c 128,-1,66
 557 328 557 328 569.5 325.5 c 128,-1,67
 582 323 582 323 582 312 c 0,68,69
 582 295 582 295 564 291.5 c 128,-1,70
 546 288 546 288 528 288 c 2,71,-1
 493 288 l 2,72,73
 476 288 476 288 471 289 c 1,74,-1
 458 277 l 1,75,-1
 365 85 l 2,76,77
 365 84 365 84 364 83 c 1,78,79
 364 81 364 81 398 73 c 0,80,81
 472 55 472 55 477 60 c 1,82,-1
 620 16 l 1,83,-1
 638 15 l 1,84,85
 721 15 721 15 721 54 c 1,86,-1
 719 79 l 2,0,1
123 29 m 1,87,-1
 304 79 l 2,88,89
 311 80 311 80 320 105 c 0,90,91
 338 153 338 153 346 159 c 1,92,-1
 607 569 l 1,93,-1
 607 580 l 1,94,-1
 464 580 l 1,95,-1
 396 506 l 1,96,-1
 123 54 l 1,97,-1
 123 29 l 1,87,-1
EndSplineSet
EndChar

StartChar: bracketleft
Encoding: 91 91 62
Width: 472
Flags: W
LayerCount: 2
Fore
SplineSet
123 207 m 1,0,-1
 137 29 l 2,1,2
 138 26 138 26 142 20.5 c 128,-1,3
 146 15 146 15 148 15 c 2,4,-1
 237 7 l 1,5,-1
 229 71 l 1,6,-1
 230 84 l 1,7,8
 219 190 219 190 217 202 c 128,-1,9
 215 214 215 214 215 234 c 2,10,-1
 215 283 l 1,11,-1
 216 408 l 1,12,-1
 216 479 l 1,13,-1
 209 543 l 2,14,15
 209 547 209 547 203 564 c 128,-1,16
 197 581 197 581 194 591 c 128,-1,17
 191 601 191 601 189 605.5 c 128,-1,18
 187 610 187 610 186 614 c 128,-1,19
 185 618 185 618 183 623 c 2,20,-1
 179 633 l 1,21,-1
 115 638 l 1,22,-1
 114 626 l 1,23,24
 118 573 118 573 119 462.5 c 128,-1,25
 120 352 120 352 121 310 c 0,26,27
 123 228 123 228 123 207 c 1,0,-1
76 629 m 2,28,-1
 81 666 l 2,29,30
 81 671 81 671 87 678 c 128,-1,31
 93 685 93 685 95 685 c 2,32,-1
 395 660 l 1,33,34
 397 662 397 662 402.5 668 c 128,-1,35
 408 674 408 674 415 680.5 c 128,-1,36
 422 687 422 687 428 692.5 c 128,-1,37
 434 698 434 698 436 699.5 c 128,-1,38
 438 701 438 701 439.5 700.5 c 128,-1,39
 441 700 441 700 443 700 c 256,40,41
 445 700 445 700 447 700 c 128,-1,42
 449 700 449 700 449 699 c 0,43,44
 459 682 459 682 459 664.5 c 128,-1,45
 459 647 459 647 458 634.5 c 128,-1,46
 457 622 457 622 456 614.5 c 128,-1,47
 455 607 455 607 453 600 c 0,48,49
 448 584 448 584 435 585.5 c 128,-1,50
 422 587 422 587 416 595.5 c 128,-1,51
 410 604 410 604 404 614 c 1,52,-1
 255 639 l 2,53,54
 244 641 244 641 241.5 631 c 128,-1,55
 239 621 239 621 239 616 c 2,56,-1
 239 603 l 1,57,-1
 275 17 l 1,58,-1
 363 9 l 2,59,60
 373 8 373 8 375 17 c 128,-1,61
 377 26 377 26 377 37 c 0,62,63
 377 68 377 68 393 71 c 1,64,65
 422 47 422 47 447 -36 c 1,66,-1
 448 -51 l 1,67,68
 433 -50 433 -50 416 -42 c 0,69,70
 382 -28 382 -28 361 -26.5 c 128,-1,71
 340 -25 340 -25 314 -27 c 128,-1,72
 288 -29 288 -29 262 -32 c 0,73,74
 154 -44 154 -44 116 -28 c 0,75,76
 100 -22 100 -22 97 6 c 1,77,-1
 74 592 l 1,78,-1
 74 598 l 2,79,80
 74 602 74 602 74.5 608 c 128,-1,81
 75 614 75 614 75.5 620 c 128,-1,82
 76 626 76 626 76 629 c 2,28,-1
EndSplineSet
EndChar

StartChar: backslash
Encoding: 92 92 63
Width: 366
Flags: W
LayerCount: 2
Fore
SplineSet
312 -18 m 0,0,1
 297 -18 297 -18 254 82 c 0,2,3
 243 107 243 107 235.5 125.5 c 128,-1,4
 228 144 228 144 210.5 187 c 128,-1,5
 193 230 193 230 170.5 286 c 128,-1,6
 148 342 148 342 123.5 403 c 128,-1,7
 99 464 99 464 79 517 c 0,8,9
 33 639 33 639 33 649 c 128,-1,10
 33 659 33 659 40 664 c 128,-1,11
 47 669 47 669 55 669 c 128,-1,12
 63 669 63 669 76.5 650 c 128,-1,13
 90 631 90 631 104 604 c 0,14,15
 119 577 119 577 152 499 c 1,16,17
 191 399 191 399 197 374 c 128,-1,18
 203 349 203 349 206 337 c 0,19,20
 214 312 214 312 222 291 c 2,21,-1
 240 246 l 2,22,23
 269 174 269 174 282.5 138 c 128,-1,24
 296 102 296 102 306 74 c 0,25,26
 330 13 330 13 330 -2.5 c 128,-1,27
 330 -18 330 -18 312 -18 c 0,0,1
EndSplineSet
EndChar

StartChar: bracketright
Encoding: 93 93 64
Width: 472
Flags: W
LayerCount: 2
Fore
SplineSet
234 603 m 1,0,-1
 233 616 l 2,1,2
 233 621 233 621 230.5 631 c 128,-1,3
 228 641 228 641 218 639 c 2,4,-1
 68 614 l 1,5,6
 62 604 62 604 56 595.5 c 128,-1,7
 50 587 50 587 40 586 c 128,-1,8
 30 585 30 585 25.5 589.5 c 128,-1,9
 21 594 21 594 19 600.5 c 128,-1,10
 17 607 17 607 16.5 614.5 c 128,-1,11
 16 622 16 622 14.5 634.5 c 128,-1,12
 13 647 13 647 13 664.5 c 128,-1,13
 13 682 13 682 23 699 c 0,14,15
 23 700 23 700 25 700 c 128,-1,16
 27 700 27 700 29 700 c 256,17,18
 31 700 31 700 32.5 700.5 c 128,-1,19
 34 701 34 701 36.5 699.5 c 128,-1,20
 39 698 39 698 45 692.5 c 128,-1,21
 51 687 51 687 57.5 680.5 c 128,-1,22
 64 674 64 674 69.5 668 c 128,-1,23
 75 662 75 662 77 660 c 1,24,-1
 377 685 l 2,25,26
 379 685 379 685 385 678 c 128,-1,27
 391 671 391 671 392 668 c 128,-1,28
 393 665 393 665 394 650.5 c 128,-1,29
 395 636 395 636 395.5 631 c 128,-1,30
 396 626 396 626 396.5 620 c 128,-1,31
 397 614 397 614 397.5 608 c 128,-1,32
 398 602 398 602 398 598 c 2,33,-1
 398 592 l 1,34,-1
 375 6 l 1,35,36
 372 -22 372 -22 356 -28.5 c 128,-1,37
 340 -35 340 -35 315 -37 c 128,-1,38
 290 -39 290 -39 263.5 -37 c 128,-1,39
 237 -35 237 -35 210 -32 c 0,40,41
 114 -21 114 -21 84 -32 c 0,42,43
 74 -35 74 -35 64 -39 c 0,44,45
 39 -50 39 -50 24 -51 c 1,46,-1
 25 -36 l 1,47,48
 50 47 50 47 79 71 c 1,49,50
 95 68 95 68 95 37 c 0,51,52
 95 26 95 26 96.5 17 c 128,-1,53
 98 8 98 8 109 9 c 2,54,-1
 197 17 l 1,55,-1
 234 603 l 1,0,-1
256 408 m 1,56,-1
 257 283 l 1,57,-1
 257 212 l 1,58,59
 253 191 253 191 250 162 c 128,-1,60
 247 133 247 133 245 113.5 c 128,-1,61
 243 94 243 94 243 84 c 2,62,-1
 243 71 l 2,63,64
 243 63 243 63 240.5 46.5 c 128,-1,65
 238 30 238 30 237 20.5 c 128,-1,66
 236 11 236 11 235 7 c 1,67,-1
 324 15 l 2,68,69
 326 15 326 15 330 20.5 c 128,-1,70
 334 26 334 26 335 29 c 2,71,-1
 349 207 l 2,72,73
 349 211 349 211 350 240 c 128,-1,74
 351 269 351 269 351.5 310.5 c 128,-1,75
 352 352 352 352 352.5 401.5 c 128,-1,76
 353 451 353 451 354 496 c 0,77,78
 356 603 356 603 358 626 c 1,79,-1
 357 638 l 1,80,-1
 293 633 l 1,81,-1
 289 623 l 2,82,83
 283 609 283 609 279 595 c 128,-1,84
 275 581 275 581 272 571 c 0,85,86
 263 547 263 547 263 543 c 2,87,-1
 256 479 l 1,88,-1
 256 408 l 1,56,-1
EndSplineSet
EndChar

StartChar: asciicircum
Encoding: 94 94 65
Width: 409
Flags: W
LayerCount: 2
Fore
SplineSet
201 663 m 1,0,-1
 206 664 l 1,1,2
 240 657 240 657 248 651 c 2,3,-1
 379 533 l 2,4,5
 381 531 381 531 386 522.5 c 128,-1,6
 391 514 391 514 391 508 c 0,7,8
 391 496 391 496 366 496 c 1,9,-1
 236 601 l 2,10,11
 232 605 232 605 227.5 606 c 128,-1,12
 223 607 223 607 221 607.5 c 128,-1,13
 219 608 219 608 219 607.5 c 128,-1,14
 219 607 219 607 218 607 c 2,15,-1
 217 607 l 1,16,-1
 69 446 l 2,17,18
 58 435 58 435 52 431 c 128,-1,19
 46 427 46 427 36 427 c 128,-1,20
 26 427 26 427 21.5 429.5 c 128,-1,21
 17 432 17 432 12 440 c 1,22,23
 18 469 18 469 30.5 482 c 128,-1,24
 43 495 43 495 69 508 c 1,25,-1
 198 663 l 1,26,-1
 201 663 l 1,0,-1
EndSplineSet
EndChar

StartChar: underscore
Encoding: 95 95 66
Width: 641
Flags: W
LayerCount: 2
Fore
SplineSet
564 0 m 1,0,1
 447 -8 447 -8 308 -8 c 2,2,-1
 108 -8 l 2,3,4
 48 -8 48 -8 48 15 c 0,5,6
 48 31 48 31 74 44 c 1,7,-1
 340 37 l 1,8,9
 340 37 340 37 555 44 c 0,10,11
 569 44 569 44 579 41 c 128,-1,12
 589 38 589 38 589 25 c 0,13,14
 589 0 589 0 564 0 c 1,0,1
EndSplineSet
EndChar

StartChar: grave
Encoding: 96 96 67
Width: 242
Flags: W
LayerCount: 2
Fore
SplineSet
231 705 m 1,0,-1
 232 700 l 1,1,2
 232 688 232 688 227 685 c 128,-1,3
 222 682 222 682 211 682 c 2,4,-1
 204 682 l 2,5,6
 202 682 202 682 200 683 c 2,7,-1
 12 743 l 2,8,9
 11 743 11 743 11 744 c 2,10,-1
 11 746 l 2,11,12
 11 757 11 757 19 763 c 128,-1,13
 27 769 27 769 32 768.5 c 128,-1,14
 37 768 37 768 38 768 c 2,15,-1
 43 768 l 1,16,-1
 231 708 l 1,17,-1
 231 705 l 1,0,-1
EndSplineSet
EndChar

StartChar: a
Encoding: 97 97 68
Width: 539
Flags: W
LayerCount: 2
Fore
SplineSet
325 35 m 0,0,1
 257 -47 257 -47 153 -47 c 0,2,3
 94 -47 94 -47 54 -4 c 0,4,5
 19 35 19 35 19 71.5 c 128,-1,6
 19 108 19 108 36.5 134.5 c 128,-1,7
 54 161 54 161 86 180 c 0,8,9
 156 223 156 223 298 243 c 0,10,11
 313 245 313 245 321 250 c 0,12,13
 335 260 335 260 335 312 c 0,14,15
 335 368 335 368 299 384 c 0,16,17
 285 391 285 391 265 391 c 128,-1,18
 245 391 245 391 236 384 c 128,-1,19
 227 377 227 377 222 368 c 0,20,21
 216 355 216 355 216 339.5 c 128,-1,22
 216 324 216 324 220.5 320 c 128,-1,23
 225 316 225 316 225 305.5 c 128,-1,24
 225 295 225 295 219 289.5 c 128,-1,25
 213 284 213 284 204 282 c 0,26,27
 191 278 191 278 166 278 c 0,28,29
 148 278 148 278 121 269 c 128,-1,30
 94 260 94 260 90 260 c 0,31,32
 81 260 81 260 76.5 271 c 128,-1,33
 72 282 72 282 72 291.5 c 128,-1,34
 72 301 72 301 79 317 c 128,-1,35
 86 333 86 333 96 350 c 0,36,37
 119 387 119 387 136 400 c 0,38,39
 167 423 167 423 193 437.5 c 128,-1,40
 219 452 219 452 246.5 452 c 128,-1,41
 274 452 274 452 294 450 c 128,-1,42
 314 448 314 448 334 442 c 0,43,44
 405 423 405 423 432 375 c 0,45,46
 457 331 457 331 457 269 c 0,47,48
 457 242 457 242 450 214 c 128,-1,49
 443 186 443 186 443 160 c 128,-1,50
 443 134 443 134 447.5 116.5 c 128,-1,51
 452 99 452 99 460 83 c 0,52,53
 477 46 477 46 498 46 c 0,54,55
 504 46 504 46 509.5 50 c 128,-1,56
 515 54 515 54 520 54 c 0,57,58
 541 54 541 54 541 33 c 0,59,60
 541 13 541 13 523 -2 c 0,61,62
 487 -32 487 -32 454 -32 c 128,-1,63
 421 -32 421 -32 407 -28 c 128,-1,64
 393 -24 393 -24 382 -17 c 128,-1,65
 371 -10 371 -10 363 -2.5 c 128,-1,66
 355 5 355 5 347 13 c 128,-1,67
 339 21 339 21 332.5 28 c 128,-1,68
 326 35 326 35 325 35 c 0,0,1
169 3 m 1,69,70
 144 60 144 60 144 94 c 128,-1,71
 144 128 144 128 152.5 148.5 c 128,-1,72
 161 169 161 169 175 189 c 1,73,74
 118 162 118 162 98 148 c 0,75,76
 55 116 55 116 55 79 c 0,77,78
 55 45 55 45 88 20 c 0,79,80
 117 -1 117 -1 149 -1 c 0,81,82
 160 -1 160 -1 169 3 c 1,69,70
196 153 m 0,83,84
 185 135 185 135 185 119 c 128,-1,85
 185 103 185 103 186 87.5 c 128,-1,86
 187 72 187 72 190 56 c 0,87,88
 199 17 199 17 216 15 c 1,89,90
 241 15 241 15 259 29 c 0,91,92
 291 54 291 54 293 79 c 2,93,-1
 305 204 l 1,94,95
 227 204 227 204 196 153 c 0,83,84
354 383 m 1,96,97
 380 343 380 343 380 298 c 0,98,99
 380 268 380 268 368 237.5 c 128,-1,100
 356 207 356 207 350.5 189 c 128,-1,101
 345 171 345 171 345 146 c 128,-1,102
 345 121 345 121 350.5 97 c 128,-1,103
 356 73 356 73 370 54 c 0,104,105
 400 13 400 13 458 13 c 1,106,107
 404 75 404 75 404 175 c 0,108,109
 404 201 404 201 410 224 c 0,110,111
 421 265 421 265 421 286.5 c 128,-1,112
 421 308 421 308 415.5 323 c 128,-1,113
 410 338 410 338 400 351 c 0,114,115
 380 379 380 379 354 383 c 1,96,97
182 341 m 2,116,-1
 183 385 l 1,117,118
 158 383 158 383 136 354 c 1,119,120
 114 323 114 323 114 298 c 1,121,122
 122 306 122 306 147 306 c 2,123,-1
 178 306 l 2,124,125
 183 306 183 306 186 305 c 1,126,127
 182 316 182 316 182 341 c 2,116,-1
EndSplineSet
EndChar

StartChar: b
Encoding: 98 98 69
Width: 574
Flags: W
LayerCount: 2
Fore
SplineSet
58 566 m 1,0,1
 52 563 52 563 27 563 c 128,-1,2
 2 563 2 563 -8 568 c 128,-1,3
 -18 573 -18 573 -18 584.5 c 128,-1,4
 -18 596 -18 596 -14.5 601.5 c 128,-1,5
 -11 607 -11 607 -5.5 610 c 128,-1,6
 0 613 0 613 5.5 614 c 128,-1,7
 11 615 11 615 16.5 616.5 c 128,-1,8
 22 618 22 618 38 624 c 2,9,-1
 73 635 l 1,10,11
 130 654 130 654 146 662 c 128,-1,12
 162 670 162 670 176 676 c 0,13,14
 210 693 210 693 226 693 c 128,-1,15
 242 693 242 693 247.5 685 c 128,-1,16
 253 677 253 677 253 663.5 c 128,-1,17
 253 650 253 650 247 642.5 c 128,-1,18
 241 635 241 635 239.5 623 c 128,-1,19
 238 611 238 611 233.5 581.5 c 128,-1,20
 229 552 229 552 224 514 c 0,21,22
 209 402 209 402 208 361 c 1,23,-1
 230 384 l 1,24,25
 254 407 254 407 280 413 c 128,-1,26
 306 419 306 419 344.5 419 c 128,-1,27
 383 419 383 419 421 401.5 c 128,-1,28
 459 384 459 384 486 354 c 0,29,30
 541 290 541 290 541 190 c 0,31,32
 541 115 541 115 479 61 c 0,33,34
 414 5 414 5 314 -11 c 1,35,36
 288 -11 288 -11 271 -5 c 128,-1,37
 254 1 254 1 232 14 c 1,38,39
 229 18 229 18 227.5 19.5 c 128,-1,40
 226 21 226 21 220 21 c 1,41,42
 206 14 206 14 191 4 c 128,-1,43
 176 -6 176 -6 160 -15 c 0,44,45
 123 -37 123 -37 98.5 -37 c 128,-1,46
 74 -37 74 -37 69 -28.5 c 128,-1,47
 64 -20 64 -20 64 10.5 c 128,-1,48
 64 41 64 41 69 82 c 128,-1,49
 74 123 74 123 74 162 c 128,-1,50
 74 201 74 201 73 253.5 c 128,-1,51
 72 306 72 306 70 362 c 0,52,53
 65 488 65 488 58 566 c 1,0,1
101 510 m 1,54,-1
 103 371 l 1,55,56
 105 311 105 311 108.5 250 c 128,-1,57
 112 189 112 189 112 148.5 c 128,-1,58
 112 108 112 108 111 94 c 128,-1,59
 110 80 110 80 108 64 c 0,60,61
 105 25 105 25 105 4 c 1,62,63
 110 8 110 8 124 16 c 128,-1,64
 138 24 138 24 152 33 c 0,65,66
 189 56 189 56 189 64 c 0,67,68
 189 67 189 67 183 78 c 0,69,70
 172 98 172 98 170 107 c 128,-1,71
 168 116 168 116 166.5 140 c 128,-1,72
 165 164 165 164 164.5 191 c 128,-1,73
 164 218 164 218 164 242 c 2,74,-1
 164 275 l 2,75,76
 164 398 164 398 193 636 c 1,77,-1
 98 597 l 1,78,-1
 101 544 l 1,79,-1
 101 510 l 1,54,-1
356 358 m 0,80,81
 344 369 344 369 328.5 369 c 128,-1,82
 313 369 313 369 292 362 c 128,-1,83
 271 355 271 355 252 342 c 0,84,85
 208 312 208 312 208 274 c 2,86,-1
 208 127 l 2,87,88
 208 94 208 94 237 64 c 0,89,90
 266 33 266 33 303 33 c 0,91,92
 341 33 341 33 366 100 c 0,93,94
 389 161 389 161 389 237 c 0,95,96
 389 326 389 326 356 358 c 0,80,81
411 361 m 1,97,98
 427 292 427 292 427 233 c 0,99,100
 427 121 427 121 395 49 c 1,101,-1
 420 58 l 1,102,103
 441 68 441 68 460 99 c 1,104,105
 496 154 496 154 496 187.5 c 128,-1,106
 496 221 496 221 487.5 252 c 128,-1,107
 479 283 479 283 466 306 c 0,108,109
 438 357 438 357 411 361 c 1,97,98
EndSplineSet
EndChar

StartChar: c
Encoding: 99 99 70
Width: 547
Flags: W
LayerCount: 2
Fore
SplineSet
338.5 415.5 m 128,-1,1
 364 410 364 410 401 410 c 128,-1,2
 438 410 438 410 472 437 c 1,3,4
 485 437 485 437 496.5 428.5 c 128,-1,5
 508 420 508 420 508 419 c 2,6,-1
 508 305 l 2,7,8
 508 295 508 295 496 288 c 128,-1,9
 484 281 484 281 473.5 281 c 128,-1,10
 463 281 463 281 448.5 295.5 c 128,-1,11
 434 310 434 310 414 328 c 0,12,13
 361 374 361 374 304 374 c 0,14,15
 283 374 283 374 266.5 352 c 128,-1,16
 250 330 250 330 240 305 c 128,-1,17
 230 280 230 280 226 256 c 1,18,19
 219 223 219 223 219 182.5 c 128,-1,20
 219 142 219 142 226.5 112.5 c 128,-1,21
 234 83 234 83 246 60 c 0,22,23
 275 6 275 6 313 6 c 0,24,25
 383 6 383 6 446 67 c 0,26,27
 452 74 452 74 455 82.5 c 128,-1,28
 458 91 458 91 462 98 c 0,29,30
 471 116 471 116 490 116 c 128,-1,31
 509 116 509 116 515 106 c 128,-1,32
 521 96 521 96 521 86 c 1,33,34
 512 68 512 68 491.5 47 c 128,-1,35
 471 26 471 26 449.5 11 c 128,-1,36
 428 -4 428 -4 404 -13 c 0,37,38
 361 -29 361 -29 299.5 -29 c 128,-1,39
 238 -29 238 -29 190.5 -18 c 128,-1,40
 143 -7 143 -7 108 20 c 0,41,42
 33 76 33 76 33 204 c 0,43,44
 33 292 33 292 96 352 c 1,45,46
 166 421 166 421 283 421 c 0,47,0
 313 421 313 421 338.5 415.5 c 128,-1,1
214 20 m 1,48,49
 172 46 172 46 172 180 c 0,50,51
 172 239 172 239 183 293 c 128,-1,52
 194 347 194 347 199 362 c 1,53,54
 149 345 149 345 129 319 c 0,55,56
 89 269 89 269 89 179 c 0,57,58
 89 120 89 120 120 72 c 0,59,60
 155 19 155 19 205 19 c 2,61,-1
 209 19 l 2,62,63
 211 19 211 19 212 19.5 c 128,-1,64
 213 20 213 20 214 20 c 1,48,49
462 337 m 1,65,66
 468 344 468 344 468 355 c 0,67,68
 468 369 468 369 462 387 c 1,69,-1
 418 365 l 1,70,-1
 462 337 l 1,65,66
EndSplineSet
EndChar

StartChar: d
Encoding: 100 100 71
Width: 665
Flags: W
LayerCount: 2
Fore
SplineSet
426.5 429.5 m 128,-1,1
 429 461 429 461 429 518 c 128,-1,2
 429 575 429 575 418 575 c 0,3,4
 400 575 400 575 385.5 567 c 128,-1,5
 371 559 371 559 355 559 c 128,-1,6
 339 559 339 559 333.5 566 c 128,-1,7
 328 573 328 573 328 582 c 128,-1,8
 328 591 328 591 335 600 c 128,-1,9
 342 609 342 609 350 610.5 c 128,-1,10
 358 612 358 612 385 619 c 128,-1,11
 412 626 412 626 443 635 c 128,-1,12
 474 644 474 644 501.5 651.5 c 128,-1,13
 529 659 529 659 534 660 c 0,14,15
 550 666 550 666 557 671.5 c 128,-1,16
 564 677 564 677 568 678 c 0,17,18
 577 682 577 682 592 682 c 128,-1,19
 607 682 607 682 612 675.5 c 128,-1,20
 617 669 617 669 617 654.5 c 128,-1,21
 617 640 617 640 610 631 c 128,-1,22
 603 622 603 622 599.5 592 c 128,-1,23
 596 562 596 562 589.5 509 c 128,-1,24
 583 456 583 456 576 401 c 0,25,26
 561 280 561 280 557.5 224 c 128,-1,27
 554 168 554 168 552 153 c 128,-1,28
 550 138 550 138 548 124 c 0,29,30
 543 87 543 87 543 66 c 128,-1,31
 543 45 543 45 547 28 c 1,32,33
 576 30 576 30 597 44 c 128,-1,34
 618 58 618 58 638 78 c 1,35,36
 662 76 662 76 662 54.5 c 128,-1,37
 662 33 662 33 648 18.5 c 128,-1,38
 634 4 634 4 614 -5 c 0,39,40
 576 -22 576 -22 545.5 -22 c 128,-1,41
 515 -22 515 -22 498.5 -13 c 128,-1,42
 482 -4 482 -4 468 10 c 0,43,44
 445 33 445 33 427 72 c 1,45,46
 389 24 389 24 331 -7.5 c 128,-1,47
 273 -39 273 -39 215.5 -39 c 128,-1,48
 158 -39 158 -39 124.5 -21 c 128,-1,49
 91 -3 91 -3 71 28 c 0,50,51
 33 85 33 85 33 190 c 0,52,53
 33 235 33 235 60 275.5 c 128,-1,54
 87 316 87 316 124.5 346.5 c 128,-1,55
 162 377 162 377 200.5 395 c 128,-1,56
 239 413 239 413 271 413 c 128,-1,57
 303 413 303 413 328 407.5 c 128,-1,58
 353 402 353 402 368.5 395 c 128,-1,59
 384 388 384 388 393 381 c 128,-1,60
 402 374 402 374 410 371 c 1,61,0
 424 398 424 398 426.5 429.5 c 128,-1,1
188 349 m 1,62,63
 83 280 83 280 83 179 c 0,64,65
 83 90 83 90 123 46 c 0,66,67
 155 10 155 10 207 10 c 0,68,69
 209 10 209 10 210 10.5 c 128,-1,70
 211 11 211 11 212 11 c 1,71,72
 168 44 168 44 157 144 c 0,73,74
 154 171 154 171 154 196 c 1,75,76
 161 286 161 286 188 349 c 1,62,63
208 278 m 128,-1,78
 199 253 199 253 199 226 c 128,-1,79
 199 199 199 199 202.5 164.5 c 128,-1,80
 206 130 206 130 216 98 c 0,81,82
 238 23 238 23 284 23 c 0,83,84
 336 23 336 23 370 74 c 0,85,86
 397 114 397 114 411 180 c 0,87,88
 421 226 421 226 421 255 c 128,-1,89
 421 284 421 284 413 300 c 128,-1,90
 405 316 405 316 391 330 c 0,91,92
 358 361 358 361 325.5 361 c 128,-1,93
 293 361 293 361 271 350.5 c 128,-1,94
 249 340 249 340 233 321.5 c 128,-1,77
 217 303 217 303 208 278 c 128,-1,78
463 213 m 1,95,-1
 460 136 l 1,96,97
 460 82 460 82 486 45 c 0,98,99
 495 33 495 33 506 30 c 1,100,101
 506 61 506 61 513 142 c 128,-1,102
 520 223 520 223 527 278 c 0,103,104
 539 372 539 372 553 605 c 1,105,106
 507 605 507 605 488 599 c 128,-1,107
 469 593 469 593 469 587 c 1,108,-1
 468 584 l 1,109,-1
 470 527 l 1,110,-1
 460 332 l 1,111,-1
 463 213 l 1,95,-1
EndSplineSet
EndChar

StartChar: e
Encoding: 101 101 72
Width: 552
Flags: W
LayerCount: 2
Fore
SplineSet
247 129 m 1,0,-1
 246 116 l 1,1,2
 246 72 246 72 268 39 c 0,3,4
 276 28 276 28 282 24.5 c 128,-1,5
 288 21 288 21 298 21 c 2,6,-1
 312 21 l 2,7,8
 382 21 382 21 442 54 c 0,9,10
 453 60 453 60 464.5 72.5 c 128,-1,11
 476 85 476 85 487.5 97.5 c 128,-1,12
 499 110 499 110 509 119.5 c 128,-1,13
 519 129 519 129 527 129 c 128,-1,14
 535 129 535 129 539 120 c 128,-1,15
 543 111 543 111 543 107 c 0,16,17
 544 97 544 97 518.5 69 c 128,-1,18
 493 41 493 41 461.5 23 c 128,-1,19
 430 5 430 5 394 -6 c 0,20,21
 325 -29 325 -29 256 -29 c 128,-1,22
 187 -29 187 -29 139 5 c 128,-1,23
 91 39 91 39 53 91 c 0,24,25
 34 117 34 117 31 146.5 c 128,-1,26
 28 176 28 176 28 213.5 c 128,-1,27
 28 251 28 251 59 295 c 128,-1,28
 90 339 90 339 135 374.5 c 128,-1,29
 180 410 180 410 231.5 432 c 128,-1,30
 283 454 283 454 317 454 c 128,-1,31
 351 454 351 454 383 448.5 c 128,-1,32
 415 443 415 443 442 430 c 0,33,34
 508 397 508 397 508 334 c 0,35,36
 508 250 508 250 418 190 c 1,37,38
 342 138 342 138 247 129 c 1,0,-1
223 29 m 1,39,40
 188 122 188 122 188 185.5 c 128,-1,41
 188 249 188 249 206 299.5 c 128,-1,42
 224 350 224 350 247 395 c 1,43,44
 192 379 192 379 138 320 c 0,45,46
 78 254 78 254 78 191 c 0,47,48
 78 95 78 95 169 52 c 0,49,50
 195 39 195 39 223 29 c 1,39,40
234 203 m 0,51,52
 234 193 234 193 244 186 c 128,-1,53
 254 179 254 179 272 179 c 0,54,55
 305 179 305 179 346 238 c 1,56,57
 383 294 383 294 383 338 c 0,58,59
 383 362 383 362 372 377 c 0,60,61
 352 404 352 404 329.5 404 c 128,-1,62
 307 404 307 404 289.5 382.5 c 128,-1,63
 272 361 272 361 260 330 c 0,64,65
 234 264 234 264 234 203 c 0,51,52
410 397 m 1,66,67
 428 370 428 370 428 334.5 c 128,-1,68
 428 299 428 299 405.5 262.5 c 128,-1,69
 383 226 383 226 354 191 c 1,70,71
 414 225 414 225 433 247 c 0,72,73
 467 286 467 286 467 326 c 0,74,75
 467 342 467 342 456 361 c 0,76,77
 435 397 435 397 410 397 c 1,66,67
EndSplineSet
EndChar

StartChar: f
Encoding: 102 102 73
Width: 431
Flags: W
LayerCount: 2
Fore
SplineSet
393 19 m 0,0,1
 393 -5 393 -5 353 -5 c 0,2,3
 351 -5 351 -5 329 -4 c 128,-1,4
 307 -3 307 -3 268 -2.5 c 128,-1,5
 229 -2 229 -2 174 -1 c 128,-1,6
 119 0 119 0 53 0 c 0,7,8
 45 0 45 0 38 5 c 128,-1,9
 31 10 31 10 31 24 c 128,-1,10
 31 38 31 38 40.5 45 c 128,-1,11
 50 52 50 52 63.5 54 c 128,-1,12
 77 56 77 56 91.5 57 c 128,-1,13
 106 58 106 58 117 66 c 1,14,-1
 118 87 l 1,15,16
 118 124 118 124 109 171 c 0,17,18
 92 260 92 260 92 303 c 1,19,20
 72 305 72 305 53.5 308 c 128,-1,21
 35 311 35 311 35 325 c 0,22,23
 35 345 35 345 70 349 c 0,24,25
 78 350 78 350 85 353 c 1,26,27
 85 485 85 485 93.5 528 c 128,-1,28
 102 571 102 571 111.5 591 c 128,-1,29
 121 611 121 611 135 628 c 1,30,31
 174 667 174 667 202 678 c 0,32,33
 240 692 240 692 281 692 c 128,-1,34
 322 692 322 692 353.5 678 c 128,-1,35
 385 664 385 664 414 653 c 1,36,37
 428 653 428 653 436 660 c 0,38,39
 451 673 451 673 462.5 673 c 128,-1,40
 474 673 474 673 489 667 c 1,41,42
 489 667 489 667 502 510 c 1,43,44
 502 496 502 496 499 483.5 c 128,-1,45
 496 471 496 471 483 471 c 0,46,47
 462 471 462 471 402 535 c 0,48,49
 390 548 390 548 382.5 565 c 128,-1,50
 375 582 375 582 367 598 c 128,-1,51
 359 614 359 614 348.5 625 c 128,-1,52
 338 636 338 636 324 636 c 128,-1,53
 310 636 310 636 296.5 634.5 c 128,-1,54
 283 633 283 633 278.5 620 c 128,-1,55
 274 607 274 607 271.5 597.5 c 128,-1,56
 269 588 269 588 267.5 578.5 c 128,-1,57
 266 569 266 569 266 557 c 2,58,-1
 266 527 l 2,59,60
 266 360 266 360 298 360 c 0,61,62
 314 360 314 360 330 362 c 0,63,64
 359 367 359 367 362 367 c 0,65,66
 386 367 386 367 386 347 c 0,67,68
 386 322 386 322 316 312 c 0,69,70
 302 310 302 310 298 310 c 1,71,72
 324 241 324 241 342 53 c 1,73,74
 345 45 345 45 353 44 c 128,-1,75
 361 43 361 43 370 42 c 128,-1,76
 379 41 379 41 386 37 c 128,-1,77
 393 33 393 33 393 19 c 0,0,1
233 52 m 1,78,79
 298 52 298 52 298 69 c 0,80,81
 298 145 298 145 258 285 c 1,82,83
 235 370 235 370 230 427 c 0,84,85
 221 513 221 513 221 631 c 1,86,87
 178 629 178 629 148 548 c 0,88,89
 123 481 123 481 123 435 c 0,90,91
 123 288 123 288 160 110 c 0,92,93
 161 102 161 102 161 94 c 0,94,95
 161 65 161 65 179 53 c 1,96,-1
 233 52 l 1,78,79
414 597 m 1,97,98
 423 583 423 583 452 547 c 1,99,-1
 452 604 l 1,100,101
 433 604 433 604 414 597 c 1,97,98
EndSplineSet
EndChar

StartChar: g
Encoding: 103 103 74
Width: 599
Flags: W
LayerCount: 2
Fore
SplineSet
522 365 m 1,0,1
 530 280 530 280 530 222.5 c 128,-1,2
 530 165 530 165 526.5 116.5 c 128,-1,3
 523 68 523 68 512 22 c 0,4,5
 482 -103 482 -103 378 -200 c 0,6,7
 300 -274 300 -274 174 -274 c 0,8,9
 115 -274 115 -274 76 -234 c 1,10,11
 37 -196 37 -196 37 -130 c 0,12,13
 37 -80 37 -80 50 -66 c 1,14,15
 70 -42 70 -42 116 -32 c 1,16,-1
 140 -31 l 2,17,18
 164 -31 164 -31 178 -29 c 1,19,20
 203 -42 203 -42 203 -74 c 1,21,-1
 195 -155 l 2,22,23
 195 -160 195 -160 202 -183 c 0,24,25
 213 -224 213 -224 218 -226 c 1,26,27
 264 -217 264 -217 296 -180.5 c 128,-1,28
 328 -144 328 -144 347 -96 c 0,29,30
 383 -4 383 -4 383 102 c 1,31,32
 358 63 358 63 300 38 c 0,33,34
 213 2 213 2 136 29 c 0,35,36
 72 52 72 52 48 112 c 0,37,38
 35 143 35 143 35 181 c 128,-1,39
 35 219 35 219 48.5 259.5 c 128,-1,40
 62 300 62 300 88 334 c 0,41,42
 147 410 147 410 239 410 c 0,43,44
 261 410 261 410 298 391 c 0,45,46
 360 359 360 359 380 336 c 1,47,48
 376 348 376 348 376 373 c 2,49,-1
 376 401 l 2,50,51
 376 426 376 426 395 431.5 c 128,-1,52
 414 437 414 437 436 437 c 128,-1,53
 458 437 458 437 478.5 436.5 c 128,-1,54
 499 436 499 436 517 434 c 0,55,56
 558 428 558 428 558 408 c 0,57,58
 558 398 558 398 547.5 389 c 128,-1,59
 537 380 537 380 531 375.5 c 128,-1,60
 525 371 525 371 522 365 c 1,0,1
97 -129 m 0,61,62
 97 -198 97 -198 130 -234 c 0,63,64
 143 -248 143 -248 162 -248 c 0,65,66
 164 -248 164 -248 165.5 -247.5 c 128,-1,67
 167 -247 167 -247 169 -247 c 1,68,69
 168 -241 168 -241 164.5 -226 c 128,-1,70
 161 -211 161 -211 156 -190 c 0,71,72
 144 -139 144 -139 137 -92 c 1,73,74
 130 -93 130 -93 123 -93.5 c 128,-1,75
 116 -94 116 -94 110 -97 c 0,76,77
 97 -104 97 -104 97 -129 c 0,61,62
470 399 m 1,78,79
 429 394 429 394 409 384 c 1,80,81
 425 298 425 298 425 103 c 0,82,83
 425 -50 425 -50 364 -155 c 1,84,85
 468 -70 468 -70 484 81 c 0,86,87
 488 124 488 124 488 153 c 128,-1,88
 488 182 488 182 486.5 208.5 c 128,-1,89
 485 235 485 235 483 267 c 0,90,91
 479 328 479 328 470 399 c 1,78,79
270.5 76 m 128,-1,93
 287 76 287 76 304.5 81.5 c 128,-1,94
 322 87 322 87 336 103 c 0,95,96
 370 140 370 140 370 224 c 0,97,98
 370 281 370 281 346 308 c 128,-1,99
 322 335 322 335 282 335 c 0,100,101
 253 335 253 335 237 286 c 0,102,103
 225 250 225 250 225 190.5 c 128,-1,104
 225 131 225 131 239.5 103.5 c 128,-1,92
 254 76 254 76 270.5 76 c 128,-1,93
204 76 m 1,105,106
 177 157 177 157 177 196 c 0,107,108
 177 282 177 282 213 352 c 1,109,110
 163 346 163 346 121 286 c 0,111,112
 82 231 82 231 82 181 c 128,-1,113
 82 131 82 131 115 103 c 128,-1,114
 148 75 148 75 197 75 c 0,115,116
 199 75 199 75 200.5 75.5 c 128,-1,117
 202 76 202 76 204 76 c 1,105,106
EndSplineSet
EndChar

StartChar: h
Encoding: 104 104 75
Width: 660
Flags: W
LayerCount: 2
Fore
SplineSet
273 25 m 1,0,1
 296 25 296 25 302 0 c 1,2,3
 302 -18 302 -18 291 -21.5 c 128,-1,4
 280 -25 280 -25 263.5 -25 c 128,-1,5
 247 -25 247 -25 236.5 -24 c 128,-1,6
 226 -23 226 -23 216 -22 c 0,7,8
 191 -18 191 -18 157.5 -18 c 128,-1,9
 124 -18 124 -18 109.5 -19.5 c 128,-1,10
 95 -21 95 -21 82 -24 c 128,-1,11
 69 -27 69 -27 56 -30.5 c 128,-1,12
 43 -34 43 -34 27 -38 c 1,13,-1
 21 -38 l 2,14,15
 -11 -38 -11 -38 -11 -9 c 0,16,17
 -11 10 -11 10 18 16 c 0,18,19
 51 22 51 22 68.5 42 c 128,-1,20
 86 62 86 62 93 80 c 0,21,22
 102 104 102 104 102 162 c 1,23,24
 114 402 114 402 114 559 c 1,25,-1
 93 558 l 2,26,27
 78 558 78 558 71 563 c 128,-1,28
 64 568 64 568 64 584 c 128,-1,29
 64 600 64 600 77 602 c 128,-1,30
 90 604 90 604 112 610 c 0,31,32
 195 630 195 630 247 662 c 1,33,34
 263 682 263 682 272 682 c 128,-1,35
 281 682 281 682 285.5 672.5 c 128,-1,36
 290 663 290 663 290 651 c 128,-1,37
 290 639 290 639 281.5 624 c 128,-1,38
 273 609 273 609 270.5 592 c 128,-1,39
 268 575 268 575 264.5 545.5 c 128,-1,40
 261 516 261 516 258 488 c 0,41,42
 251 421 251 421 251 417 c 128,-1,43
 251 413 251 413 251.5 402 c 128,-1,44
 252 391 252 391 252 387 c 1,45,46
 270 405 270 405 299.5 425 c 128,-1,47
 329 445 329 445 345 448.5 c 128,-1,48
 361 452 361 452 392 452 c 0,49,50
 462 452 462 452 514 400 c 0,51,52
 572 342 572 342 576 223 c 0,53,54
 577 191 577 191 577 161 c 2,55,-1
 577 148 l 1,56,57
 584 78 584 78 596 69 c 1,58,-1
 617 70 l 1,59,60
 648 70 648 70 656.5 64.5 c 128,-1,61
 665 59 665 59 665 37 c 1,62,63
 653 13 653 13 569 -3 c 0,64,65
 548 -7 548 -7 533 -7 c 0,66,67
 482 -7 482 -7 451.5 14 c 128,-1,68
 421 35 421 35 403 82 c 0,69,70
 401 87 401 87 397.5 95.5 c 128,-1,71
 394 104 394 104 391 112.5 c 128,-1,72
 388 121 388 121 385.5 128 c 128,-1,73
 383 135 383 135 383 137 c 2,74,-1
 383 319 l 2,75,76
 383 342 383 342 371 356.5 c 128,-1,77
 359 371 359 371 340.5 371 c 128,-1,78
 322 371 322 371 307.5 357 c 128,-1,79
 293 343 293 343 280 321 c 0,80,81
 251 269 251 269 243 195 c 0,82,83
 241 176 241 176 238 157 c 0,84,85
 233 115 233 115 233 106 c 2,86,-1
 239 31 l 1,87,88
 246 24 246 24 256 24 c 2,89,-1
 273 25 l 1,0,1
215 462 m 2,90,-1
 233 576 l 1,91,92
 235 580 235 580 235 604 c 1,93,94
 220 604 220 604 199 596 c 0,95,96
 160 582 160 582 158 569 c 0,97,98
 156 553 156 553 155.5 520.5 c 128,-1,99
 155 488 155 488 154 428 c 0,100,101
 150 276 150 276 133 56 c 1,102,-1
 133 50 l 2,103,104
 133 38 133 38 127 31 c 1,105,-1
 196 31 l 1,106,-1
 196 220 l 1,107,-1
 215 419 l 1,108,-1
 214 450 l 1,109,-1
 214 458 l 2,110,111
 214 460 214 460 215 462 c 2,90,-1
439 304 m 1,112,-1
 434 216 l 1,113,114
 434 133 434 133 465 69 c 1,115,116
 465 55 465 55 524 45 c 0,117,118
 535 43 535 43 538 43 c 128,-1,119
 541 43 541 43 550 45 c 128,-1,120
 559 47 559 47 559 51 c 1,121,-1
 537 106 l 1,122,-1
 537 270 l 1,123,124
 534 276 534 276 526 297.5 c 128,-1,125
 518 319 518 319 506 342 c 0,126,127
 473 401 473 401 430 401 c 1,128,129
 428 400 428 400 426 400 c 2,130,-1
 421 400 l 1,131,132
 439 359 439 359 439 304 c 1,112,-1
414 407 m 256,133,134
 414 410 414 410 412 410 c 0,135,136
 408 410 408 410 408 408 c 0,137,138
 408 404 408 404 412 404 c 0,139,140
 414 404 414 404 414 407 c 256,133,134
EndSplineSet
EndChar

StartChar: i
Encoding: 105 105 76
Width: 399
Flags: W
LayerCount: 2
Fore
SplineSet
211 -8 m 0,0,1
 158 -8 158 -8 74 -22 c 1,2,3
 49 -22 49 -22 49 4 c 0,4,5
 49 23 49 23 59.5 28 c 128,-1,6
 70 33 70 33 84 33.5 c 128,-1,7
 98 34 98 34 111.5 35 c 128,-1,8
 125 36 125 36 130 46 c 1,9,-1
 130 56 l 1,10,-1
 131 87 l 1,11,-1
 131 97 l 2,12,13
 131 217 131 217 111 304 c 1,14,15
 99 322 99 322 82 325 c 128,-1,16
 65 328 65 328 49.5 328.5 c 128,-1,17
 34 329 34 329 22.5 332.5 c 128,-1,18
 11 336 11 336 11 350 c 128,-1,19
 11 364 11 364 25.5 372 c 128,-1,20
 40 380 40 380 59.5 386 c 128,-1,21
 79 392 79 392 97.5 396.5 c 128,-1,22
 116 401 116 401 139 409.5 c 128,-1,23
 162 418 162 418 202.5 433 c 128,-1,24
 243 448 243 448 271 448 c 128,-1,25
 299 448 299 448 302.5 442.5 c 128,-1,26
 306 437 306 437 306 417 c 128,-1,27
 306 397 306 397 300 385 c 1,28,-1
 299 212 l 2,29,30
 299 157 299 157 302 141 c 0,31,32
 306 121 306 121 314.5 90.5 c 128,-1,33
 323 60 323 60 335 49.5 c 128,-1,34
 347 39 347 39 360 30.5 c 128,-1,35
 373 22 373 22 383.5 15.5 c 128,-1,36
 394 9 394 9 394 4 c 0,37,38
 394 -13 394 -13 382 -17.5 c 128,-1,39
 370 -22 370 -22 355 -22 c 1,40,-1
 343 -21 l 1,41,42
 301 -8 301 -8 211 -8 c 0,0,1
130 360 m 1,43,44
 154 345 154 345 161 291 c 0,45,46
 161 288 161 288 163.5 262 c 128,-1,47
 166 236 166 236 168 200 c 0,48,49
 174 92 174 92 174 54 c 1,50,-1
 186 41 l 1,51,-1
 286 41 l 1,52,53
 283 48 283 48 279 62.5 c 128,-1,54
 275 77 275 77 271 91.5 c 128,-1,55
 267 106 267 106 264 117 c 2,56,-1
 261 127 l 1,57,-1
 255 372 l 1,58,-1
 249 391 l 1,59,60
 231 385 231 385 213 385 c 128,-1,61
 195 385 195 385 185 382 c 128,-1,62
 175 379 175 379 164 376 c 0,63,64
 138 368 138 368 130 360 c 1,43,44
147 484 m 0,65,66
 80 484 80 484 80 562.5 c 128,-1,67
 80 641 80 641 168 685 c 1,68,69
 210 685 210 685 235.5 661.5 c 128,-1,70
 261 638 261 638 261 597 c 256,71,72
 261 556 261 556 224 520 c 0,73,74
 186 484 186 484 147 484 c 0,65,66
224 591 m 1,75,-1
 211 616 l 1,76,77
 211 630 211 630 204 636 c 128,-1,78
 197 642 197 642 189 642 c 1,79,80
 146 628 146 628 129 593 c 0,81,82
 123 581 123 581 123 564.5 c 128,-1,83
 123 548 123 548 129.5 538.5 c 128,-1,84
 136 529 136 529 151.5 529 c 128,-1,85
 167 529 167 529 179.5 536.5 c 128,-1,86
 192 544 192 544 202 554 c 0,87,88
 224 579 224 579 224 591 c 1,75,-1
EndSplineSet
EndChar

StartChar: j
Encoding: 106 106 77
Width: 463
Flags: W
LayerCount: 2
Fore
SplineSet
159 321 m 1,0,-1
 187 320 l 2,1,2
 205 320 205 320 208.5 323 c 128,-1,3
 212 326 212 326 218 328.5 c 128,-1,4
 224 331 224 331 242 334 c 0,5,6
 283 341 283 341 384 346 c 0,7,8
 386 346 386 346 394.5 340 c 128,-1,9
 403 334 403 334 403 327 c 2,10,-1
 403 257 l 2,11,12
 403 65 403 65 394 -6.5 c 128,-1,13
 385 -78 385 -78 372.5 -115 c 128,-1,14
 360 -152 360 -152 345 -174 c 128,-1,15
 330 -196 330 -196 315.5 -211 c 128,-1,16
 301 -226 301 -226 282 -237 c 0,17,18
 237 -262 237 -262 179 -262 c 0,19,20
 131 -262 131 -262 74 -241 c 0,21,22
 61 -236 61 -236 59 -236 c 1,23,24
 31 -208 31 -208 10 -187 c 128,-1,25
 -11 -166 -11 -166 -14 -145.5 c 128,-1,26
 -17 -125 -17 -125 -17 -105 c 2,27,-1
 -16 -24 l 1,28,-1
 3 -4 l 1,29,30
 98 -4 98 -4 108 -22 c 0,31,32
 111 -29 111 -29 116 -43 c 1,33,34
 109 -43 109 -43 109 -75 c 2,35,-1
 109 -111 l 2,36,37
 109 -137 109 -137 118.5 -160 c 128,-1,38
 128 -183 128 -183 147 -193 c 1,39,40
 187 -193 187 -193 205 -173 c 128,-1,41
 223 -153 223 -153 230 -108 c 0,42,43
 248 18 248 18 248 111 c 0,44,45
 248 168 248 168 239.5 193.5 c 128,-1,46
 231 219 231 219 220.5 234.5 c 128,-1,47
 210 250 210 250 197.5 256 c 128,-1,48
 185 262 185 262 175 266.5 c 128,-1,49
 165 271 165 271 158.5 278.5 c 128,-1,50
 152 286 152 286 152 302 c 128,-1,51
 152 318 152 318 159 321 c 1,0,-1
291 156 m 0,52,53
 292 132 292 132 292 121 c 128,-1,54
 292 110 292 110 290.5 92.5 c 128,-1,55
 289 75 289 75 286.5 47.5 c 128,-1,56
 284 20 284 20 280.5 -14 c 128,-1,57
 277 -48 277 -48 272 -82 c 0,58,59
 260 -159 260 -159 248 -193 c 1,60,61
 296 -175 296 -175 331 -94 c 0,62,63
 359 -30 359 -30 359 7 c 2,64,-1
 359 304 l 1,65,-1
 319 304 l 2,66,67
 257 304 257 304 234 288 c 1,68,69
 287 245 287 245 291 156 c 0,52,53
76 -187 m 1,70,-1
 53 -67 l 1,71,72
 50 -60 50 -60 34 -60 c 1,73,-1
 34 -137 l 1,74,-1
 76 -187 l 1,70,-1
190 440 m 1,75,-1
 191 464 l 1,76,77
 195 485 195 485 216 505 c 0,78,79
 253 539 253 539 278 539 c 0,80,81
 288 539 288 539 311 521 c 0,82,83
 354 487 354 487 354 470 c 0,84,85
 354 428 354 428 330 402 c 128,-1,86
 306 376 306 376 266.5 376 c 128,-1,87
 227 376 227 376 208.5 388 c 128,-1,88
 190 400 190 400 190 440 c 1,75,-1
279 471 m 0,89,90
 241 471 241 471 241 438 c 0,91,92
 241 420 241 420 263 420 c 256,93,94
 285 420 285 420 300 442 c 0,95,96
 304 448 304 448 304 458 c 0,97,98
 304 471 304 471 279 471 c 0,89,90
EndSplineSet
EndChar

StartChar: k
Encoding: 107 107 78
Width: 618
Flags: W
LayerCount: 2
Fore
SplineSet
624 12 m 0,0,1
 624 -11 624 -11 532 -11 c 0,2,3
 483 -11 483 -11 469.5 -8 c 128,-1,4
 456 -5 456 -5 438 0 c 128,-1,5
 420 5 420 5 403.5 23.5 c 128,-1,6
 387 42 387 42 374.5 65.5 c 128,-1,7
 362 89 362 89 351.5 115 c 128,-1,8
 341 141 341 141 329 162 c 0,9,10
 301 212 301 212 263 212 c 0,11,12
 246 212 246 212 242 210 c 1,13,-1
 229 198 l 1,14,15
 227 182 227 182 226 172 c 128,-1,16
 225 162 225 162 224 153 c 128,-1,17
 223 144 223 144 223 140 c 128,-1,18
 223 136 223 136 224 122.5 c 128,-1,19
 225 109 225 109 226 94 c 0,20,21
 227 59 227 59 229 47 c 1,22,23
 232 37 232 37 244.5 35 c 128,-1,24
 257 33 257 33 270.5 31 c 128,-1,25
 284 29 284 29 295 23 c 128,-1,26
 306 17 306 17 306 1 c 256,27,28
 306 -15 306 -15 293 -15 c 0,29,30
 285 -15 285 -15 267 -16 c 128,-1,31
 249 -17 249 -17 226 -18 c 128,-1,32
 203 -19 203 -19 177.5 -20.5 c 128,-1,33
 152 -22 152 -22 128.5 -23.5 c 128,-1,34
 105 -25 105 -25 87 -26 c 128,-1,35
 69 -27 69 -27 60 -28 c 1,36,37
 28 -28 28 -28 28 -3 c 0,38,39
 28 10 28 10 36 17.5 c 128,-1,40
 44 25 44 25 53.5 32.5 c 128,-1,41
 63 40 63 40 71 50 c 128,-1,42
 79 60 79 60 79 79 c 1,43,44
 93 180 93 180 93 223 c 2,45,-1
 93 301 l 2,46,47
 93 419 93 419 79 511 c 0,48,49
 74 539 74 539 50 542 c 0,50,51
 40 544 40 544 29 546.5 c 128,-1,52
 18 549 18 549 10 560 c 1,53,-1
 9 564 l 1,54,55
 9 578 9 578 22 585 c 128,-1,56
 35 592 35 592 48 592 c 1,57,-1
 54 591 l 1,58,59
 69 597 69 597 107 614.5 c 128,-1,60
 145 632 145 632 164.5 641 c 128,-1,61
 184 650 184 650 190 652.5 c 128,-1,62
 196 655 196 655 202 660.5 c 128,-1,63
 208 666 208 666 214 672 c 1,64,65
 232 686 232 686 243 686 c 0,66,67
 261 686 261 686 261 659 c 256,68,69
 261 632 261 632 254 617 c 1,70,71
 247 536 247 536 244 430 c 128,-1,72
 241 324 241 324 241 320 c 2,73,-1
 241 308 l 1,74,-1
 242 276 l 1,75,-1
 242 266 l 1,76,77
 344 325 344 325 418 397 c 1,78,79
 404 399 404 399 389.5 403.5 c 128,-1,80
 375 408 375 408 375 426 c 0,81,82
 375 453 375 453 434 453 c 0,83,84
 545 453 545 453 545 417 c 0,85,86
 545 391 545 391 480 391 c 1,87,-1
 354 292 l 1,88,89
 406 264 406 264 466 178 c 0,90,91
 490 144 490 144 510.5 113 c 128,-1,92
 531 82 531 82 543.5 70 c 128,-1,93
 556 58 556 58 568.5 53.5 c 128,-1,94
 581 49 581 49 593.5 43.5 c 128,-1,95
 606 38 606 38 615 31 c 128,-1,96
 624 24 624 24 624 12 c 0,0,1
98 560 m 1,97,98
 130 469 130 469 130 287 c 0,99,100
 130 243 130 243 122 152.5 c 128,-1,101
 114 62 114 62 110 29 c 1,102,-1
 132 29 l 2,103,104
 149 29 149 29 159 31 c 128,-1,105
 169 33 169 33 179 35 c 1,106,107
 178 37 178 37 178 42 c 2,108,-1
 178 54 l 1,109,-1
 205 391 l 1,110,-1
 210 504 l 1,111,112
 210 554 210 554 205 610 c 1,113,114
 188 605 188 605 157.5 589.5 c 128,-1,115
 127 574 127 574 98 560 c 1,97,98
299 239 m 1,116,117
 328 218 328 218 354.5 193.5 c 128,-1,118
 381 169 381 169 391 144.5 c 128,-1,119
 401 120 401 120 407.5 102 c 128,-1,120
 414 84 414 84 426 69 c 0,121,122
 454 34 454 34 510 34 c 1,123,124
 485 56 485 56 473 78 c 128,-1,125
 461 100 461 100 448 126 c 0,126,127
 413 191 413 191 343 253 c 1,128,129
 340 253 340 253 333 250.5 c 128,-1,130
 326 248 326 248 319 246 c 0,131,132
 301 239 301 239 299 239 c 1,116,117
EndSplineSet
EndChar

StartChar: l
Encoding: 108 108 79
Width: 324
Flags: W
LayerCount: 2
Fore
SplineSet
72 -15 m 1,0,-1
 57 -16 l 1,1,2
 23 -16 23 -16 8 0 c 0,3,4
 3 6 3 6 3 14.5 c 128,-1,5
 3 23 3 23 9 29 c 128,-1,6
 15 35 15 35 22 35 c 2,7,-1
 103 35 l 2,8,9
 105 35 105 35 107.5 42 c 128,-1,10
 110 49 110 49 110 52.5 c 128,-1,11
 110 56 110 56 109 64 c 128,-1,12
 108 72 108 72 107 82 c 0,13,14
 104 110 104 110 97.5 158 c 128,-1,15
 91 206 91 206 91 296 c 1,16,-1
 98 554 l 2,17,18
 98 571 98 571 92 586 c 1,19,20
 77 583 77 583 70 583 c 0,21,22
 41 583 41 583 41 607 c 0,23,24
 41 623 41 623 88 641 c 0,25,26
 98 645 98 645 118 653 c 128,-1,27
 138 661 138 661 169 676 c 0,28,29
 211 695 211 695 235 699 c 1,30,31
 248 699 248 699 254 685 c 128,-1,32
 260 671 260 671 260 660 c 128,-1,33
 260 649 260 649 257 632 c 128,-1,34
 254 615 254 615 250.5 598.5 c 128,-1,35
 247 582 247 582 244 568.5 c 128,-1,36
 241 555 241 555 241 523 c 128,-1,37
 241 491 241 491 238 442 c 128,-1,38
 235 393 235 393 232 347 c 0,39,40
 222 222 222 222 222 178 c 0,41,42
 222 116 222 116 229 85 c 1,43,44
 231 61 231 61 238 57 c 1,45,46
 246 51 246 51 270 51 c 2,47,-1
 276 51 l 2,48,49
 293 51 293 51 306.5 49 c 128,-1,50
 320 47 320 47 320 35 c 0,51,52
 320 7 320 7 300 4 c 1,53,54
 193 1 193 1 72 -15 c 1,0,-1
192 60 m 1,55,56
 185 95 185 95 185 124 c 2,57,-1
 185 173 l 2,58,59
 185 231 185 231 192 337 c 0,60,61
 205 534 205 534 205 638 c 1,62,63
 197 638 197 638 177 631 c 0,64,65
 139 618 139 618 135 610 c 2,66,-1
 129 598 l 1,67,68
 135 574 135 574 135 538 c 128,-1,69
 135 502 135 502 134 486 c 128,-1,70
 133 470 133 470 132 452 c 0,71,72
 128 408 128 408 128 347 c 0,73,74
 128 196 128 196 154 47 c 1,75,-1
 177 46 l 2,76,77
 184 46 184 46 188 48.5 c 128,-1,78
 192 51 192 51 192 60 c 1,55,56
EndSplineSet
EndChar

StartChar: m
Encoding: 109 109 80
Width: 867
Flags: W
LayerCount: 2
Fore
SplineSet
240 -8 m 1,0,-1
 89 -10 l 1,1,2
 57 -8 57 -8 45 -5.5 c 128,-1,3
 33 -3 33 -3 33.5 13.5 c 128,-1,4
 34 30 34 30 45 33.5 c 128,-1,5
 56 37 56 37 69.5 37.5 c 128,-1,6
 83 38 83 38 94 40 c 128,-1,7
 105 42 105 42 106 54 c 1,8,-1
 101 99 l 2,9,10
 101 105 101 105 102 129.5 c 128,-1,11
 103 154 103 154 104 184 c 0,12,13
 107 259 107 259 110 278 c 1,14,15
 108 285 108 285 105.5 294.5 c 128,-1,16
 103 304 103 304 100 312 c 0,17,18
 94 332 94 332 88 332 c 2,19,-1
 31 335 l 2,20,21
 26 335 26 335 22.5 345 c 128,-1,22
 19 355 19 355 19 358 c 0,23,24
 19 368 19 368 26 369 c 2,25,-1
 140 388 l 2,26,27
 155 391 155 391 172 400 c 0,28,29
 204 417 204 417 218.5 417 c 128,-1,30
 233 417 233 417 239 412 c 128,-1,31
 245 407 245 407 248 399 c 0,32,33
 252 388 252 388 252 364 c 1,34,35
 275 372 275 372 298.5 381.5 c 128,-1,36
 322 391 322 391 344 400 c 0,37,38
 396 419 396 419 415.5 419 c 128,-1,39
 435 419 435 419 447.5 410.5 c 128,-1,40
 460 402 460 402 472.5 390.5 c 128,-1,41
 485 379 485 379 495.5 368 c 128,-1,42
 506 357 506 357 513 351 c 1,43,44
 598 419 598 419 661 419 c 0,45,46
 738 419 738 419 775 378 c 0,47,48
 791 361 791 361 791 332 c 2,49,-1
 785 153 l 1,50,-1
 785 99 l 2,51,52
 785 58 785 58 805 53 c 0,53,54
 828 47 828 47 835 42 c 128,-1,55
 842 37 842 37 842 22.5 c 128,-1,56
 842 8 842 8 825.5 4.5 c 128,-1,57
 809 1 809 1 792.5 1 c 128,-1,58
 776 1 776 1 768.5 0 c 128,-1,59
 761 -1 761 -1 755 -2 c 128,-1,60
 749 -3 749 -3 743 -4 c 128,-1,61
 737 -5 737 -5 728 -5 c 0,62,63
 636 -5 636 -5 636 27 c 0,64,65
 636 89 636 89 645.5 152 c 128,-1,66
 655 215 655 215 655 278 c 0,67,68
 655 305 655 305 647.5 322 c 128,-1,69
 640 339 640 339 614 341 c 1,70,71
 588 339 588 339 568 323 c 0,72,73
 529 293 529 293 529 271 c 1,74,75
 537 248 537 248 537.5 214.5 c 128,-1,76
 538 181 538 181 538 159 c 128,-1,77
 538 137 538 137 536 112.5 c 128,-1,78
 534 88 534 88 530 64 c 0,79,80
 518 3 518 3 495 1 c 0,81,82
 490 0 490 0 473.5 -1 c 128,-1,83
 457 -2 457 -2 449.5 -2.5 c 128,-1,84
 442 -3 442 -3 434.5 -2.5 c 128,-1,85
 427 -2 427 -2 417 -0.5 c 128,-1,86
 407 1 407 1 400 5 c 0,87,88
 385 14 385 14 385 37 c 0,89,90
 385 89 385 89 392 136 c 128,-1,91
 399 183 399 183 399 231 c 128,-1,92
 399 279 399 279 380.5 307 c 128,-1,93
 362 335 362 335 339 335 c 0,94,95
 298 335 298 335 270 299 c 0,96,97
 246 267 246 267 246 239 c 1,98,-1
 237 44 l 1,99,100
 243 39 243 39 252 38 c 128,-1,101
 261 37 261 37 270 35.5 c 128,-1,102
 279 34 279 34 285.5 30 c 128,-1,103
 292 26 292 26 292 13.5 c 128,-1,104
 292 1 292 1 278 -8 c 1,105,-1
 240 -8 l 1,0,-1
138 338 m 1,106,107
 148 286 148 286 148 249 c 128,-1,108
 148 212 148 212 143.5 159 c 128,-1,109
 139 106 139 106 137 45 c 1,110,-1
 191 42 l 2,111,112
 198 42 198 42 198 54 c 2,113,-1
 205 293 l 2,114,115
 205 309 205 309 204 326 c 128,-1,116
 203 343 203 343 202 360 c 1,117,118
 202 359 202 359 192 357 c 128,-1,119
 182 355 182 355 170 352 c 0,120,121
 138 346 138 346 138 338 c 1,106,107
444 262 m 0,122,123
 445 241 445 241 445 224 c 128,-1,124
 445 207 445 207 443.5 193 c 128,-1,125
 442 179 442 179 440 158 c 0,126,127
 433 102 433 102 428 36 c 1,128,129
 466 36 466 36 486 40 c 1,130,131
 500 132 500 132 500 206 c 128,-1,132
 500 280 500 280 477.5 321.5 c 128,-1,133
 455 363 455 363 417 368 c 1,134,135
 387 368 387 368 375 360 c 1,136,137
 440 340 440 340 444 262 c 0,122,123
696 216 m 0,138,139
 696 178 696 178 680 47 c 1,140,141
 680 38 680 38 731 38 c 0,142,143
 740 38 740 38 744 40.5 c 128,-1,144
 748 43 748 43 748 53 c 2,145,-1
 741 149 l 1,146,147
 741 183 741 183 746 218 c 0,148,149
 754 284 754 284 754 303 c 128,-1,150
 754 322 754 322 749 337 c 128,-1,151
 744 352 744 352 734 359 c 0,152,153
 721 368 721 368 679 368 c 2,154,-1
 672 368 l 1,155,156
 696 303 696 303 696 216 c 0,138,139
EndSplineSet
EndChar

StartChar: n
Encoding: 110 110 81
Width: 631
Flags: W
LayerCount: 2
Fore
SplineSet
51 -20 m 1,0,1
 23 -16 23 -16 23 15 c 1,2,3
 25 29 25 29 31 32 c 128,-1,4
 37 35 37 35 47 35 c 1,5,-1
 55 34 l 1,6,7
 83 34 83 34 90 58 c 1,8,9
 96 74 96 74 96 116.5 c 128,-1,10
 96 159 96 159 103 211.5 c 128,-1,11
 110 264 110 264 110 307.5 c 128,-1,12
 110 351 110 351 107 384 c 1,13,-1
 60 382 l 1,14,-1
 51 382 l 1,15,16
 42 384 42 384 31 388 c 128,-1,17
 20 392 20 392 20 400 c 128,-1,18
 20 408 20 408 26.5 415 c 128,-1,19
 33 422 33 422 35 426 c 1,20,21
 41 425 41 425 46 425 c 128,-1,22
 51 425 51 425 68 425 c 128,-1,23
 85 425 85 425 97 426 c 128,-1,24
 109 427 109 427 115.5 427.5 c 128,-1,25
 122 428 122 428 128.5 429 c 128,-1,26
 135 430 135 430 155 430 c 0,27,28
 183 430 183 430 233 452 c 1,29,30
 245 450 245 450 253.5 444.5 c 128,-1,31
 262 439 262 439 266 437 c 1,32,-1
 261 388 l 1,33,34
 263 386 263 386 268 386 c 0,35,36
 276 386 276 386 297 402 c 1,37,38
 344 423 344 423 372 433.5 c 128,-1,39
 400 444 400 444 416 444 c 128,-1,40
 432 444 432 444 447.5 439 c 128,-1,41
 463 434 463 434 479 424 c 0,42,43
 516 403 516 403 530 370 c 0,44,45
 553 313 553 313 553 275 c 0,46,47
 553 259 553 259 548 233 c 0,48,49
 540 184 540 184 540 160 c 0,50,51
 540 122 540 122 545 106.5 c 128,-1,52
 550 91 550 91 554 79 c 0,53,54
 563 48 563 48 568 46 c 1,55,56
 573 41 573 41 581 39.5 c 128,-1,57
 589 38 589 38 596 36 c 0,58,59
 615 31 615 31 615 17 c 256,60,61
 615 3 615 3 568 -5 c 0,62,63
 484 -19 484 -19 447 8 c 0,64,65
 376 60 376 60 376 220 c 0,66,67
 376 354 376 354 324 354 c 0,68,69
 298 354 298 354 276 328 c 0,70,71
 254 303 254 303 252 280 c 2,72,-1
 232 82 l 1,73,74
 232 47 232 47 252 33.5 c 128,-1,75
 272 20 272 20 305 17 c 0,76,77
 312 16 312 16 312 7 c 0,78,79
 312 -12 312 -12 276 -12 c 0,80,81
 263 -12 263 -12 245 -7 c 0,82,83
 209 3 209 3 177.5 3 c 128,-1,84
 146 3 146 3 51 -20 c 1,0,1
141 364 m 1,85,-1
 142 304 l 2,86,87
 142 295 142 295 140 271.5 c 128,-1,88
 138 248 138 248 136 218 c 0,89,90
 130 130 130 130 130 102 c 128,-1,91
 130 74 130 74 131 62 c 128,-1,92
 132 50 132 50 136 44 c 0,93,94
 140 37 140 37 171 37 c 0,95,96
 186 37 186 37 192 40 c 128,-1,97
 198 43 198 43 198 54.5 c 128,-1,98
 198 66 198 66 194 86 c 1,99,100
 196 103 196 103 198.5 128.5 c 128,-1,101
 201 154 201 154 204 182.5 c 128,-1,102
 207 211 207 211 210.5 241 c 128,-1,103
 214 271 214 271 216 297 c 0,104,105
 222 354 222 354 222 371 c 2,106,-1
 222 375 l 2,107,108
 222 384 222 384 220.5 394 c 128,-1,109
 219 404 219 404 209 404 c 0,110,111
 188 404 188 404 167.5 396.5 c 128,-1,112
 147 389 147 389 145 386 c 1,113,-1
 141 364 l 1,85,-1
404 403 m 0,114,115
 378 403 378 403 376 387 c 0,116,117
 376 380 376 380 381 375.5 c 128,-1,118
 386 371 386 371 392 364 c 0,119,120
 408 345 408 345 412 316 c 128,-1,121
 416 287 416 287 415 245.5 c 128,-1,122
 414 204 414 204 418.5 161 c 128,-1,123
 423 118 423 118 437.5 81 c 128,-1,124
 452 44 452 44 488 26 c 1,125,126
 498 26 498 26 508 36 c 128,-1,127
 518 46 518 46 518 57 c 1,128,-1
 502 140 l 1,129,-1
 509 277 l 1,130,131
 509 341 509 341 476 382 c 1,132,133
 461 403 461 403 404 403 c 0,114,115
EndSplineSet
EndChar

StartChar: o
Encoding: 111 111 82
Width: 580
Flags: W
LayerCount: 2
Fore
SplineSet
57 82 m 0,0,1
 37 111 37 111 34 143 c 128,-1,2
 31 175 31 175 31 217 c 128,-1,3
 31 259 31 259 60 298.5 c 128,-1,4
 89 338 89 338 134 366 c 0,5,6
 228 426 228 426 336 426 c 0,7,8
 430 426 430 426 494 333 c 0,9,10
 521 293 521 293 535.5 245.5 c 128,-1,11
 550 198 550 198 550 149 c 128,-1,12
 550 100 550 100 520 54 c 0,13,14
 480 -8 480 -8 406 -26 c 0,15,16
 382 -31 382 -31 344.5 -37 c 128,-1,17
 307 -43 307 -43 300 -43 c 0,18,19
 226 -43 226 -43 165 -16 c 128,-1,20
 104 11 104 11 57 82 c 0,0,1
225 364 m 1,21,22
 205 364 205 364 178.5 347.5 c 128,-1,23
 152 331 152 331 128 306 c 0,24,25
 71 245 71 245 71 188 c 0,26,27
 71 140 71 140 100 107 c 0,28,29
 177 18 177 18 214 18 c 1,30,31
 204 58 204 58 191 100.5 c 128,-1,32
 178 143 178 143 178 170 c 128,-1,33
 178 197 178 197 181 219.5 c 128,-1,34
 184 242 184 242 190 268 c 0,35,36
 204 332 204 332 225 364 c 1,21,22
223 183 m 0,37,38
 223 160 223 160 225.5 133 c 128,-1,39
 228 106 228 106 235 81 c 0,40,41
 252 20 252 20 284 20 c 0,42,43
 319 20 319 20 338 44 c 128,-1,44
 357 68 357 68 366 102 c 0,45,46
 378 148 378 148 378 246 c 0,47,48
 378 288 378 288 368 319 c 0,49,50
 349 377 349 377 332 377 c 0,51,52
 269 377 269 377 242 306 c 0,53,54
 223 254 223 254 223 183 c 0,37,38
394 363 m 1,55,56
 419 295 419 295 419 215 c 0,57,58
 419 147 419 147 385 45 c 0,59,60
 384 43 384 43 384 41 c 0,61,62
 384 32 384 32 403 32 c 128,-1,63
 422 32 422 32 441.5 45.5 c 128,-1,64
 461 59 461 59 474 81 c 0,65,66
 500 125 500 125 500 187 c 128,-1,67
 500 249 500 249 471 291 c 128,-1,68
 442 333 442 333 394 363 c 1,55,56
EndSplineSet
EndChar

StartChar: p
Encoding: 112 112 83
Width: 596
Flags: W
LayerCount: 2
Fore
SplineSet
242 -263 m 0,0,1
 85 -273 85 -273 50.5 -273 c 128,-1,2
 16 -273 16 -273 16 -257 c 128,-1,3
 16 -241 16 -241 23 -234 c 128,-1,4
 30 -227 30 -227 39 -223 c 128,-1,5
 48 -219 48 -219 56 -214 c 128,-1,6
 64 -209 64 -209 70 -179.5 c 128,-1,7
 76 -150 76 -150 82 -113 c 128,-1,8
 88 -76 88 -76 91 -40 c 0,9,10
 95 8 95 8 95 125 c 2,11,-1
 95 161 l 2,12,13
 95 194 95 194 92.5 227 c 128,-1,14
 90 260 90 260 74 282 c 0,15,16
 69 289 69 289 59.5 293 c 128,-1,17
 50 297 50 297 40 302 c 0,18,19
 17 313 17 313 17 332 c 0,20,21
 17 337 17 337 75 356.5 c 128,-1,22
 133 376 133 376 154 384 c 0,23,24
 205 403 205 403 212 413 c 1,25,-1
 246 413 l 1,26,-1
 246 357 l 1,27,28
 255 361 255 361 258 367.5 c 128,-1,29
 261 374 261 374 267 382 c 0,30,31
 290 410 290 410 316 421.5 c 128,-1,32
 342 433 342 433 372 433 c 0,33,34
 420 433 420 433 437 426 c 0,35,36
 475 408 475 408 499.5 390 c 128,-1,37
 524 372 524 372 538 348 c 0,38,39
 562 306 562 306 562 207 c 0,40,41
 562 174 562 174 516 106 c 0,42,43
 505 89 505 89 495.5 78 c 128,-1,44
 486 67 486 67 463 52 c 128,-1,45
 440 37 440 37 416 26 c 0,46,47
 361 1 361 1 348 1 c 128,-1,48
 335 1 335 1 322 5 c 128,-1,49
 309 9 309 9 294 14 c 0,50,51
 252 26 252 26 233 26 c 0,52,53
 230 26 230 26 229 -22 c 0,54,55
 225 -120 225 -120 222 -151 c 1,56,-1
 226 -215 l 1,57,58
 262 -215 262 -215 262 -242 c 0,59,60
 262 -250 262 -250 256.5 -256.5 c 128,-1,61
 251 -263 251 -263 242 -263 c 0,0,1
199 288 m 1,62,-1
 200 342 l 1,63,-1
 200 359 l 1,64,65
 166 353 166 353 133 335.5 c 128,-1,66
 100 318 100 318 98 313 c 1,67,68
 115 288 115 288 122.5 267.5 c 128,-1,69
 130 247 130 247 130.5 239.5 c 128,-1,70
 131 232 131 232 133 220 c 0,71,72
 137 198 137 198 137 176 c 1,73,-1
 130 101 l 1,74,75
 130 -54 130 -54 111 -213 c 1,76,-1
 147 -214 l 2,77,78
 166 -214 166 -214 173 -208 c 1,79,80
 187 -108 187 -108 187 14 c 1,81,-1
 185 53 l 1,82,83
 185 75 185 75 193 88 c 1,84,85
 192 96 192 96 192 116 c 2,86,-1
 192 157 l 2,87,88
 192 200 192 200 194 219 c 0,89,90
 199 252 199 252 199 263 c 2,91,-1
 199 288 l 1,62,-1
236 82 m 1,92,93
 288 57 288 57 349 57 c 0,94,95
 391 57 391 57 411 112 c 0,96,97
 427 156 427 156 427 209.5 c 128,-1,98
 427 263 427 263 424 287 c 128,-1,99
 421 311 421 311 412 328 c 0,100,101
 398 356 398 356 349 382 c 1,102,103
 293 354 293 354 259 268 c 0,104,105
 230 196 230 196 230 112 c 0,106,107
 230 96 230 96 233.5 92.5 c 128,-1,108
 237 89 237 89 237 86.5 c 128,-1,109
 237 84 237 84 236.5 84 c 128,-1,110
 236 84 236 84 236 83 c 2,111,-1
 236 82 l 1,92,93
441 89 m 1,112,113
 525 166 525 166 525 247 c 0,114,115
 525 294 525 294 499 338 c 1,116,117
 468 388 468 388 423 388 c 0,118,119
 422 388 422 388 418.5 387.5 c 128,-1,120
 415 387 415 387 413 387 c 1,121,122
 454 358 454 358 470 291 c 0,123,124
 474 272 474 272 474 243.5 c 128,-1,125
 474 215 474 215 463 178 c 128,-1,126
 452 141 452 141 447.5 120.5 c 128,-1,127
 443 100 443 100 442 95.5 c 128,-1,128
 441 91 441 91 441 89 c 1,112,113
EndSplineSet
EndChar

StartChar: q
Encoding: 113 113 84
Width: 664
Flags: W
LayerCount: 2
Fore
SplineSet
340 -258 m 1,0,1
 314 -258 314 -258 314 -236 c 2,2,-1
 314 -232 l 1,3,4
 323 -215 323 -215 331 -211 c 128,-1,5
 339 -207 339 -207 347.5 -206.5 c 128,-1,6
 356 -206 356 -206 366 -205.5 c 128,-1,7
 376 -205 376 -205 389 -195 c 1,8,9
 395 -171 395 -171 395 -128 c 128,-1,10
 395 -85 395 -85 396 -62.5 c 128,-1,11
 397 -40 397 -40 398 -21 c 0,12,13
 402 23 402 23 402 41 c 128,-1,14
 402 59 402 59 395 63 c 1,15,16
 326 -6 326 -6 232 -6 c 0,17,18
 144 -6 144 -6 88 46 c 0,19,20
 32 99 32 99 32 186 c 0,21,22
 32 228 32 228 58 289 c 128,-1,23
 84 350 84 350 133 388 c 128,-1,24
 182 426 182 426 247 426 c 128,-1,25
 312 426 312 426 352 407 c 1,26,27
 352 404 352 404 363.5 398 c 128,-1,28
 375 392 375 392 382.5 388 c 128,-1,29
 390 384 390 384 395 382 c 1,30,-1
 395 388 l 2,31,32
 395 389 395 389 394 394 c 128,-1,33
 393 399 393 399 392 404 c 128,-1,34
 391 409 391 409 390 414 c 128,-1,35
 389 419 389 419 389 425.5 c 128,-1,36
 389 432 389 432 394.5 437.5 c 128,-1,37
 400 443 400 443 407.5 445.5 c 128,-1,38
 415 448 415 448 424 448.5 c 128,-1,39
 433 449 433 449 449.5 454.5 c 128,-1,40
 466 460 466 460 489 466 c 128,-1,41
 512 472 512 472 534 476 c 0,42,43
 575 482 575 482 623 482 c 0,44,45
 647 482 647 482 647 457 c 0,46,47
 647 439 647 439 627 432 c 1,48,49
 583 395 583 395 571 332 c 0,50,51
 570 322 570 322 568.5 301 c 128,-1,52
 567 280 567 280 565 253.5 c 128,-1,53
 563 227 563 227 561 198 c 128,-1,54
 559 169 559 169 557 142.5 c 128,-1,55
 555 116 555 116 553.5 94.5 c 128,-1,56
 552 73 552 73 551.5 55.5 c 128,-1,57
 551 38 551 38 552 8 c 128,-1,58
 553 -22 553 -22 556 -52 c 0,59,60
 563 -124 563 -124 582 -163 c 0,61,62
 588 -175 588 -175 597.5 -177.5 c 128,-1,63
 607 -180 607 -180 616.5 -181.5 c 128,-1,64
 626 -183 626 -183 633 -188.5 c 128,-1,65
 640 -194 640 -194 640 -209.5 c 128,-1,66
 640 -225 640 -225 633 -226 c 1,67,68
 611 -224 611 -224 573 -224 c 128,-1,69
 535 -224 535 -224 486.5 -233 c 128,-1,70
 438 -242 438 -242 383 -252 c 1,71,-1
 340 -258 l 1,0,1
509.5 14 m 128,-1,73
 508 34 508 34 508 42.5 c 128,-1,74
 508 51 508 51 514 96 c 1,75,-1
 514 136 l 1,76,-1
 515 150 l 2,77,78
 516 166 516 166 518 190.5 c 128,-1,79
 520 215 520 215 522 245 c 128,-1,80
 524 275 524 275 526 303 c 0,81,82
 529 340 529 340 533 388 c 1,83,84
 536 396 536 396 541 410 c 128,-1,85
 546 424 546 424 551 432 c 1,86,87
 498 432 498 432 446 404 c 0,88,89
 435 398 435 398 433.5 388 c 128,-1,90
 432 378 432 378 432 360 c 128,-1,91
 432 342 432 342 433 326 c 128,-1,92
 434 310 434 310 436 288 c 0,93,94
 439 235 439 235 439 135 c 1,95,-1
 432 -190 l 1,96,97
 468 -190 468 -190 502.5 -181 c 128,-1,98
 537 -172 537 -172 539 -170 c 1,99,100
 539 -152 539 -152 531 -135 c 128,-1,101
 523 -118 523 -118 521 -107.5 c 128,-1,102
 519 -97 519 -97 517 -76 c 128,-1,103
 515 -55 515 -55 513 -30.5 c 128,-1,72
 511 -6 511 -6 509.5 14 c 128,-1,73
277 363 m 0,104,105
 183 300 183 300 183 152 c 0,106,107
 183 106 183 106 191 87 c 0,108,109
 208 45 208 45 246.5 45 c 128,-1,110
 285 45 285 45 315 64.5 c 128,-1,111
 345 84 345 84 365 114 c 0,112,113
 405 176 405 176 405 252 c 0,114,115
 405 304 405 304 379 337.5 c 128,-1,116
 353 371 353 371 306 371 c 0,117,118
 294 371 294 371 290 370 c 128,-1,119
 286 369 286 369 277 363 c 0,104,105
164 55 m 1,120,-1
 145 151 l 1,121,122
 145 221 145 221 156 261 c 0,123,124
 168 306 168 306 195 370 c 1,125,126
 149 366 149 366 111 300 c 0,127,128
 77 240 77 240 77 191 c 0,129,130
 77 170 77 170 88 138.5 c 128,-1,131
 99 107 99 107 101 100 c 1,132,133
 112 80 112 80 152 60 c 0,134,135
 160 55 160 55 164 55 c 1,120,-1
EndSplineSet
EndChar

StartChar: r
Encoding: 114 114 85
Width: 533
Flags: W
LayerCount: 2
Fore
SplineSet
267 -8 m 1,0,-1
 82 -15 l 2,1,2
 59 -15 59 -15 43.5 -9 c 128,-1,3
 28 -3 28 -3 28 23 c 0,4,5
 28 35 28 35 54 38 c 0,6,7
 84 41 84 41 90 47 c 0,8,9
 112 71 112 71 112 179 c 0,10,11
 112 254 112 254 108 290 c 128,-1,12
 104 326 104 326 103 329 c 0,13,14
 99 345 99 345 85.5 348.5 c 128,-1,15
 72 352 72 352 57 354 c 128,-1,16
 42 356 42 356 30.5 361.5 c 128,-1,17
 19 367 19 367 19 381.5 c 128,-1,18
 19 396 19 396 26 398 c 1,19,20
 46 399 46 399 93 405.5 c 128,-1,21
 140 412 140 412 167 415.5 c 128,-1,22
 194 419 194 419 216 422 c 0,23,24
 262 430 262 430 266 430 c 0,25,26
 289 430 289 430 289 399 c 0,27,28
 289 354 289 354 278 323 c 1,29,30
 291 334 291 334 305 355 c 128,-1,31
 319 376 319 376 335 397 c 0,32,33
 375 449 375 449 403 449 c 128,-1,34
 431 449 431 449 452 437 c 128,-1,35
 473 425 473 425 488 406 c 0,36,37
 520 365 520 365 520 317 c 0,38,39
 520 250 520 250 472 222 c 0,40,41
 454 212 454 212 431 212 c 128,-1,42
 408 212 408 212 396 226 c 128,-1,43
 384 240 384 240 376.5 260 c 128,-1,44
 369 280 369 280 363 302.5 c 128,-1,45
 357 325 357 325 350 343 c 1,46,47
 269 267 269 267 260 174 c 0,48,49
 258 147 258 147 258 120 c 2,50,-1
 259 55 l 2,51,52
 259 42 259 42 267 38 c 128,-1,53
 275 34 275 34 285 31.5 c 128,-1,54
 295 29 295 29 303 25.5 c 128,-1,55
 311 22 311 22 311 10 c 256,56,57
 311 -2 311 -2 299 -9 c 1,58,-1
 267 -8 l 1,0,-1
122 372 m 1,59,60
 147 324 147 324 147 248.5 c 128,-1,61
 147 173 147 173 141.5 125 c 128,-1,62
 136 77 136 77 134 34 c 1,63,64
 141 31 141 31 152.5 31 c 128,-1,65
 164 31 164 31 176.5 34 c 128,-1,66
 189 37 189 37 199 42 c 0,67,68
 222 52 222 52 222 66 c 0,69,70
 222 192 222 192 229.5 258.5 c 128,-1,71
 237 325 237 325 245 380 c 1,72,73
 213 379 213 379 182 376.5 c 128,-1,74
 151 374 151 374 122 372 c 1,59,60
388 399 m 1,75,76
 388 352 388 352 399 318 c 0,77,78
 420 253 420 253 440 253 c 0,79,80
 463 253 463 253 473 272.5 c 128,-1,81
 483 292 483 292 483 312.5 c 128,-1,82
 483 333 483 333 475 348 c 128,-1,83
 467 363 467 363 454 374 c 0,84,85
 425 399 425 399 388 399 c 1,75,76
EndSplineSet
EndChar

StartChar: s
Encoding: 115 115 86
Width: 490
Flags: W
LayerCount: 2
Fore
SplineSet
281 397 m 0,0,1
 198 397 198 397 198 372 c 0,2,3
 198 341 198 341 217 317 c 128,-1,4
 236 293 236 293 264 271.5 c 128,-1,5
 292 250 292 250 325.5 230 c 128,-1,6
 359 210 359 210 387 188 c 0,7,8
 453 136 453 136 453 79 c 0,9,10
 453 9 453 9 375 -17 c 0,11,12
 327 -33 327 -33 255.5 -33 c 128,-1,13
 184 -33 184 -33 137.5 -22 c 128,-1,14
 91 -11 91 -11 62.5 -7.5 c 128,-1,15
 34 -4 34 -4 28.5 4 c 128,-1,16
 23 12 23 12 23 23.5 c 128,-1,17
 23 35 23 35 28 44.5 c 128,-1,18
 33 54 33 54 40 63 c 0,19,20
 60 89 60 89 64 100.5 c 128,-1,21
 68 112 68 112 70 121.5 c 128,-1,22
 72 131 72 131 76 138 c 0,23,24
 84 156 84 156 101.5 156 c 128,-1,25
 119 156 119 156 131.5 133 c 128,-1,26
 144 110 144 110 160.5 82.5 c 128,-1,27
 177 55 177 55 200.5 32 c 128,-1,28
 224 9 224 9 263 9 c 0,29,30
 330 9 330 9 330 46 c 0,31,32
 330 77 330 77 260 130 c 0,33,34
 229 153 229 153 193.5 178 c 128,-1,35
 158 203 158 203 128 228 c 0,36,37
 57 286 57 286 57 326 c 128,-1,38
 57 366 57 366 77.5 388 c 128,-1,39
 98 410 98 410 128 422 c 1,40,41
 169 440 169 440 254 446 c 1,42,-1
 304 447 l 1,43,-1
 380 448 l 2,44,45
 424 448 424 448 433 442 c 0,46,47
 446 432 446 432 446 404 c 128,-1,48
 446 376 446 376 445.5 355 c 128,-1,49
 445 334 445 334 443 318 c 0,50,51
 439 285 439 285 423 285 c 0,52,53
 401 285 401 285 384 302.5 c 128,-1,54
 367 320 367 320 351.5 341 c 128,-1,55
 336 362 336 362 319.5 379.5 c 128,-1,56
 303 397 303 397 281 397 c 0,0,1
84 35 m 0,57,58
 98 19 98 19 162 14 c 1,59,60
 150 42 150 42 127.5 68 c 128,-1,61
 105 94 105 94 99 98 c 1,62,63
 90 86 90 86 87 61 c 128,-1,64
 84 36 84 36 84 35 c 0,57,58
99 329 m 0,65,66
 99 311 99 311 119 290 c 128,-1,67
 139 269 139 269 169 245.5 c 128,-1,68
 199 222 199 222 234 196.5 c 128,-1,69
 269 171 269 171 299 144 c 0,70,71
 369 79 369 79 369 30 c 1,72,73
 376 33 376 33 385 36.5 c 128,-1,74
 394 40 394 40 402 45 c 0,75,76
 421 57 421 57 421 77 c 128,-1,77
 421 97 421 97 400.5 118.5 c 128,-1,78
 380 140 380 140 349.5 163.5 c 128,-1,79
 319 187 319 187 283.5 212 c 128,-1,80
 248 237 248 237 218 264 c 0,81,82
 146 327 146 327 146 378 c 1,83,84
 99 371 99 371 99 329 c 0,65,66
406 329 m 1,85,-1
 410 371 l 1,86,87
 410 388 410 388 401.5 397 c 128,-1,88
 393 406 393 406 376 406 c 0,89,90
 354 406 354 406 340 404 c 1,91,92
 384 360 384 360 406 329 c 1,85,-1
EndSplineSet
EndChar

StartChar: t
Encoding: 116 116 87
Width: 459
Flags: W
LayerCount: 2
Fore
SplineSet
151 466 m 1,0,-1
 145 523 l 2,1,2
 145 525 145 525 107 517 c 1,3,4
 96 517 96 517 86 525 c 128,-1,5
 76 533 76 533 76 545.5 c 128,-1,6
 76 558 76 558 85.5 565.5 c 128,-1,7
 95 573 95 573 110 578 c 0,8,9
 127 584 127 584 183 592 c 1,10,-1
 201 591 l 1,11,12
 217 593 217 593 233 602 c 2,13,-1
 262 618 l 2,14,15
 294 636 294 636 316 636 c 128,-1,16
 338 636 338 636 341.5 624.5 c 128,-1,17
 345 613 345 613 345 597 c 1,18,-1
 343 586 l 2,19,20
 332 520 332 520 332 498 c 128,-1,21
 332 476 332 476 332.5 464 c 128,-1,22
 333 452 333 452 333.5 440 c 128,-1,23
 334 428 334 428 334.5 418 c 128,-1,24
 335 408 335 408 335 404 c 1,25,26
 358 404 358 404 380 408 c 128,-1,27
 402 412 402 412 426.5 412 c 128,-1,28
 451 412 451 412 451 392 c 0,29,30
 451 379 451 379 445 372 c 1,31,32
 417 372 417 372 377 367 c 128,-1,33
 337 362 337 362 333 361 c 1,34,35
 325 356 325 356 317 307 c 128,-1,36
 309 258 309 258 308.5 242.5 c 128,-1,37
 308 227 308 227 306 212 c 128,-1,38
 304 197 304 197 301 181 c 0,39,40
 294 144 294 144 294 101 c 0,41,42
 294 81 294 81 309 64 c 128,-1,43
 324 47 324 47 345 47 c 1,44,-1
 383 49 l 2,45,46
 397 49 397 49 408.5 45 c 128,-1,47
 420 41 420 41 420 26 c 0,48,49
 420 25 420 25 419 24 c 1,50,-1
 419 23 l 1,51,52
 387 -21 387 -21 263 -21 c 0,53,54
 182 -21 182 -21 146 36 c 0,55,56
 119 78 119 78 119 151 c 0,57,58
 119 163 119 163 133 310 c 1,59,-1
 131 354 l 1,60,-1
 8 354 l 2,61,62
 1 354 1 354 -2.5 363 c 128,-1,63
 -6 372 -6 372 -6 377 c 0,64,65
 -6 392 -6 392 8 398 c 1,66,67
 135 406 135 406 145 411 c 1,68,69
 151 447 151 447 151 466 c 1,0,-1
290 574 m 1,70,71
 201 552 201 552 201 524 c 0,72,73
 201 476 201 476 188 347 c 0,74,75
 169 170 169 170 169 149.5 c 128,-1,76
 169 129 169 129 171 107 c 128,-1,77
 173 85 173 85 182 69 c 0,78,79
 201 35 201 35 258 35 c 0,80,81
 260 35 260 35 267 35.5 c 128,-1,82
 274 36 274 36 276 36 c 1,83,84
 263 56 263 56 260 75.5 c 128,-1,85
 257 95 257 95 257 123.5 c 128,-1,86
 257 152 257 152 260 178 c 128,-1,87
 263 204 263 204 263 220 c 2,88,-1
 263 245 l 2,89,90
 263 267 263 267 270 286 c 1,91,92
 290 406 290 406 290 574 c 1,70,71
EndSplineSet
EndChar

StartChar: u
Encoding: 117 117 88
Width: 645
Flags: W
LayerCount: 2
Fore
SplineSet
551 -33 m 0,0,1
 453 -33 453 -33 400 87 c 1,2,3
 391 48 391 48 328 12 c 0,4,5
 193 -64 193 -64 110 35 c 0,6,7
 69 84 69 84 69 143 c 2,8,-1
 69 310 l 2,9,10
 69 322 69 322 63 329.5 c 128,-1,11
 57 337 57 337 50 344.5 c 128,-1,12
 43 352 43 352 37 360.5 c 128,-1,13
 31 369 31 369 31 383 c 0,14,15
 31 412 31 412 129 412 c 0,16,17
 151 412 151 412 168 412 c 0,18,19
 205 412 205 412 219 410 c 1,20,-1
 256 397 l 1,21,22
 256 361 256 361 250 293 c 0,23,24
 237 162 237 162 237 128 c 2,25,-1
 237 117 l 2,26,27
 237 88 237 88 242 79 c 0,28,29
 251 60 251 60 276 60 c 0,30,31
 293 60 293 60 307 69.5 c 128,-1,32
 321 79 321 79 332 87 c 1,33,34
 334 90 334 90 347 108 c 1,35,36
 372 139 372 139 372 143 c 2,37,-1
 372 397 l 2,38,39
 372 428 372 428 482 430 c 0,40,41
 512 430 512 430 533 430 c 128,-1,42
 554 430 554 430 561.5 425.5 c 128,-1,43
 569 421 569 421 569 410.5 c 128,-1,44
 569 400 569 400 568 396.5 c 128,-1,45
 567 393 567 393 562 391 c 1,46,47
 559 369 559 369 554.5 350.5 c 128,-1,48
 550 332 550 332 546 314 c 0,49,50
 537 274 537 274 537 235 c 0,51,52
 537 80 537 80 595 41 c 0,53,54
 615 28 615 28 629.5 23 c 128,-1,55
 644 18 644 18 644 17 c 0,56,57
 644 2 644 2 610 -16 c 0,58,59
 576 -33 576 -33 551 -33 c 0,0,1
431 379 m 1,60,61
 418 379 418 379 418 296 c 0,62,63
 418 188 418 188 428.5 138 c 128,-1,64
 439 88 439 88 453 70 c 0,65,66
 496 17 496 17 541 17 c 0,67,68
 543 17 543 17 548.5 17.5 c 128,-1,69
 554 18 554 18 556 18 c 1,70,71
 493 71 493 71 493 228 c 0,72,73
 493 257 493 257 502 291 c 0,74,75
 519 354 519 354 519 386 c 1,76,-1
 431 379 l 1,60,61
123 370 m 1,77,78
 112 324 112 324 112 266.5 c 128,-1,79
 112 209 112 209 113 181 c 128,-1,80
 114 153 114 153 119 130 c 128,-1,81
 124 107 124 107 134 85 c 0,82,83
 161 30 161 30 207 30 c 1,84,85
 187 87 187 87 186.5 96 c 128,-1,86
 186 105 186 105 186 118 c 128,-1,87
 186 131 186 131 188.5 152.5 c 128,-1,88
 191 174 191 174 194 200 c 0,89,90
 202 271 202 271 202 292 c 128,-1,91
 202 313 202 313 201.5 321.5 c 128,-1,92
 201 330 201 330 200 339 c 0,93,94
 198 384 198 384 198 363 c 1,95,-1
 192 370 l 1,96,-1
 123 370 l 1,77,78
EndSplineSet
EndChar

StartChar: v
Encoding: 118 118 89
Width: 587
Flags: W
LayerCount: 2
Fore
SplineSet
589 379 m 1,0,1
 576 360 576 360 546 360 c 0,2,3
 538 360 538 360 528 358 c 1,4,5
 526 305 526 305 505 254 c 0,6,7
 471 171 471 171 381 5 c 0,8,9
 373 -10 373 -10 313 -10 c 0,10,11
 247 -10 247 -10 221.5 0 c 128,-1,12
 196 10 196 10 180.5 25.5 c 128,-1,13
 165 41 165 41 152.5 73 c 128,-1,14
 140 105 140 105 131 143 c 128,-1,15
 122 181 122 181 114 217 c 0,16,17
 91 311 91 311 72 347 c 0,18,19
 65 360 65 360 48.5 360 c 128,-1,20
 32 360 32 360 18 364 c 128,-1,21
 4 368 4 368 0.5 372 c 128,-1,22
 -3 376 -3 376 -3 392 c 0,23,24
 -3 431 -3 431 145 431 c 0,25,26
 171 431 171 431 195.5 418 c 128,-1,27
 220 405 220 405 227 382 c 0,28,29
 253 298 253 298 275.5 227.5 c 128,-1,30
 298 157 298 157 311 128 c 128,-1,31
 324 99 324 99 329 90 c 128,-1,32
 334 81 334 81 339 72 c 0,33,34
 352 49 352 49 355 49 c 1,35,36
 390 119 390 119 420 186.5 c 128,-1,37
 450 254 450 254 456 266 c 0,38,39
 472 298 472 298 472 326.5 c 128,-1,40
 472 355 472 355 459 361.5 c 128,-1,41
 446 368 446 368 430.5 369 c 128,-1,42
 415 370 415 370 402 373 c 128,-1,43
 389 376 389 376 389 392 c 128,-1,44
 389 408 389 408 392.5 413.5 c 128,-1,45
 396 419 396 419 407 423 c 1,46,47
 442 420 442 420 476.5 415 c 128,-1,48
 511 410 511 410 547 410 c 1,49,-1
 560 411 l 2,50,51
 573 411 573 411 581 406 c 128,-1,52
 589 401 589 401 589 379 c 1,0,1
106 386 m 1,53,54
 126 286 126 286 173 149 c 0,55,56
 200 69 200 69 222 42 c 1,57,-1
 302 42 l 1,58,59
 283 75 283 75 259.5 142.5 c 128,-1,60
 236 210 236 210 221.5 248 c 128,-1,61
 207 286 207 286 190 316 c 0,62,63
 151 384 151 384 106 386 c 1,53,54
EndSplineSet
EndChar

StartChar: w
Encoding: 119 119 90
Width: 828
Flags: W
LayerCount: 2
Fore
SplineSet
213 1 m 1,0,1
 176 23 176 23 176 26 c 2,2,-1
 176 32 l 1,3,4
 134 115 134 115 120 162 c 0,5,6
 105 213 105 213 81 321 c 0,7,8
 76 340 76 340 62 349.5 c 128,-1,9
 48 359 48 359 33 366.5 c 128,-1,10
 18 374 18 374 6 383.5 c 128,-1,11
 -6 393 -6 393 -6 406.5 c 128,-1,12
 -6 420 -6 420 2 429 c 128,-1,13
 10 438 10 438 22.5 440.5 c 128,-1,14
 35 443 35 443 57.5 445.5 c 128,-1,15
 80 448 80 448 101 450 c 0,16,17
 143 454 143 454 158 454 c 0,18,19
 200 454 200 454 219 415 c 1,20,21
 238 369 238 369 256 299 c 0,22,23
 294 143 294 143 310 114 c 0,24,25
 313 109 313 109 313 108 c 1,26,27
 326 114 326 114 344 184 c 0,28,29
 348 200 348 200 351 208 c 0,30,31
 363 241 363 241 374.5 295 c 128,-1,32
 386 349 386 349 388.5 360 c 128,-1,33
 391 371 391 371 391 385.5 c 128,-1,34
 391 400 391 400 392.5 412 c 128,-1,35
 394 424 394 424 398.5 431.5 c 128,-1,36
 403 439 403 439 414 439 c 0,37,38
 453 439 453 439 495 433 c 1,39,40
 509 425 509 425 514 406.5 c 128,-1,41
 519 388 519 388 521 377 c 128,-1,42
 523 366 523 366 526 357 c 2,43,-1
 537 324 l 2,44,45
 545 300 545 300 554 274 c 0,46,47
 577 207 577 207 582 191 c 1,48,49
 625 90 625 90 639 81 c 1,50,51
 714 276 714 276 714 357 c 0,52,53
 714 370 714 370 712 380 c 1,54,55
 638 380 638 380 638 423 c 0,56,57
 638 447 638 447 683.5 447 c 128,-1,58
 729 447 729 447 755 446.5 c 128,-1,59
 781 446 781 446 796 443 c 0,60,61
 821 438 821 438 821 420 c 0,62,63
 821 398 821 398 791 391 c 0,64,65
 783 389 783 389 777 385 c 1,66,67
 777 370 777 370 730.5 213 c 128,-1,68
 684 56 684 56 677 32 c 128,-1,69
 670 8 670 8 659.5 -3 c 128,-1,70
 649 -14 649 -14 618 -14 c 0,71,72
 547 -14 547 -14 514 31 c 0,73,74
 481 75 481 75 420 196 c 0,75,76
 409 218 409 218 407 220 c 1,77,78
 393 199 393 199 372.5 130 c 128,-1,79
 352 61 352 61 348 50 c 2,80,-1
 345 39 l 1,81,-1
 345 8 l 1,82,83
 336 4 336 4 331 0 c 0,84,85
 316 -12 316 -12 259 -2 c 0,86,87
 237 1 237 1 213 1 c 1,0,1
75 403 m 1,88,89
 79 393 79 393 95.5 381.5 c 128,-1,90
 112 370 112 370 121 351 c 128,-1,91
 130 332 130 332 137.5 307 c 128,-1,92
 145 282 145 282 151 254.5 c 128,-1,93
 157 227 157 227 162 202 c 0,94,95
 172 141 172 141 176 132 c 128,-1,96
 180 123 180 123 189 108 c 128,-1,97
 198 93 198 93 208 79 c 0,98,99
 234 45 234 45 245 45 c 0,100,101
 266 45 266 45 274 49.5 c 128,-1,102
 282 54 282 54 282 57 c 0,103,104
 282 77 282 77 272 104 c 0,105,106
 263 131 263 131 247.5 185 c 128,-1,107
 232 239 232 239 221 274 c 0,108,109
 193 364 193 364 175 396 c 0,110,111
 167 409 167 409 145 409 c 0,112,113
 105 409 105 409 75 403 c 1,88,89
447 399 m 1,114,115
 425 333 425 333 425 306.5 c 128,-1,116
 425 280 425 280 432 259 c 128,-1,117
 439 238 439 238 448.5 218 c 128,-1,118
 458 198 458 198 468.5 179 c 128,-1,119
 479 160 479 160 493 132.5 c 128,-1,120
 507 105 507 105 521 82.5 c 128,-1,121
 535 60 535 60 548 48.5 c 128,-1,122
 561 37 561 37 574.5 34 c 128,-1,123
 588 31 588 31 608 31 c 1,124,125
 553 137 553 137 488 339 c 0,126,127
 485 349 485 349 482.5 358 c 128,-1,128
 480 367 480 367 476 375 c 0,129,130
 467 392 467 392 447 399 c 1,114,115
EndSplineSet
EndChar

